<svg width="430" height="60" viewBox="0 0 430 60" fill="none" xmlns="http://www.w3.org/2000/svg">
<path fill-rule="evenodd" clip-rule="evenodd" d="M198.611 0.00116379C238.866 -0.100039 254.022 6.429 293.302 7.92526C341.548 9.76308 412.873 1.52521 427.234 9.54417C443.119 18.414 385.899 23.086 374.465 32.1506C366.366 38.5716 393.401 47.8598 371.998 53.3332C350.164 58.917 297.691 56.7948 260.132 58.8821C231.127 60.494 208.116 54.3074 178.751 55.7195C139.576 57.6035 108.937 62.0753 72.8356 58.8821C37.2116 55.7312 32.189 56.0444 14.3032 49.9462C-2.17768 44.3271 39.7905 41.408 37.7141 35.1429C35.6297 28.8534 -13.2352 22.903 3.47557 17.2761C21.2636 11.2865 92.0405 9.10844 126.081 5.69025C160.111 2.27317 159.06 0.100595 198.611 0.00116379Z" fill="url(#paint0_linear_9_18)"/>
<path d="M118.672 33.8945C118.438 33.5195 118.156 33.2266 117.828 33.0156C117.523 32.7812 117.207 32.6172 116.879 32.5234C116.551 32.4062 116.223 32.3477 115.895 32.3477C115.59 32.3242 115.332 32.3242 115.121 32.3477C114.887 32.3945 114.676 32.2891 114.488 32.0312C114.301 31.7734 114.16 31.4805 114.066 31.1523C113.996 30.8008 113.961 30.4609 113.961 30.1328C113.984 29.7812 114.078 29.5469 114.242 29.4297C114.523 29.1953 114.922 28.9258 115.438 28.6211C115.977 28.3164 116.492 27.9883 116.984 27.6367C117.5 27.2617 117.945 26.8516 118.32 26.4062C118.695 25.9609 118.883 25.4805 118.883 24.9648C118.883 24.2617 118.824 23.6289 118.707 23.0664C118.613 22.4805 118.496 21.9766 118.355 21.5547C118.215 21.1328 118.062 20.8047 117.898 20.5703C117.758 20.3125 117.652 20.1602 117.582 20.1133C117.512 20.043 117.383 20.0195 117.195 20.043C117.008 20.043 116.809 20.0664 116.598 20.1133C116.387 20.1367 116.188 20.1836 116 20.2539C115.836 20.3008 115.742 20.3359 115.719 20.3594C115.672 20.4062 115.625 20.6992 115.578 21.2383C115.531 21.7539 115.461 22.3281 115.367 22.9609C115.297 23.5938 115.215 24.1797 115.121 24.7188C115.027 25.2578 114.91 25.5625 114.77 25.6328C114.488 25.7734 114.172 25.668 113.82 25.3164C113.492 24.9414 113.188 24.4961 112.906 23.9805C112.766 23.7227 112.625 23.3828 112.484 22.9609C112.367 22.5391 112.262 22.1172 112.168 21.6953C112.098 21.25 112.039 20.8398 111.992 20.4648C111.945 20.0898 111.945 19.7969 111.992 19.5859C112.016 19.3984 112.309 19.1523 112.871 18.8477C113.434 18.5195 114.148 18.2148 115.016 17.9336C115.883 17.6289 116.844 17.3828 117.898 17.1953C118.953 17.0078 119.984 16.9375 120.992 16.9844C121.32 17.0078 121.602 17.1953 121.836 17.5469C122.094 17.8984 122.293 18.3555 122.434 18.918C122.598 19.457 122.715 20.0781 122.785 20.7812C122.879 21.4844 122.926 22.1992 122.926 22.9258C122.879 23.7227 122.691 24.5312 122.363 25.3516C122.082 26.0547 121.625 26.8281 120.992 27.6719C120.383 28.5156 119.516 29.3359 118.391 30.1328C119.656 30.2969 120.617 30.6133 121.273 31.082C121.93 31.5508 122.41 32.0547 122.715 32.5938C123.066 33.2031 123.242 33.8828 123.242 34.6328C123.195 35.3594 123.078 36.1211 122.891 36.918C122.703 37.6914 122.492 38.418 122.258 39.0977C122.023 39.7773 121.789 40.3633 121.555 40.8555C121.32 41.3477 121.156 41.6406 121.062 41.7344C120.969 41.8516 120.688 42.0273 120.219 42.2617C119.773 42.4961 119.258 42.7305 118.672 42.9648C118.109 43.1992 117.547 43.3984 116.984 43.5625C116.422 43.75 116 43.8555 115.719 43.8789C115.438 43.8789 115.133 43.7031 114.805 43.3516C114.477 43.0234 114.172 42.6016 113.891 42.0859C113.633 41.5703 113.398 41.0312 113.188 40.4688C113 39.9062 112.895 39.4141 112.871 38.9922C112.824 38.5703 112.789 38.1602 112.766 37.7617C112.766 37.3398 112.777 36.9766 112.801 36.6719C112.848 36.3672 112.918 36.1211 113.012 35.9336C113.105 35.7461 113.246 35.6523 113.434 35.6523C113.574 35.6523 113.738 35.7227 113.926 35.8633C114.137 36.0039 114.348 36.1797 114.559 36.3906C114.77 36.6016 114.969 36.8242 115.156 37.0586C115.367 37.293 115.543 37.5156 115.684 37.7266C115.754 37.8672 115.871 38.125 116.035 38.5C116.199 38.8516 116.375 39.2148 116.562 39.5898C116.75 39.9414 116.938 40.2578 117.125 40.5391C117.336 40.8203 117.535 40.9609 117.723 40.9609C117.887 40.9609 118.039 40.8203 118.18 40.5391C118.32 40.2578 118.438 39.9062 118.531 39.4844C118.625 39.0391 118.707 38.5586 118.777 38.043C118.848 37.5039 118.895 36.9766 118.918 36.4609C118.941 36.0859 118.965 35.7812 118.988 35.5469C119.012 35.2891 119.012 35.0664 118.988 34.8789C118.988 34.6914 118.953 34.5273 118.883 34.3867C118.836 34.2461 118.766 34.082 118.672 33.8945ZM135.055 24.5078C135.195 24.6719 135.324 24.8477 135.441 25.0352C135.559 25.1992 135.664 25.4336 135.758 25.7383C135.852 26.0195 135.922 26.3945 135.969 26.8633C136.039 27.332 136.074 27.9414 136.074 28.6914C136.074 29.8867 136.039 31.0938 135.969 32.3125C135.922 33.5078 135.875 34.5625 135.828 35.4766C135.805 36.2969 135.781 37.0586 135.758 37.7617C135.734 38.4648 135.711 39.0859 135.688 39.625C135.664 40.1406 135.629 40.5508 135.582 40.8555C135.559 41.1602 135.535 41.3242 135.512 41.3477C135.418 41.418 135.266 41.3945 135.055 41.2773C134.867 41.1367 134.656 40.9609 134.422 40.75C134.211 40.5391 134.012 40.3164 133.824 40.082C133.637 39.8477 133.52 39.6602 133.473 39.5195C133.473 39.4023 133.438 39.0625 133.367 38.5C132.805 38.8281 132.184 39.0625 131.504 39.2031C130.824 39.3203 130.145 39.3672 129.465 39.3438C128.809 39.2969 128.199 39.168 127.637 38.957C127.074 38.7461 126.652 38.4648 126.371 38.1133C126.254 37.9727 126.148 37.7617 126.055 37.4805C125.984 37.1992 125.914 36.8828 125.844 36.5312C125.797 36.1562 125.75 35.7695 125.703 35.3711C125.656 34.9492 125.621 34.5625 125.598 34.2109C125.551 33.2969 125.668 32.5117 125.949 31.8555C126.23 31.1758 126.746 30.6719 127.496 30.3438C127.824 30.2031 128.258 30.1328 128.797 30.1328C129.359 30.1094 129.91 30.1328 130.449 30.2031C131.012 30.25 131.516 30.3203 131.961 30.4141C132.406 30.4844 132.688 30.543 132.805 30.5898C132.711 29.3945 132.641 28.3633 132.594 27.4961C132.547 26.6055 132.453 26.0312 132.312 25.7734C132.195 25.6094 132.055 25.4453 131.891 25.2812C131.75 25.1641 131.562 25.0352 131.328 24.8945C131.094 24.7539 130.812 24.6484 130.484 24.5781C130.227 24.5312 129.992 24.6367 129.781 24.8945C129.594 25.1289 129.418 25.5508 129.254 26.1602C129.113 26.7461 129.031 27.6484 129.008 28.8672C128.188 28.8906 127.555 28.8906 127.109 28.8672C126.688 28.8203 126.371 28.7734 126.16 28.7266C125.902 28.6797 125.75 28.6211 125.703 28.5508C125.656 28.457 125.68 28.1172 125.773 27.5312C125.867 26.9219 125.996 26.2656 126.16 25.5625C126.348 24.8594 126.559 24.1914 126.793 23.5586C127.051 22.9258 127.32 22.5273 127.602 22.3633C128.164 22.0352 128.832 21.918 129.605 22.0117C130.402 22.1055 131.176 22.3047 131.926 22.6094C132.676 22.9141 133.344 23.2539 133.93 23.6289C134.516 24.0039 134.891 24.2969 135.055 24.5078ZM132.875 34.7734C132.875 34.6562 132.887 34.5039 132.91 34.3164C132.934 34.1055 132.945 33.8945 132.945 33.6836C132.945 33.4727 132.934 33.2734 132.91 33.0859C132.91 32.8984 132.887 32.7578 132.84 32.6641C132.77 32.5234 132.559 32.4062 132.207 32.3125C131.879 32.2188 131.504 32.1602 131.082 32.1367C130.66 32.0898 130.262 32.0781 129.887 32.1016C129.512 32.1016 129.254 32.1484 129.113 32.2422C128.926 32.3594 128.785 32.5234 128.691 32.7344C128.621 32.9453 128.574 33.2734 128.551 33.7188C128.551 33.9297 128.562 34.1523 128.586 34.3867C128.609 34.6211 128.633 34.8555 128.656 35.0898C128.703 35.3008 128.75 35.4883 128.797 35.6523C128.867 35.8164 128.938 35.9219 129.008 35.9688C129.172 36.0859 129.453 36.1914 129.852 36.2852C130.273 36.3555 130.695 36.3789 131.117 36.3555C131.539 36.3086 131.926 36.168 132.277 35.9336C132.629 35.6992 132.828 35.3125 132.875 34.7734ZM148.062 26.5469C148.156 27.1562 148.203 27.7305 148.203 28.2695C148.203 28.6445 148.168 29.1836 148.098 29.8867C148.004 30.5664 147.887 31.3281 147.746 32.1719C147.605 33.0156 147.465 33.8711 147.324 34.7383C147.16 35.6289 147.008 36.4375 146.867 37.1641C146.703 37.8906 146.574 38.5 146.48 38.9922C146.363 39.4609 146.293 39.7305 146.27 39.8008C146.223 39.8711 146.105 39.9062 145.918 39.9062C145.707 39.9297 145.484 39.918 145.25 39.8711C144.992 39.8242 144.77 39.7539 144.582 39.6602C144.371 39.5664 144.242 39.4492 144.195 39.3086C144.172 39.2148 144.172 38.8867 144.195 38.3242C144.195 37.7383 144.219 37.0586 144.266 36.2852C144.289 35.4648 144.324 34.6211 144.371 33.7539C144.418 32.8633 144.477 32.0195 144.547 31.2227C144.594 30.4258 144.641 29.7578 144.688 29.2188C144.711 28.6328 144.723 28.293 144.723 28.1992C144.723 27.7773 144.688 27.3672 144.617 26.9688C144.523 26.5938 144.418 26.2656 144.301 25.9844C144.184 25.7031 144.055 25.4805 143.914 25.3164C143.75 25.1758 143.609 25.1289 143.492 25.1758C143.188 25.2227 142.93 25.293 142.719 25.3867C142.508 25.5039 142.332 25.6211 142.191 25.7383C142.027 25.8789 141.898 26.043 141.805 26.2305C141.781 26.2773 141.746 26.418 141.699 26.6523C141.629 26.8867 141.594 27.1562 141.594 27.4609V28.4453C141.594 29.0312 141.594 29.7227 141.594 30.5195C141.57 31.1992 141.559 32.0547 141.559 33.0859C141.535 33.8594 141.523 34.7148 141.523 35.6523C141.5 36.4258 141.477 37.1055 141.453 37.6914C141.43 38.2539 141.406 38.5703 141.383 38.6406C141.336 38.7812 141.219 38.9688 141.031 39.2031C140.844 39.4609 140.633 39.6953 140.398 39.9062C140.164 40.1172 139.941 40.2695 139.73 40.3633C139.52 40.4805 139.379 40.4688 139.309 40.3281C139.238 40.2578 139.168 39.9062 139.098 39.2734C139.027 38.6641 138.957 37.9023 138.887 36.9883C138.793 36.0977 138.699 35.1133 138.605 34.0352C138.512 32.957 138.43 31.9375 138.359 30.9766C138.289 29.9922 138.23 29.1016 138.184 28.3047C138.137 27.4609 138.102 26.8867 138.078 26.582C138.055 26.0195 138.043 25.6211 138.043 25.3867C138.043 24.3789 138.969 23.582 140.82 22.9961C141.406 22.8086 142.074 22.6445 142.824 22.5039L143.211 22.4336L143.562 22.3984C143.773 22.3516 143.902 22.3281 143.949 22.3281C144.395 22.2344 144.828 22.1992 145.25 22.2227C145.672 22.2695 146.047 22.3984 146.375 22.6094C146.586 22.7734 146.809 23.0547 147.043 23.4531C147.254 23.8516 147.453 24.3203 147.641 24.8594C147.805 25.3984 147.945 25.9609 148.062 26.5469ZM158.117 24.1914C158.164 24.2617 158.234 24.5898 158.328 25.1758C158.422 25.7617 158.516 26.4883 158.609 27.3555C158.727 28.2227 158.832 29.1602 158.926 30.168C159.043 31.1758 159.148 32.1367 159.242 33.0508C159.359 33.9648 159.453 34.7852 159.523 35.5117C159.594 36.2383 159.652 36.7305 159.699 36.9883C159.77 37.4102 159.852 37.8789 159.945 38.3945C160.039 38.8867 160.121 39.3672 160.191 39.8359C160.262 40.2812 160.309 40.668 160.332 40.9961C160.379 41.3242 160.367 41.5234 160.297 41.5938C160.25 41.6641 160.062 41.6875 159.734 41.6641C159.406 41.6172 159.043 41.5469 158.645 41.4531C158.27 41.3359 157.906 41.207 157.555 41.0664C157.227 40.9023 157.016 40.75 156.922 40.6094C156.828 40.4922 156.734 40.3164 156.641 40.082C156.57 39.8477 156.477 39.4375 156.359 38.8516C156.102 39.2031 155.82 39.5781 155.516 39.9766C155.234 40.3516 154.953 40.7031 154.672 41.0312C154.391 41.3359 154.133 41.582 153.898 41.7695C153.664 41.957 153.488 42.0508 153.371 42.0508C153.184 42.0508 152.902 41.8633 152.527 41.4883C152.152 41.0898 151.777 40.6445 151.402 40.1523C151.027 39.6602 150.688 39.1914 150.383 38.7461C150.078 38.3008 149.914 38.0078 149.891 37.8672C149.844 37.7266 149.82 37.3398 149.82 36.707C149.844 36.0742 149.867 35.3711 149.891 34.5977C149.938 33.8008 149.984 33.0156 150.031 32.2422C150.078 31.4453 150.125 30.8125 150.172 30.3438C150.219 29.875 150.266 29.3594 150.312 28.7969C150.383 28.2109 150.453 27.6719 150.523 27.1797C150.594 26.6641 150.652 26.2188 150.699 25.8438C150.77 25.4688 150.828 25.2461 150.875 25.1758C150.922 25.1055 151.051 25.0703 151.262 25.0703C151.496 25.0469 151.73 25.0586 151.965 25.1055C152.223 25.1289 152.457 25.1875 152.668 25.2812C152.879 25.3516 153.02 25.4453 153.09 25.5625C153.137 25.6562 153.16 25.9609 153.16 26.4766C153.184 26.9688 153.195 27.5781 153.195 28.3047C153.195 29.0078 153.195 29.7812 153.195 30.625C153.195 31.4453 153.184 32.2188 153.16 32.9453C153.16 33.6484 153.148 34.2578 153.125 34.7734C153.125 35.2656 153.125 35.5586 153.125 35.6523C153.125 35.8398 153.23 36.2031 153.441 36.7422C153.676 37.2812 153.91 37.7969 154.145 38.2891L155.973 36.1094C155.949 35.6875 155.926 35.1484 155.902 34.4922C155.902 33.8359 155.891 33.1445 155.867 32.418C155.844 31.6914 155.82 30.9531 155.797 30.2031C155.773 29.4531 155.762 28.7734 155.762 28.1641C155.762 27.5547 155.762 27.0508 155.762 26.6523C155.762 26.2539 155.773 26.0195 155.797 25.9492C155.867 25.8086 156.008 25.6211 156.219 25.3867C156.43 25.1523 156.664 24.9297 156.922 24.7188C157.18 24.5078 157.414 24.3438 157.625 24.2266C157.859 24.1094 158.023 24.0977 158.117 24.1914ZM167.363 23.7695C167.27 23.6758 167.07 23.582 166.766 23.4883C166.461 23.3945 166.25 23.4297 166.133 23.5938C166.062 23.6875 165.945 23.9922 165.781 24.5078C165.617 25.0234 165.441 25.6797 165.254 26.4766C165.09 27.2734 164.938 28.1875 164.797 29.2188C164.68 30.25 164.621 31.3164 164.621 32.418C164.621 33.2148 164.656 33.9766 164.727 34.7031C164.797 35.4062 164.879 36.0273 164.973 36.5664C165.09 37.1055 165.219 37.5391 165.359 37.8672C165.523 38.1953 165.688 38.3711 165.852 38.3945C165.992 38.3945 166.156 38.2305 166.344 37.9023C166.555 37.5742 166.754 37.1992 166.941 36.7773C167.152 36.332 167.328 35.9219 167.469 35.5469C167.633 35.1484 167.75 34.8906 167.82 34.7734C168.008 34.4688 168.254 34.2109 168.559 34C168.863 33.7656 169.121 33.6484 169.332 33.6484C169.449 33.6484 169.531 33.7305 169.578 33.8945C169.648 34.0586 169.695 34.2578 169.719 34.4922C169.766 34.7031 169.789 34.9258 169.789 35.1602C169.789 35.3945 169.789 35.582 169.789 35.7227C169.789 35.9805 169.742 36.4609 169.648 37.1641C169.555 37.8672 169.414 38.582 169.227 39.3086C169.062 40.0352 168.863 40.6797 168.629 41.2422C168.418 41.8047 168.184 42.0742 167.926 42.0508C167.668 42.0273 167.281 41.9102 166.766 41.6992C166.25 41.4883 165.723 41.2422 165.184 40.9609C164.668 40.6797 164.188 40.3984 163.742 40.1172C163.32 39.8125 163.062 39.5781 162.969 39.4141C162.875 39.25 162.734 38.8516 162.547 38.2188C162.359 37.5625 162.16 36.7656 161.949 35.8281C161.762 34.8906 161.598 33.8594 161.457 32.7344C161.316 31.6094 161.246 30.4844 161.246 29.3594C161.246 28.2344 161.27 27.1211 161.316 26.0195C161.387 24.918 161.492 23.9336 161.633 23.0664C161.773 22.1992 161.949 21.4961 162.16 20.957C162.395 20.418 162.676 20.1367 163.004 20.1133C163.918 20.0195 164.832 20.1016 165.746 20.3594C166.684 20.5938 167.516 20.9219 168.242 21.3438C168.992 21.7422 169.602 22.1758 170.07 22.6445C170.539 23.0898 170.785 23.4648 170.809 23.7695C170.832 24.0977 170.809 24.5547 170.738 25.1406C170.691 25.7266 170.609 26.3242 170.492 26.9336C170.398 27.5195 170.281 28.0586 170.141 28.5508C170.023 29.0195 169.918 29.2891 169.824 29.3594C169.613 29.5703 169.367 29.793 169.086 30.0273C168.805 30.2617 168.535 30.3086 168.277 30.168C168.184 30.1211 168.102 29.9453 168.031 29.6406C167.961 29.3125 167.891 28.9141 167.82 28.4453C167.773 27.9766 167.727 27.4727 167.68 26.9336C167.633 26.3945 167.586 25.9023 167.539 25.457C167.516 24.9883 167.48 24.6016 167.434 24.2969C167.41 23.9688 167.387 23.793 167.363 23.7695ZM181.566 24.5078C181.707 24.6719 181.836 24.8477 181.953 25.0352C182.07 25.1992 182.176 25.4336 182.27 25.7383C182.363 26.0195 182.434 26.3945 182.48 26.8633C182.551 27.332 182.586 27.9414 182.586 28.6914C182.586 29.8867 182.551 31.0938 182.48 32.3125C182.434 33.5078 182.387 34.5625 182.34 35.4766C182.316 36.2969 182.293 37.0586 182.27 37.7617C182.246 38.4648 182.223 39.0859 182.199 39.625C182.176 40.1406 182.141 40.5508 182.094 40.8555C182.07 41.1602 182.047 41.3242 182.023 41.3477C181.93 41.418 181.777 41.3945 181.566 41.2773C181.379 41.1367 181.168 40.9609 180.934 40.75C180.723 40.5391 180.523 40.3164 180.336 40.082C180.148 39.8477 180.031 39.6602 179.984 39.5195C179.984 39.4023 179.949 39.0625 179.879 38.5C179.316 38.8281 178.695 39.0625 178.016 39.2031C177.336 39.3203 176.656 39.3672 175.977 39.3438C175.32 39.2969 174.711 39.168 174.148 38.957C173.586 38.7461 173.164 38.4648 172.883 38.1133C172.766 37.9727 172.66 37.7617 172.566 37.4805C172.496 37.1992 172.426 36.8828 172.355 36.5312C172.309 36.1562 172.262 35.7695 172.215 35.3711C172.168 34.9492 172.133 34.5625 172.109 34.2109C172.062 33.2969 172.18 32.5117 172.461 31.8555C172.742 31.1758 173.258 30.6719 174.008 30.3438C174.336 30.2031 174.77 30.1328 175.309 30.1328C175.871 30.1094 176.422 30.1328 176.961 30.2031C177.523 30.25 178.027 30.3203 178.473 30.4141C178.918 30.4844 179.199 30.543 179.316 30.5898C179.223 29.3945 179.152 28.3633 179.105 27.4961C179.059 26.6055 178.965 26.0312 178.824 25.7734C178.707 25.6094 178.566 25.4453 178.402 25.2812C178.262 25.1641 178.074 25.0352 177.84 24.8945C177.605 24.7539 177.324 24.6484 176.996 24.5781C176.738 24.5312 176.504 24.6367 176.293 24.8945C176.105 25.1289 175.93 25.5508 175.766 26.1602C175.625 26.7461 175.543 27.6484 175.52 28.8672C174.699 28.8906 174.066 28.8906 173.621 28.8672C173.199 28.8203 172.883 28.7734 172.672 28.7266C172.414 28.6797 172.262 28.6211 172.215 28.5508C172.168 28.457 172.191 28.1172 172.285 27.5312C172.379 26.9219 172.508 26.2656 172.672 25.5625C172.859 24.8594 173.07 24.1914 173.305 23.5586C173.562 22.9258 173.832 22.5273 174.113 22.3633C174.676 22.0352 175.344 21.918 176.117 22.0117C176.914 22.1055 177.688 22.3047 178.438 22.6094C179.188 22.9141 179.855 23.2539 180.441 23.6289C181.027 24.0039 181.402 24.2969 181.566 24.5078ZM179.387 34.7734C179.387 34.6562 179.398 34.5039 179.422 34.3164C179.445 34.1055 179.457 33.8945 179.457 33.6836C179.457 33.4727 179.445 33.2734 179.422 33.0859C179.422 32.8984 179.398 32.7578 179.352 32.6641C179.281 32.5234 179.07 32.4062 178.719 32.3125C178.391 32.2188 178.016 32.1602 177.594 32.1367C177.172 32.0898 176.773 32.0781 176.398 32.1016C176.023 32.1016 175.766 32.1484 175.625 32.2422C175.438 32.3594 175.297 32.5234 175.203 32.7344C175.133 32.9453 175.086 33.2734 175.062 33.7188C175.062 33.9297 175.074 34.1523 175.098 34.3867C175.121 34.6211 175.145 34.8555 175.168 35.0898C175.215 35.3008 175.262 35.4883 175.309 35.6523C175.379 35.8164 175.449 35.9219 175.52 35.9688C175.684 36.0859 175.965 36.1914 176.363 36.2852C176.785 36.3555 177.207 36.3789 177.629 36.3555C178.051 36.3086 178.438 36.168 178.789 35.9336C179.141 35.6992 179.34 35.3125 179.387 34.7734ZM191.551 24.8242C192.043 24.8477 192.301 24.8828 192.324 24.9297C192.348 25 192.348 25.1875 192.324 25.4922C192.301 25.8203 192.254 26.1719 192.184 26.5469C192.137 26.9453 192.078 27.2969 192.008 27.6016C191.938 27.9297 191.879 28.1289 191.832 28.1992C191.598 28.2227 191.363 28.2227 191.129 28.1992H190.461H189.723C189.699 29.7461 189.664 31.2812 189.617 32.8047C189.57 34.3281 189.512 35.6875 189.441 36.8828C189.371 38.1016 189.289 39.0859 189.195 39.8359C189.125 40.5859 189.055 40.9727 188.984 40.9961C188.82 41.0195 188.633 40.9492 188.422 40.7852C188.211 40.6211 188 40.4102 187.789 40.1523C187.602 39.918 187.426 39.6602 187.262 39.3789C187.121 39.1211 187.039 38.8867 187.016 38.6758C186.898 37.293 186.793 35.9219 186.699 34.5625C186.605 33.2734 186.535 32.125 186.488 31.1172C186.395 29.9453 186.336 28.8555 186.312 27.8477L185.539 27.7422L184.801 27.6016L184.062 27.4609C184.016 27.4141 183.957 27.2969 183.887 27.1094C183.816 26.9453 183.758 26.7578 183.711 26.5469L183.535 25.9141C183.488 25.7266 183.465 25.5859 183.465 25.4922C183.465 25.4219 183.734 25.3516 184.273 25.2812C184.531 25.2344 185.75 25.1523 187.93 25.0352C190.109 24.8945 191.316 24.8242 191.551 24.8242ZM200.094 37.8672C200.352 37.2344 200.516 36.7539 200.586 36.4258C200.656 36.0977 200.527 35.8047 200.199 35.5469C200.059 35.4297 199.848 35.3125 199.566 35.1953C199.285 35.0547 198.98 34.9258 198.652 34.8086C198.324 34.6914 197.996 34.5859 197.668 34.4922C197.34 34.3984 197.035 34.3398 196.754 34.3164V34.457V35.1602C196.754 35.793 196.777 36.4492 196.824 37.1289C196.871 37.7852 196.953 38.3828 197.07 38.9219C197.164 39.4375 197.281 39.8711 197.422 40.2227C197.562 40.5742 197.703 40.75 197.844 40.75C198.008 40.7734 198.195 40.6914 198.406 40.5039C198.617 40.293 198.828 40.0469 199.039 39.7656C199.25 39.4844 199.449 39.1797 199.637 38.8516C199.824 38.5 199.977 38.1719 200.094 37.8672ZM201.324 33.6133C202.027 33.8008 202.602 34.0352 203.047 34.3164C203.492 34.6211 203.68 34.9961 203.609 35.4414C203.539 35.9102 203.469 36.332 203.398 36.707C203.328 37.082 203.246 37.4336 203.152 37.7617C203.035 38.0898 202.93 38.4062 202.836 38.7109C202.719 39.0156 202.59 39.332 202.449 39.6602C202.332 39.9883 202.18 40.3516 201.992 40.75C201.805 41.1484 201.605 41.5117 201.395 41.8398C201.184 42.1914 200.973 42.4727 200.762 42.6836C200.527 42.918 200.316 43.0234 200.129 43C199.895 42.9766 199.496 42.8711 198.934 42.6836C198.395 42.4961 197.832 42.2734 197.246 42.0156C196.684 41.7578 196.156 41.5 195.664 41.2422C195.195 40.9844 194.914 40.7969 194.82 40.6797C194.727 40.5156 194.586 40.1758 194.398 39.6602C194.188 39.1211 193.988 38.4766 193.801 37.7266C193.613 36.9766 193.438 36.1445 193.273 35.2305C193.156 34.5273 193.086 33.8008 193.062 33.0508H193.098C193.074 32.9102 193.062 32.793 193.062 32.6992C193.062 32.4648 193.074 32.1133 193.098 31.6445C193.121 31.1289 193.156 30.6016 193.203 30.0625C193.32 28.6562 193.473 27.6016 193.66 26.8984C193.73 26.6406 193.895 26.418 194.152 26.2305C194.434 26.0195 194.738 25.8672 195.066 25.7734C195.371 25.6797 195.664 25.6445 195.945 25.668C196.227 25.6914 196.414 25.7969 196.508 25.9844C196.531 26.0781 196.543 26.4883 196.543 27.2148C196.543 27.4023 196.566 28.1641 196.613 29.5L196.648 30.3438L196.684 31.2227C196.707 31.8789 196.719 32.4297 196.719 32.875C196.977 32.8984 197.352 32.9453 197.844 33.0156L198.477 33.1211L199.074 33.1914C199.871 33.3086 200.621 33.4492 201.324 33.6133ZM210.711 23.7695C210.617 23.6758 210.418 23.582 210.113 23.4883C209.809 23.3945 209.598 23.4297 209.48 23.5938C209.41 23.6875 209.293 23.9922 209.129 24.5078C208.965 25.0234 208.789 25.6797 208.602 26.4766C208.438 27.2734 208.285 28.1875 208.145 29.2188C208.027 30.25 207.969 31.3164 207.969 32.418C207.969 33.2148 208.004 33.9766 208.074 34.7031C208.145 35.4062 208.227 36.0273 208.32 36.5664C208.438 37.1055 208.566 37.5391 208.707 37.8672C208.871 38.1953 209.035 38.3711 209.199 38.3945C209.34 38.3945 209.504 38.2305 209.691 37.9023C209.902 37.5742 210.102 37.1992 210.289 36.7773C210.5 36.332 210.676 35.9219 210.816 35.5469C210.98 35.1484 211.098 34.8906 211.168 34.7734C211.355 34.4688 211.602 34.2109 211.906 34C212.211 33.7656 212.469 33.6484 212.68 33.6484C212.797 33.6484 212.879 33.7305 212.926 33.8945C212.996 34.0586 213.043 34.2578 213.066 34.4922C213.113 34.7031 213.137 34.9258 213.137 35.1602C213.137 35.3945 213.137 35.582 213.137 35.7227C213.137 35.9805 213.09 36.4609 212.996 37.1641C212.902 37.8672 212.762 38.582 212.574 39.3086C212.41 40.0352 212.211 40.6797 211.977 41.2422C211.766 41.8047 211.531 42.0742 211.273 42.0508C211.016 42.0273 210.629 41.9102 210.113 41.6992C209.598 41.4883 209.07 41.2422 208.531 40.9609C208.016 40.6797 207.535 40.3984 207.09 40.1172C206.668 39.8125 206.41 39.5781 206.316 39.4141C206.223 39.25 206.082 38.8516 205.895 38.2188C205.707 37.5625 205.508 36.7656 205.297 35.8281C205.109 34.8906 204.945 33.8594 204.805 32.7344C204.664 31.6094 204.594 30.4844 204.594 29.3594C204.594 28.2344 204.617 27.1211 204.664 26.0195C204.734 24.918 204.84 23.9336 204.98 23.0664C205.121 22.1992 205.297 21.4961 205.508 20.957C205.742 20.418 206.023 20.1367 206.352 20.1133C207.266 20.0195 208.18 20.1016 209.094 20.3594C210.031 20.5938 210.863 20.9219 211.59 21.3438C212.34 21.7422 212.949 22.1758 213.418 22.6445C213.887 23.0898 214.133 23.4648 214.156 23.7695C214.18 24.0977 214.156 24.5547 214.086 25.1406C214.039 25.7266 213.957 26.3242 213.84 26.9336C213.746 27.5195 213.629 28.0586 213.488 28.5508C213.371 29.0195 213.266 29.2891 213.172 29.3594C212.961 29.5703 212.715 29.793 212.434 30.0273C212.152 30.2617 211.883 30.3086 211.625 30.168C211.531 30.1211 211.449 29.9453 211.379 29.6406C211.309 29.3125 211.238 28.9141 211.168 28.4453C211.121 27.9766 211.074 27.4727 211.027 26.9336C210.98 26.3945 210.934 25.9023 210.887 25.457C210.863 24.9883 210.828 24.6016 210.781 24.2969C210.758 23.9688 210.734 23.793 210.711 23.7695ZM218.832 26.0898C218.879 26.2773 218.996 26.5234 219.184 26.8281C219.441 27.1562 219.734 27.4961 220.062 27.8477C220.367 28.1758 220.684 28.4688 221.012 28.7266C221.152 28.8438 221.27 28.9375 221.363 29.0078L221.328 25.0352C221.07 25.1055 220.801 25.1875 220.52 25.2812C220.145 25.3984 219.828 25.5156 219.57 25.6328C219.312 25.75 219.125 25.8672 219.008 25.9844L218.867 26.0547L218.832 26.0898ZM226.039 21.4141C226.203 21.5078 226.344 21.7188 226.461 22.0469C226.555 22.3281 226.602 22.6094 226.602 22.8906L226.566 23.6641C226.52 23.9688 226.461 24.1797 226.391 24.2969C226.344 24.3672 226.285 24.4258 226.215 24.4727L225.934 24.543C225.816 24.5664 225.652 24.5781 225.441 24.5781L225.055 24.6133C225.031 25.1055 225.008 25.6211 224.984 26.1602C224.914 27.3555 224.832 28.6328 224.738 29.9922C224.645 31.3281 224.551 32.5938 224.457 33.7891C224.34 35.0078 224.234 36.0273 224.141 36.8477C224.047 37.6914 223.953 38.1953 223.859 38.3594C223.648 38.7812 223.32 39.0508 222.875 39.168C222.453 39.2617 222.148 39.2734 221.961 39.2031C221.867 39.1797 221.785 38.8047 221.715 38.0781C221.645 37.3281 221.586 36.4023 221.539 35.3008C221.492 34.2695 221.457 33.168 221.434 31.9961C220.871 32.8164 220.449 33.4375 220.168 33.8594C219.91 34.2578 219.395 34.9492 218.621 35.9336L218.164 36.4609L217.988 36.7422L217.777 36.9531C217.52 37.3047 217.367 37.5156 217.32 37.5859C216.992 38.0078 216.688 38.4062 216.406 38.7812C216.078 39.1797 215.797 39.4727 215.562 39.6602C215.328 39.8711 215.188 39.8945 215.141 39.7305C215.094 39.4961 215.094 39.1914 215.141 38.8164C215.164 38.4414 215.223 38.043 215.316 37.6211C215.387 37.2227 215.48 36.8359 215.598 36.4609C215.715 36.1094 215.832 35.8164 215.949 35.582C216.066 35.3477 216.277 34.9727 216.582 34.457C216.77 34.1523 217.707 32.6992 219.395 30.0977L219.43 30.0273L219.324 29.957H219.359C218.914 29.6992 218.492 29.4648 218.094 29.2539C217.648 29.0195 217.25 28.7852 216.898 28.5508C216.477 28.293 216.23 28.1055 216.16 27.9883C216.043 27.8242 215.984 27.5312 215.984 27.1094C215.961 26.7109 215.973 26.3008 216.02 25.8789C216.066 25.4336 216.125 25.0352 216.195 24.6836C216.242 24.4492 216.289 24.2617 216.336 24.1211C216.383 24.0273 216.43 23.957 216.477 23.9102C216.711 23.6758 217.062 23.4531 217.531 23.2422C218 23.0312 218.492 22.832 219.008 22.6445C219.523 22.4805 219.992 22.3398 220.414 22.2227C220.836 22.082 221.129 22 221.293 21.9766H221.328C221.445 21.9531 221.609 21.918 221.82 21.8711L222.488 21.7656C222.746 21.5781 223.027 21.4258 223.332 21.3086C223.73 21.168 224.094 21.1094 224.422 21.1328C224.68 21.1562 224.855 21.25 224.949 21.4141C225.16 21.3906 225.348 21.3672 225.512 21.3438C225.77 21.3438 225.945 21.3555 226.039 21.3789V21.4141ZM245.129 24.2969C245.176 24.8828 245.211 25.6328 245.234 26.5469C245.258 27.4609 245.258 28.4805 245.234 29.6055C245.234 30.7305 245.211 31.9023 245.164 33.1211C245.141 34.293 245.105 35.4531 245.059 36.6016C245.012 37.75 244.953 38.7695 244.883 39.6602C244.812 40.5508 244.742 41.2656 244.672 41.8047C244.602 42.3438 244.531 42.625 244.461 42.6484C244.297 42.6719 244.109 42.625 243.898 42.5078C243.688 42.3672 243.477 42.2031 243.266 42.0156C243.078 41.8047 242.914 41.5938 242.773 41.3828C242.633 41.1484 242.539 40.9609 242.492 40.8203C242.328 39.1562 242.188 37.6797 242.07 36.3906C242.047 35.8984 242.012 35.4297 241.965 34.9844H241.227C240.523 34.9844 239.785 34.9727 239.012 34.9492C238.988 35.6523 238.965 36.332 238.941 36.9883C238.895 38.1836 238.836 39.2031 238.766 40.0469C238.719 40.8906 238.66 41.3828 238.59 41.5234C238.379 41.9922 238.062 42.2852 237.641 42.4023C237.219 42.5195 236.914 42.543 236.727 42.4727C236.633 42.4727 236.527 42.1094 236.41 41.3828C236.293 40.6328 236.188 39.707 236.094 38.6055C235.977 37.4805 235.883 36.2734 235.812 34.9844L235.777 34.7734C235.449 34.75 235.156 34.7266 234.898 34.7031C234.406 34.6328 234.113 34.5625 234.02 34.4922C233.762 34.3047 233.633 34.0469 233.633 33.7188C233.633 33.3672 233.656 33.0977 233.703 32.9102C233.727 32.8398 233.973 32.7578 234.441 32.6641C234.77 32.5703 235.168 32.4883 235.637 32.418L235.566 31.2227C235.52 30.0273 235.484 28.9844 235.461 28.0938C235.461 27.2031 235.484 26.6289 235.531 26.3711C235.578 25.9727 235.777 25.6094 236.129 25.2812C236.457 24.9531 236.809 24.707 237.184 24.543C237.582 24.3789 237.945 24.3086 238.273 24.332C238.625 24.332 238.848 24.4727 238.941 24.7539C238.988 24.918 239.023 25.4219 239.047 26.2656C239.07 27.1094 239.082 28.1289 239.082 29.3242C239.082 30.1914 239.082 31.0938 239.082 32.0312C239.598 31.9844 240.09 31.9492 240.559 31.9258C240.98 31.9023 241.379 31.8789 241.754 31.8555C241.707 31.293 241.672 30.7891 241.648 30.3438C241.625 29.5938 241.613 28.9609 241.613 28.4453C241.59 27.2266 241.613 26.3828 241.684 25.9141C241.754 25.5859 241.941 25.2461 242.246 24.8945C242.574 24.5664 242.914 24.2852 243.266 24.0508C243.641 23.793 243.98 23.6055 244.285 23.4883C244.613 23.3477 244.824 23.3125 244.918 23.3828C245.012 23.4297 245.082 23.7344 245.129 24.2969ZM255.992 24.5078C256.133 24.6719 256.262 24.8477 256.379 25.0352C256.496 25.1992 256.602 25.4336 256.695 25.7383C256.789 26.0195 256.859 26.3945 256.906 26.8633C256.977 27.332 257.012 27.9414 257.012 28.6914C257.012 29.8867 256.977 31.0938 256.906 32.3125C256.859 33.5078 256.812 34.5625 256.766 35.4766C256.742 36.2969 256.719 37.0586 256.695 37.7617C256.672 38.4648 256.648 39.0859 256.625 39.625C256.602 40.1406 256.566 40.5508 256.52 40.8555C256.496 41.1602 256.473 41.3242 256.449 41.3477C256.355 41.418 256.203 41.3945 255.992 41.2773C255.805 41.1367 255.594 40.9609 255.359 40.75C255.148 40.5391 254.949 40.3164 254.762 40.082C254.574 39.8477 254.457 39.6602 254.41 39.5195C254.41 39.4023 254.375 39.0625 254.305 38.5C253.742 38.8281 253.121 39.0625 252.441 39.2031C251.762 39.3203 251.082 39.3672 250.402 39.3438C249.746 39.2969 249.137 39.168 248.574 38.957C248.012 38.7461 247.59 38.4648 247.309 38.1133C247.191 37.9727 247.086 37.7617 246.992 37.4805C246.922 37.1992 246.852 36.8828 246.781 36.5312C246.734 36.1562 246.688 35.7695 246.641 35.3711C246.594 34.9492 246.559 34.5625 246.535 34.2109C246.488 33.2969 246.605 32.5117 246.887 31.8555C247.168 31.1758 247.684 30.6719 248.434 30.3438C248.762 30.2031 249.195 30.1328 249.734 30.1328C250.297 30.1094 250.848 30.1328 251.387 30.2031C251.949 30.25 252.453 30.3203 252.898 30.4141C253.344 30.4844 253.625 30.543 253.742 30.5898C253.648 29.3945 253.578 28.3633 253.531 27.4961C253.484 26.6055 253.391 26.0312 253.25 25.7734C253.133 25.6094 252.992 25.4453 252.828 25.2812C252.688 25.1641 252.5 25.0352 252.266 24.8945C252.031 24.7539 251.75 24.6484 251.422 24.5781C251.164 24.5312 250.93 24.6367 250.719 24.8945C250.531 25.1289 250.355 25.5508 250.191 26.1602C250.051 26.7461 249.969 27.6484 249.945 28.8672C249.125 28.8906 248.492 28.8906 248.047 28.8672C247.625 28.8203 247.309 28.7734 247.098 28.7266C246.84 28.6797 246.688 28.6211 246.641 28.5508C246.594 28.457 246.617 28.1172 246.711 27.5312C246.805 26.9219 246.934 26.2656 247.098 25.5625C247.285 24.8594 247.496 24.1914 247.73 23.5586C247.988 22.9258 248.258 22.5273 248.539 22.3633C249.102 22.0352 249.77 21.918 250.543 22.0117C251.34 22.1055 252.113 22.3047 252.863 22.6094C253.613 22.9141 254.281 23.2539 254.867 23.6289C255.453 24.0039 255.828 24.2969 255.992 24.5078ZM253.812 34.7734C253.812 34.6562 253.824 34.5039 253.848 34.3164C253.871 34.1055 253.883 33.8945 253.883 33.6836C253.883 33.4727 253.871 33.2734 253.848 33.0859C253.848 32.8984 253.824 32.7578 253.777 32.6641C253.707 32.5234 253.496 32.4062 253.145 32.3125C252.816 32.2188 252.441 32.1602 252.02 32.1367C251.598 32.0898 251.199 32.0781 250.824 32.1016C250.449 32.1016 250.191 32.1484 250.051 32.2422C249.863 32.3594 249.723 32.5234 249.629 32.7344C249.559 32.9453 249.512 33.2734 249.488 33.7188C249.488 33.9297 249.5 34.1523 249.523 34.3867C249.547 34.6211 249.57 34.8555 249.594 35.0898C249.641 35.3008 249.688 35.4883 249.734 35.6523C249.805 35.8164 249.875 35.9219 249.945 35.9688C250.109 36.0859 250.391 36.1914 250.789 36.2852C251.211 36.3555 251.633 36.3789 252.055 36.3555C252.477 36.3086 252.863 36.168 253.215 35.9336C253.566 35.6992 253.766 35.3125 253.812 34.7734ZM273.922 24.1914C273.969 24.2617 274.039 24.5898 274.133 25.1758C274.227 25.7617 274.32 26.4883 274.414 27.3555C274.531 28.2227 274.637 29.1602 274.73 30.168C274.848 31.1758 274.953 32.1367 275.047 33.0508C275.164 33.9648 275.258 34.7852 275.328 35.5117C275.398 36.2383 275.457 36.7305 275.504 36.9883C275.574 37.4102 275.656 37.8789 275.75 38.3945C275.844 38.8867 275.926 39.3672 275.996 39.8359C276.066 40.2812 276.113 40.668 276.137 40.9961C276.184 41.3242 276.172 41.5234 276.102 41.5938C276.055 41.6641 275.867 41.6875 275.539 41.6641C275.211 41.6172 274.848 41.5469 274.449 41.4531C274.074 41.3359 273.711 41.207 273.359 41.0664C273.031 40.9023 272.82 40.75 272.727 40.6094C272.633 40.4922 272.539 40.3164 272.445 40.082C272.375 39.8477 272.281 39.4375 272.164 38.8516C271.906 39.2031 271.625 39.5781 271.32 39.9766C271.039 40.3516 270.758 40.7031 270.477 41.0312C270.195 41.3359 269.938 41.582 269.703 41.7695C269.469 41.957 269.293 42.0508 269.176 42.0508C268.988 42.0508 268.707 41.8633 268.332 41.4883C267.957 41.0898 267.582 40.6445 267.207 40.1523C266.832 39.6602 266.492 39.1914 266.188 38.7461C265.883 38.3008 265.719 38.0078 265.695 37.8672C265.648 37.7266 265.625 37.3398 265.625 36.707C265.648 36.0742 265.672 35.3711 265.695 34.5977C265.742 33.8008 265.789 33.0156 265.836 32.2422C265.883 31.4453 265.93 30.8125 265.977 30.3438C266.023 29.875 266.07 29.3594 266.117 28.7969C266.188 28.2109 266.258 27.6719 266.328 27.1797C266.398 26.6641 266.457 26.2188 266.504 25.8438C266.574 25.4688 266.633 25.2461 266.68 25.1758C266.727 25.1055 266.855 25.0703 267.066 25.0703C267.301 25.0469 267.535 25.0586 267.77 25.1055C268.027 25.1289 268.262 25.1875 268.473 25.2812C268.684 25.3516 268.824 25.4453 268.895 25.5625C268.941 25.6562 268.965 25.9609 268.965 26.4766C268.988 26.9688 269 27.5781 269 28.3047C269 29.0078 269 29.7812 269 30.625C269 31.4453 268.988 32.2188 268.965 32.9453C268.965 33.6484 268.953 34.2578 268.93 34.7734C268.93 35.2656 268.93 35.5586 268.93 35.6523C268.93 35.8398 269.035 36.2031 269.246 36.7422C269.48 37.2812 269.715 37.7969 269.949 38.2891L271.777 36.1094C271.754 35.6875 271.73 35.1484 271.707 34.4922C271.707 33.8359 271.695 33.1445 271.672 32.418C271.648 31.6914 271.625 30.9531 271.602 30.2031C271.578 29.4531 271.566 28.7734 271.566 28.1641C271.566 27.5547 271.566 27.0508 271.566 26.6523C271.566 26.2539 271.578 26.0195 271.602 25.9492C271.672 25.8086 271.812 25.6211 272.023 25.3867C272.234 25.1523 272.469 24.9297 272.727 24.7188C272.984 24.5078 273.219 24.3438 273.43 24.2266C273.664 24.1094 273.828 24.0977 273.922 24.1914ZM277.859 21.8359C278.023 21.6953 278.516 21.625 279.336 21.625C280.039 21.625 281.129 21.707 282.605 21.8711C284.082 22.0352 286.168 22.3633 288.863 22.8555C288.957 22.9258 288.98 23.125 288.934 23.4531C288.863 23.7812 288.77 24.1328 288.652 24.5078C288.535 24.9062 288.406 25.2695 288.266 25.5977C288.148 25.9492 288.055 26.1719 287.984 26.2656C287.961 26.2891 287.762 26.3242 287.387 26.3711C287.27 26.3711 286.355 26.2773 284.645 26.0898C283.848 25.9961 283.238 25.9258 282.816 25.8789C282.207 25.832 281.82 25.8086 281.656 25.8086L281.621 26.3008L281.586 26.582V26.8984C281.516 27.4609 281.48 27.9883 281.48 28.4805C281.48 28.9258 281.469 29.3711 281.445 29.8164V30.0977L281.41 30.4141C281.41 30.6719 281.41 30.9883 281.41 31.3633C281.387 31.7148 281.375 32.043 281.375 32.3477L281.34 32.7344V33.1211C281.316 33.7539 281.305 34.3633 281.305 34.9492C281.281 35.6055 281.258 36.168 281.234 36.6367L281.199 36.9531V37.2695C281.176 37.5273 281.164 37.8086 281.164 38.1133C281.094 39.2617 281.035 40.3633 280.988 41.418C280.918 42.332 280.848 42.8008 280.777 42.8242C280.59 42.8477 280.367 42.6953 280.109 42.3672C279.852 42.0625 279.605 41.6992 279.371 41.2773C279.113 40.8789 278.891 40.4922 278.703 40.1172C278.516 39.7422 278.41 39.5078 278.387 39.4141C278.363 39.3672 278.34 39.0508 278.316 38.4648C278.316 38.3242 278.305 38.1836 278.281 38.043V37.6562C278.258 37.3281 278.246 36.9648 278.246 36.5664C278.223 36.2383 278.199 35.8164 278.176 35.3008C278.152 35.043 278.141 34.8203 278.141 34.6328C278.117 34.375 278.105 34.0938 278.105 33.7891C278.105 33.4844 278.094 33.2148 278.07 32.9805V32.6992L278.035 32.418C278.012 31.9961 278 31.5273 278 31.0117C277.977 30.5195 277.953 30.0625 277.93 29.6406V29.3945L277.895 29.1133C277.895 28.8789 277.895 28.6094 277.895 28.3047C277.871 28.0234 277.859 27.7539 277.859 27.4961V27.2148L277.824 26.9688C277.824 26.6172 277.824 26.2422 277.824 25.8438C277.801 24.7422 277.789 23.8281 277.789 23.1016C277.789 22.375 277.812 21.9531 277.859 21.8359ZM299.129 21.5195C299.363 21.6602 299.586 21.918 299.797 22.293C300.031 22.6445 300.242 23.0664 300.43 23.5586C300.617 24.0273 300.77 24.543 300.887 25.1055C301.004 25.6445 301.062 26.1602 301.062 26.6523C301.062 27.168 300.969 27.8828 300.781 28.7969C300.617 29.6875 300.418 30.5898 300.184 31.5039C299.949 32.418 299.727 33.2383 299.516 33.9648C299.305 34.6914 299.164 35.125 299.094 35.2656C298.953 35.8047 298.766 36.1914 298.531 36.4258C298.297 36.6133 297.98 36.7539 297.582 36.8477C297.207 36.918 296.82 36.9648 296.422 36.9883C296.023 37.0117 295.637 37.0117 295.262 36.9883C294.887 36.9414 294.594 36.8828 294.383 36.8125C294.359 36.8125 294.277 36.7891 294.137 36.7422C294.137 37.6797 294.125 38.6406 294.102 39.625C294.078 40.4688 294.055 41.418 294.031 42.4727C294.008 43.5039 293.984 44.5469 293.961 45.6016C293.914 45.8125 293.82 46.0586 293.68 46.3398C293.562 46.6211 293.41 46.8789 293.223 47.1133C293.035 47.3711 292.836 47.582 292.625 47.7461C292.438 47.9102 292.262 47.9688 292.098 47.9219C292.004 47.8984 291.898 47.4883 291.781 46.6914C291.688 45.918 291.582 44.8867 291.465 43.5977C291.371 42.332 291.266 40.8789 291.148 39.2383C291.031 37.5977 290.926 35.9219 290.832 34.2109C290.738 32.5 290.656 30.8242 290.586 29.1836C290.539 27.5195 290.492 26.043 290.445 24.7539C290.422 23.4414 290.422 22.375 290.445 21.5547C290.469 20.7109 290.527 20.2539 290.621 20.1836C290.691 20.1133 290.832 20.125 291.043 20.2188C291.254 20.2891 291.488 20.4297 291.746 20.6406C292.027 20.8281 292.309 21.0742 292.59 21.3789C292.895 21.6602 293.164 21.9766 293.398 22.3281C294.547 21.8125 295.637 21.4492 296.668 21.2383C297.699 21.0273 298.52 21.1211 299.129 21.5195ZM297.652 26.6875C297.652 26.3125 297.594 25.9492 297.477 25.5977C297.383 25.2227 297.254 24.9062 297.09 24.6484C296.926 24.3672 296.75 24.1562 296.562 24.0156C296.398 23.8516 296.246 23.793 296.105 23.8398C295.52 23.9805 295.027 24.1445 294.629 24.332C294.418 24.4258 294.242 24.5312 294.102 24.6484C294.148 25.3984 294.172 26.4297 294.172 27.7422C294.195 29.0312 294.207 30.4492 294.207 31.9961C294.207 32.6758 294.23 33.1328 294.277 33.3672C294.301 33.9297 294.441 34.3164 294.699 34.5273C294.77 34.5977 294.875 34.6797 295.016 34.7734C295.156 34.8438 295.309 34.9141 295.473 34.9844C295.637 35.0312 295.801 35.0664 295.965 35.0898C296.129 35.0898 296.27 35.043 296.387 34.9492C296.41 34.9258 296.457 34.7148 296.527 34.3164C296.621 33.8945 296.715 33.3906 296.809 32.8047C296.902 32.1953 296.996 31.5508 297.09 30.8711C297.207 30.168 297.301 29.5234 297.371 28.9375C297.465 28.3281 297.535 27.8125 297.582 27.3906C297.629 26.9688 297.652 26.7344 297.652 26.6875ZM310.66 23.3125C310.73 23.3594 310.789 23.6641 310.836 24.2266C310.883 24.7891 310.918 25.5273 310.941 26.4414C310.988 27.332 311.012 28.3516 311.012 29.5C311.012 30.6484 311.012 31.832 311.012 33.0508C311.012 34.2695 311 35.4766 310.977 36.6719C310.977 37.8438 310.953 38.9219 310.906 39.9062C310.883 40.8672 310.848 41.6875 310.801 42.3672C310.777 43.0469 310.742 43.4805 310.695 43.668C310.648 43.8086 310.508 44.0195 310.273 44.3008C310.062 44.6055 309.805 44.9102 309.5 45.2148C309.195 45.5195 308.879 45.7891 308.551 46.0234C308.246 46.2812 307.988 46.4453 307.777 46.5156C307.355 46.6562 306.887 46.6328 306.371 46.4453C305.855 46.2578 305.363 46.0117 304.895 45.707C304.449 45.4023 304.051 45.0742 303.699 44.7227C303.371 44.3945 303.172 44.1602 303.102 44.0195C303.031 43.8789 302.961 43.668 302.891 43.3867C302.844 43.1289 302.809 42.8711 302.785 42.6133C302.762 42.332 302.762 42.0977 302.785 41.9102C302.832 41.6992 302.914 41.5938 303.031 41.5938C303.125 41.5938 303.371 41.6992 303.77 41.9102C304.191 42.1211 304.637 42.3438 305.105 42.5781C305.574 42.7891 306.008 42.9648 306.406 43.1055C306.805 43.2461 307.051 43.2344 307.145 43.0703C307.238 42.8828 307.332 42.3789 307.426 41.5586C307.52 40.7148 307.613 39.6953 307.707 38.5C306.887 38.7812 306.137 38.9688 305.457 39.0625C304.801 39.1328 304.25 39.0156 303.805 38.7109C303.594 38.5703 303.371 38.3242 303.137 37.9727C302.926 37.6211 302.727 37.2227 302.539 36.7773C302.375 36.3086 302.234 35.8164 302.117 35.3008C302 34.7617 301.941 34.2578 301.941 33.7891C301.941 33.4609 301.977 32.9922 302.047 32.3828C302.141 31.7734 302.258 31.1055 302.398 30.3789C302.539 29.6523 302.68 28.9023 302.82 28.1289C302.984 27.3555 303.137 26.6523 303.277 26.0195C303.441 25.3867 303.57 24.8594 303.664 24.4375C303.781 23.9922 303.852 23.7461 303.875 23.6992C303.922 23.6289 304.039 23.5938 304.227 23.5938C304.414 23.5703 304.613 23.582 304.824 23.6289C305.035 23.6523 305.234 23.7109 305.422 23.8047C305.609 23.8984 305.727 24.0039 305.773 24.1211C305.797 24.2148 305.797 24.5078 305.773 25C305.773 25.4922 305.738 26.0781 305.668 26.7578C305.621 27.4375 305.562 28.1758 305.492 28.9727C305.445 29.7461 305.387 30.4844 305.316 31.1875C305.27 31.8672 305.223 32.4531 305.176 32.9453C305.129 33.4375 305.105 33.7305 305.105 33.8242C305.105 34.1992 305.141 34.5625 305.211 34.9141C305.305 35.2422 305.41 35.5352 305.527 35.793C305.668 36.0273 305.809 36.2148 305.949 36.3555C306.09 36.4961 306.219 36.543 306.336 36.4961C306.734 36.4258 307.098 36.332 307.426 36.2148C307.59 36.1445 307.742 36.0742 307.883 36.0039C307.953 34.8555 308.023 33.6836 308.094 32.4883C308.164 31.2695 308.223 30.1562 308.27 29.1484C308.316 28.1406 308.352 27.2852 308.375 26.582C308.422 25.8789 308.445 25.4336 308.445 25.2461C308.445 25.0352 308.539 24.8008 308.727 24.543C308.914 24.2617 309.125 24.0156 309.359 23.8047C309.594 23.5938 309.828 23.4414 310.062 23.3477C310.32 23.2305 310.52 23.2188 310.66 23.3125ZM317.797 17.1953C317.844 17.3359 317.855 17.8867 317.832 18.8477C317.832 19.7852 317.797 20.9453 317.727 22.3281C317.68 23.6875 317.609 25.1523 317.516 26.7227C317.422 28.2695 317.316 29.7344 317.199 31.1172C317.105 32.4766 317 33.6367 316.883 34.5977C316.789 35.5352 316.695 36.0742 316.602 36.2148C316.367 36.5898 316.016 36.8125 315.547 36.8828C315.078 36.9297 314.727 36.9297 314.492 36.8828C314.422 36.8594 314.352 36.6016 314.281 36.1094C314.211 35.6172 314.141 34.9609 314.07 34.1406C314.023 33.3203 313.977 32.3828 313.93 31.3281C313.883 30.2734 313.848 29.1953 313.824 28.0938C313.801 26.9688 313.777 25.8672 313.754 24.7891C313.73 23.6875 313.719 22.6914 313.719 21.8008C313.719 20.9102 313.73 20.1602 313.754 19.5508C313.777 18.9414 313.812 18.5547 313.859 18.3906C313.953 18.0625 314.188 17.7695 314.562 17.5117C314.938 17.2539 315.348 17.0664 315.793 16.9492C316.238 16.8086 316.648 16.7617 317.023 16.8086C317.422 16.832 317.68 16.9609 317.797 17.1953ZM317.199 39.3438C317.293 39.5078 317.328 39.7422 317.305 40.0469C317.305 40.3281 317.27 40.6328 317.199 40.9609C317.152 41.2656 317.07 41.5703 316.953 41.875C316.859 42.1562 316.754 42.3906 316.637 42.5781C316.543 42.7188 316.414 42.8359 316.25 42.9297C316.086 43.0234 315.91 43.082 315.723 43.1055C315.535 43.1523 315.359 43.1758 315.195 43.1758C315.031 43.1758 314.902 43.1758 314.809 43.1758C314.668 43.1523 314.516 43.0469 314.352 42.8594C314.211 42.6719 314.082 42.4492 313.965 42.1914C313.871 41.9102 313.801 41.6172 313.754 41.3125C313.707 40.9844 313.719 40.6797 313.789 40.3984C313.859 40.1406 314.059 39.9062 314.387 39.6953C314.715 39.4609 315.066 39.2852 315.441 39.168C315.84 39.0508 316.203 39.0039 316.531 39.0273C316.883 39.0273 317.105 39.1328 317.199 39.3438Z" fill="url(#paint1_linear_9_18)"/>
<defs>
<linearGradient id="paint0_linear_9_18" x1="216.101" y1="0.928798" x2="216.101" y2="72.042" gradientUnits="userSpaceOnUse">
<stop stop-color="#F2C101"/>
<stop offset="1" stop-color="#B54E0E"/>
</linearGradient>
<linearGradient id="paint1_linear_9_18" x1="215" y1="0" x2="215" y2="60" gradientUnits="userSpaceOnUse">
<stop stop-color="#020200"/>
<stop offset="1" stop-color="#0F0600"/>
</linearGradient>
</defs>
</svg>
