<svg width="1915" height="288" viewBox="0 0 1915 288" fill="none" xmlns="http://www.w3.org/2000/svg">
<path fill-rule="evenodd" clip-rule="evenodd" d="M0 149.587L82.8235 162.981C158.118 171.911 323.765 194.236 481.882 185.306C640 171.911 798.118 127.262 963.765 82.6123C1121.88 37.9628 1280 -11.1517 1438.12 2.24315C1603.76 11.1731 1761.88 82.6123 1837.18 113.867L1920 149.587V288H1837.18C1761.88 288 1603.76 288 1438.12 288C1280 288 1121.88 288 963.765 288C798.118 288 640 288 481.882 288C323.765 288 158.118 288 82.8235 288H0V149.587Z" fill="#FECD03" fill-opacity="0.02"/>
</svg>
