<svg width="323" height="44" viewBox="0 0 323 44" fill="none" xmlns="http://www.w3.org/2000/svg">
<path fill-rule="evenodd" clip-rule="evenodd" d="M232.979 0.168758C229.685 0.290124 226.805 0.432962 226.578 0.486487C226.351 0.539701 227.745 0.671336 229.675 0.778698C233.175 0.973505 233.17 0.974127 227.817 1.06998C224.864 1.12288 220.498 1.2763 218.113 1.41073C215.113 1.58002 216.64 1.61083 223.068 1.51063C237.76 1.2819 252.846 1.07962 254.786 1.08491C255.868 1.08802 256.465 0.967903 256.31 0.778698C256.142 0.574243 259.755 0.467504 266.84 0.467504C274.496 0.467504 277.545 0.56553 277.348 0.80546C277.173 1.01832 277.432 1.11665 278.046 1.0706C278.583 1.03014 279.3 1.08024 279.641 1.182C279.982 1.28345 283.048 1.51623 286.455 1.69921C289.861 1.88219 293.346 2.15542 294.197 2.30635C295.049 2.45696 295.746 2.46443 295.746 2.32284C295.746 1.96932 294.652 1.76363 288.313 0.923714C287.518 0.81853 286.031 0.587625 285.009 0.410867C282.808 0.0299661 241.921 -0.160173 232.979 0.168758ZM107.238 0.496445C105.297 0.669779 105.353 0.683783 108.167 0.72984C111.131 0.778075 112.027 0.646441 110.232 0.426115C109.721 0.363254 108.374 0.394995 107.238 0.496445ZM102.696 0.649552C102.241 0.702766 100.244 0.836268 98.2565 0.946119C96.2694 1.05597 94.6432 1.24891 94.6432 1.37526C94.6432 1.50129 95.2469 1.5489 95.9853 1.48075C97.0143 1.38584 97.1828 1.43345 96.7079 1.68552C96.2372 1.93509 96.5345 2.00636 97.9468 1.98177C99.6415 1.95252 99.696 1.92887 98.5662 1.71228L97.3273 1.47484L98.8416 1.43781C99.6741 1.41758 100.417 1.52587 100.493 1.67867C100.571 1.83644 102.144 1.85574 104.141 1.72317C107.927 1.47235 107.861 1.35254 103.934 1.346C102.572 1.34351 101.921 1.27318 102.489 1.18947C103.464 1.0457 104.785 0.415846 103.914 0.509827C103.698 0.533166 103.15 0.596027 102.696 0.649552ZM245.075 0.697476C243.664 0.758158 241.249 0.75847 239.706 0.69841C238.164 0.638661 239.317 0.58887 242.27 0.588558C245.222 0.587936 246.484 0.637104 245.075 0.697476ZM250.838 0.673514C250.555 0.760026 250.09 0.760026 249.806 0.673514C249.522 0.587313 249.754 0.516673 250.322 0.516673C250.89 0.516673 251.123 0.587313 250.838 0.673514ZM282.222 0.984707C281.938 1.07122 281.474 1.07122 281.19 0.984707C280.906 0.898507 281.138 0.827866 281.706 0.827866C282.274 0.827866 282.506 0.898507 282.222 0.984707ZM285.12 0.98284C284.841 1.06811 284.283 1.0734 283.882 0.994355C283.48 0.915312 283.709 0.845604 284.39 0.83938C285.071 0.833156 285.4 0.897573 285.12 0.98284ZM108.374 1.3043C108.771 1.38272 109.422 1.38272 109.819 1.3043C110.216 1.22619 109.891 1.16209 109.096 1.16209C108.301 1.16209 107.976 1.22619 108.374 1.3043ZM112.296 1.2959C112.581 1.38241 113.045 1.38241 113.329 1.2959C113.613 1.2097 113.38 1.13906 112.813 1.13906C112.245 1.13906 112.013 1.2097 112.296 1.2959ZM33.2413 1.80999C33.1223 1.95501 30.9548 2.04494 28.4243 2.00978C23.8328 1.94661 15.7907 2.40468 14.4371 2.80675C13.9841 2.94118 13.7541 3.3059 13.8086 3.80288C13.9015 4.6487 13.9655 4.67889 16.2875 4.96954C18.1879 5.20761 18.3411 5.71112 16.494 5.64794C15.2642 5.60593 15.1618 5.67377 15.2709 6.45798C15.3749 7.20733 15.2465 7.31438 14.2385 7.31843C12.7944 7.32465 12.2857 7.60131 12.1717 8.44277C12.0978 8.99016 12.3658 9.13891 13.7203 9.30198C15.9126 9.56618 15.7941 9.99656 13.4746 10.1935C11.6423 10.3491 9.36413 11.4701 9.8002 12.0016C9.90839 12.1338 9.43929 12.3346 8.75753 12.4475C7.68594 12.6249 7.59757 12.7127 8.10508 13.0951C8.428 13.3385 8.93798 13.5398 9.23819 13.5423C9.64948 13.546 9.63503 13.6179 9.17955 13.8351C8.75629 14.0368 9.23902 14.1516 10.7937 14.2191C12.9852 14.3144 13.0121 14.3274 13.0492 15.327C13.0703 15.8834 12.9476 16.3384 12.7775 16.3384C12.6074 16.3384 12.4678 16.6185 12.4678 16.9608C12.4678 17.422 12.1738 17.594 11.3322 17.6255C10.3424 17.6625 10.3172 17.6852 11.1365 17.8038C12.3336 17.9768 14.511 18.8236 13.7657 18.8261C13.4506 18.827 13.3044 19.0221 13.4316 19.272C13.7677 19.932 12.9501 20.288 10.2326 20.6652C7.80116 21.0025 6.75352 21.3175 8.06295 21.3175C8.44162 21.3175 8.75133 21.5275 8.75133 21.7843C8.75133 22.1474 8.20088 22.2511 6.27368 22.2511C3.60195 22.2511 2.77111 22.8454 5.34456 22.9158C6.303 22.9419 6.5392 23.0094 5.96397 23.0931C5.45275 23.1672 5.03486 23.3486 5.03486 23.4965C5.03486 23.6443 4.66032 23.8546 4.20278 23.9642C3.74524 24.0734 3.47352 24.2878 3.59823 24.44C3.72335 24.5925 3.21502 24.8498 2.46883 25.012C1.29649 25.2668 1.53311 25.312 4.20897 25.3443C7.38904 25.3829 7.50714 25.7106 4.48853 26.1195C3.15019 26.3006 2.98708 26.4039 3.41943 26.7964C3.82989 27.1692 3.99879 27.1807 4.28372 26.8558C4.55873 26.5418 4.77553 26.5885 5.25784 27.0652C5.82646 27.6269 5.79962 27.7038 4.94029 27.9839C4.13753 28.2453 4.32996 28.3137 6.27368 28.46C8.31196 28.6131 8.45484 28.6694 7.66736 29.0096C7.18504 29.2181 5.97719 29.482 4.98324 29.5958C1.89402 29.95 1.71604 30.3209 4.62191 30.3492L7.30604 30.3751L3.79603 31.37L0.286026 32.3648L2.35073 32.5204L4.41544 32.676L1.98239 33.0971C0.28231 33.3915 -0.277226 33.6009 0.124153 33.7926C0.440467 33.9435 1.07062 34.0789 1.52485 34.0935C2.34495 34.12 2.34496 34.1218 1.53229 34.3612C0.938476 34.5357 1.44887 34.6758 3.39052 34.8709C5.81573 35.1142 5.91194 35.15 4.41544 35.2512C3.50697 35.3125 2.58735 35.4936 2.37138 35.6532C2.12816 35.8331 3.85426 35.9529 6.91374 35.9682C10.7248 35.9871 11.5899 36.064 10.7128 36.3052C10.0546 36.4866 9.57722 36.8507 9.57722 37.1719C9.57722 37.6212 8.85539 37.8366 5.76287 38.3096C3.66513 38.6304 2.2987 38.9438 2.7261 39.0057C3.34799 39.096 3.38805 39.1735 2.92679 39.3935C2.50311 39.5957 2.62369 39.6707 3.38309 39.6779C3.95088 39.6832 4.68881 39.8179 5.02329 39.9773C5.69887 40.299 5.52337 40.3778 3.32528 40.7384C2.72569 40.8368 2.13435 41.1156 2.01088 41.3583C1.82258 41.7274 2.53615 41.776 6.40458 41.6558C9.81755 41.55 10.8611 41.6017 10.4031 41.8538C9.88073 42.1416 9.91335 42.1874 10.6096 42.1457C11.9896 42.0623 12.2919 42.1618 11.6419 42.4855C11.2207 42.6952 11.8149 42.7226 13.5002 42.5714C16.5848 42.2941 16.4271 42.291 23.4108 42.7715C27.6905 43.0659 33.9643 43.1138 47.5679 42.9566C58.8597 42.8259 69.4459 42.8707 75.0285 43.0724C93.4271 43.738 95.2573 43.7847 94.9942 43.58C94.8468 43.4651 92.8027 43.2952 90.4519 43.2025C88.1014 43.1101 86.0012 42.909 85.7856 42.7565C85.248 42.3759 120.806 42.4055 133.346 42.7961C140.54 43.0201 194.874 43.4586 213.777 43.4452C217.994 43.4421 236.388 43.0487 237.232 42.9436C237.929 42.8564 238.288 42.9208 238.137 43.1057C237.998 43.2744 238.071 43.4122 238.298 43.4122C238.525 43.4122 238.826 43.2722 238.966 43.101C239.301 42.6931 240.825 42.6977 240.825 43.1066C240.825 43.4586 250.58 43.4794 257.703 43.143C260.965 42.989 262.035 43.0341 262.186 43.3319C262.296 43.5473 262.656 43.7234 262.986 43.7234C263.315 43.7234 263.47 43.5834 263.33 43.4122C263.19 43.2411 263.411 43.0771 263.822 43.0478C264.233 43.0186 264.847 42.9635 265.188 42.9252C265.529 42.8872 266.83 42.839 268.079 42.8181C269.463 42.7951 270.138 42.679 269.808 42.5216C269.273 42.2655 272.202 42.0271 280.467 41.6549C284.622 41.4679 286.503 40.9569 283.337 40.8754C282.326 40.8492 281.314 40.7954 281.086 40.7556C280.859 40.7157 278.908 40.6479 276.751 40.6049L272.828 40.5262L275.512 40.2841C276.988 40.1509 280.023 39.9981 282.255 39.9449C284.488 39.8914 286.404 39.7395 286.512 39.6073C286.621 39.475 287.081 39.3667 287.536 39.3667C287.99 39.3667 288.262 39.245 288.14 39.096C288.016 38.9457 287.134 38.9397 286.154 39.0826C284.177 39.3708 282.293 39.4433 282.589 39.2198C282.987 38.9198 291.542 37.8089 292.134 37.98C292.48 38.0799 292.857 37.9458 292.996 37.6729C293.171 37.329 293.875 37.1737 295.423 37.1376L297.604 37.0869L295.333 36.9033C293.546 36.7586 293.299 36.6799 294.173 36.5339C294.785 36.4315 296.179 36.4521 297.27 36.579C298.362 36.706 299.298 36.7816 299.35 36.7471C299.401 36.7122 299.147 36.3656 298.786 35.9762C298.35 35.5076 297.989 35.3732 297.718 35.5779C297.446 35.783 296.869 35.7777 296.01 35.5617C293.703 34.9826 294.067 34.8522 297.676 34.9658C300.194 35.0448 301.136 34.9773 300.935 34.7324C300.761 34.5202 301.02 34.3767 301.606 34.3596C302.455 34.3347 298.397 33.7132 295.126 33.3672C294.445 33.295 295.281 33.2128 296.985 33.1848C298.688 33.1565 300.36 32.9975 300.701 32.8316C301.215 32.5814 301.18 32.5282 300.495 32.5204C300.04 32.5152 299.39 32.363 299.049 32.1822C298.596 31.9419 298.957 31.9065 300.39 32.0505C302.953 32.3076 303.495 32.0359 302.312 31.0874C301.789 30.6673 301.605 30.3421 301.892 30.3421C302.172 30.3421 302.287 30.2021 302.146 30.0309C302.006 29.8597 301.112 29.7175 300.161 29.715C299.209 29.7122 298.151 29.5641 297.811 29.3855C297.365 29.1521 297.799 29.1179 299.359 29.2641C301.565 29.4704 302.4 29.0559 300.598 28.6486C299.692 28.4438 299.689 28.4314 300.495 28.1398C301.149 27.9033 301.018 27.8681 299.865 27.9714C298.202 28.1205 296.456 27.4495 297.626 27.1113C297.992 27.0055 298.625 26.919 299.032 26.919C299.44 26.919 300.005 26.7089 300.288 26.4522C300.692 26.0856 300.693 25.9854 300.294 25.9854C300.013 25.9854 299.893 25.7775 300.025 25.5186C300.177 25.2186 300.009 25.044 299.553 25.03C298.964 25.0117 298.984 24.9647 299.669 24.753C300.436 24.5159 300.413 24.4736 299.332 24.1524C298.693 23.9626 297.903 23.807 297.577 23.807C297.251 23.807 296.985 23.667 296.985 23.4958C296.985 23.3247 298.053 23.1709 299.359 23.1545L301.733 23.1243L300.185 22.6453C298.506 22.1263 298.202 21.5148 299.385 21.0377C299.796 20.8718 302.212 20.6369 304.753 20.5155C307.294 20.3945 309.373 20.1869 309.373 20.0543C309.373 19.9218 308.862 19.6728 308.237 19.5007C307.287 19.2393 307.59 19.1842 310.096 19.1637C311.794 19.1497 313.089 19.0044 313.089 18.8279C313.089 18.6568 312.707 18.5167 312.239 18.5167C311.772 18.5167 311.499 18.3829 311.633 18.2192C311.767 18.0555 312.15 18.0005 312.483 18.0969C312.816 18.1931 313.089 18.1405 313.089 17.9799C313.089 17.819 312.207 17.5315 311.128 17.3407C309.463 17.0463 310.102 17.009 315.361 17.093L321.555 17.1923L316.186 16.6234C306.793 15.6279 306.961 15.6538 308.134 15.3889C309.089 15.1733 309.099 15.1534 308.262 15.1247C307.003 15.0815 306.683 14.5447 307.818 14.3803C308.339 14.3047 307.99 14.226 307.033 14.2023C306.087 14.179 305.251 14.0219 305.175 13.8532C305.099 13.6845 302.9 13.4318 300.288 13.2921C295.637 13.0431 295.575 13.0301 297.282 12.6557C298.394 12.412 301.291 12.2988 305.282 12.3427C311.059 12.4064 311.585 12.3651 312.125 11.8077C312.64 11.2765 313.331 11.1912 317.855 11.1004C321.957 11.0182 323 10.9077 323 10.5558C323 10.313 322.839 10.1145 322.641 10.1145C322.061 10.1145 315.014 9.17688 314.225 8.99483C312.733 8.65003 313.585 8.2461 315.877 8.21156C318.226 8.17608 318.233 8.17297 316.599 7.91841C315.691 7.77682 313.461 7.64238 311.644 7.61998C308.408 7.57952 304.02 7.15661 305.243 7.00257C306.409 6.856 302.15 6.42624 299.303 6.40321C296.822 6.38298 296.338 6.28122 295.503 5.6022L294.546 4.82421L296.282 4.79621L298.017 4.7682L296.605 4.4623C295.828 4.29425 294.853 4.22392 294.437 4.30577C294.021 4.38761 293.681 4.33813 293.681 4.1956C293.681 4.05308 293.356 3.87227 292.958 3.79385C292.561 3.71574 293.072 3.61772 294.094 3.57664L295.952 3.50164L294.094 3.26576C288.021 2.49524 244.828 2.06984 230.914 2.64368C226.939 2.80768 221.798 2.94523 219.489 2.94927C216.526 2.95487 215.229 3.07157 215.081 3.34604C214.924 3.63888 214.787 3.64541 214.528 3.37156C214.236 3.06473 205.661 2.71152 204.899 2.97479C204.153 3.23215 95.3745 3.19823 88.0361 2.93838C83.1531 2.76536 77.5784 2.56931 75.6479 2.50271C73.7174 2.43612 67.9713 2.30853 62.8793 2.21984C57.7869 2.13083 51.7477 1.97026 49.4587 1.86321C42.8401 1.55326 33.477 1.52245 33.2413 1.80999ZM242.812 1.61363C243.11 1.70356 243.466 1.69236 243.603 1.58905C243.74 1.48573 243.497 1.41229 243.061 1.42567C242.58 1.44061 242.483 1.51436 242.812 1.61363ZM231.663 1.92482C231.96 2.01476 232.317 2.00356 232.454 1.90024C232.591 1.79692 232.347 1.72348 231.912 1.73686C231.431 1.7518 231.333 1.82555 231.663 1.92482ZM234.966 1.92482C235.264 2.01476 235.62 2.00356 235.757 1.90024C235.894 1.79692 235.651 1.72348 235.216 1.73686C234.735 1.7518 234.637 1.82555 234.966 1.92482ZM102.386 2.55437C102.897 2.62843 103.733 2.62843 104.244 2.55437C104.755 2.47999 104.337 2.41931 103.315 2.41931C102.293 2.41931 101.875 2.47999 102.386 2.55437ZM186.014 3.78358C185.735 3.86885 185.177 3.87414 184.776 3.7951C184.374 3.71605 184.603 3.64635 185.284 3.64012C185.965 3.6339 186.294 3.69832 186.014 3.78358ZM291.917 3.7674C291.78 3.87072 291.424 3.88192 291.126 3.79198C290.797 3.69271 290.895 3.61896 291.376 3.60402C291.811 3.59064 292.055 3.66408 291.917 3.7674ZM230.383 4.32008C230.523 4.4262 229.168 4.52889 227.37 4.5485C225.571 4.56779 219.362 4.65493 213.57 4.74175C207.779 4.82888 187.279 5.00782 168.015 5.14008C148.751 5.27233 131.976 5.47554 130.738 5.59224C128.463 5.80634 125.739 5.55925 126.239 5.18364C126.526 4.96736 130.435 4.90948 152.352 4.79839C160.717 4.75575 166.082 4.6126 166.082 4.4318C166.082 4.26873 166.344 4.21085 166.663 4.30328C167.546 4.55845 181.298 4.5152 191.272 4.22579C201.023 3.9426 229.975 4.01262 230.383 4.32008ZM241.169 4.04654C240.872 4.27029 233.793 4.29736 233.5 4.07579C233.364 3.97403 235.081 3.89063 237.315 3.89063C239.548 3.89063 241.282 3.96065 241.169 4.04654ZM242.777 4.07859C242.64 4.18191 242.284 4.19311 241.986 4.10318C241.657 4.00391 241.755 3.93016 242.236 3.91522C242.671 3.90184 242.914 3.97528 242.777 4.07859ZM211.407 4.42184C211.921 4.49622 212.664 4.49341 213.059 4.41562C213.454 4.33782 213.034 4.27682 212.125 4.28025C211.217 4.28367 210.894 4.34747 211.407 4.42184ZM267.808 4.43522C267.913 4.56343 265.431 4.66862 262.292 4.66862C259.154 4.66862 256.447 4.56343 256.276 4.43522C256.105 4.30701 258.587 4.20183 261.791 4.20183C264.996 4.20183 267.703 4.30701 267.808 4.43522ZM269.937 4.51302C268.809 4.87836 268.492 4.87836 268.492 4.51302C268.492 4.34186 269.003 4.21179 269.627 4.22361C270.634 4.24322 270.669 4.27589 269.937 4.51302ZM194.498 4.72557C194.796 4.8155 195.152 4.8043 195.289 4.70098C195.426 4.59766 195.183 4.52422 194.747 4.53761C194.266 4.55254 194.168 4.62629 194.498 4.72557ZM196.957 4.73864C197.699 4.80772 198.814 4.80648 199.435 4.73552C200.055 4.66426 199.448 4.60762 198.085 4.60949C196.722 4.61105 196.215 4.66924 196.957 4.73864ZM113.599 5.46496C113.302 5.60344 112.89 5.6383 112.685 5.54276C112.48 5.44722 112.555 5.25553 112.852 5.11705C113.149 4.97857 113.561 4.94371 113.766 5.03925C113.971 5.13479 113.896 5.32648 113.599 5.46496ZM121.071 5.20294C121.071 5.33706 119.724 5.43011 118.078 5.40988C115.856 5.3825 115.403 5.3131 116.323 5.1407C117.908 4.8432 121.071 4.8849 121.071 5.20294ZM125.201 4.98759C125.201 5.31995 122.971 5.77584 122.343 5.57201C121.828 5.40521 121.908 5.31092 122.723 5.12358C123.984 4.83355 125.201 4.76695 125.201 4.98759ZM111.766 5.46434C111.633 5.62554 110.096 5.75562 108.349 5.75313C106.602 5.75033 105.39 5.64545 105.656 5.51973C106.391 5.17151 112.048 5.12016 111.766 5.46434ZM243.826 5.33955C243.547 5.42482 242.989 5.43011 242.587 5.35107C242.186 5.27202 242.414 5.20231 243.096 5.19609C243.777 5.18987 244.106 5.25428 243.826 5.33955ZM272.724 5.6663C272.214 5.74037 271.377 5.74037 270.866 5.6663C270.355 5.59193 270.773 5.53125 271.795 5.53125C272.817 5.53125 273.235 5.59193 272.724 5.6663ZM16.5972 9.80331C16.5972 9.97447 16.5155 10.1145 16.4151 10.1145C16.3148 10.1145 16.1182 9.97447 15.9778 9.80331C15.8374 9.63215 15.9196 9.49212 16.1599 9.49212C16.4002 9.49212 16.5972 9.63215 16.5972 9.80331ZM5.37058 21.2188C5.66831 21.3088 6.02468 21.2976 6.16178 21.1942C6.29887 21.0909 6.05524 21.0175 5.62 21.0309C5.13892 21.0458 5.04105 21.1196 5.37058 21.2188ZM298.937 26.4845C298.8 26.5879 298.444 26.5991 298.146 26.5091C297.817 26.4098 297.915 26.3361 298.396 26.3212C298.831 26.3078 299.075 26.3812 298.937 26.4845ZM8.75133 27.2302C8.75133 27.4013 8.55436 27.5413 8.31402 27.5413C8.07369 27.5413 7.99152 27.4013 8.13192 27.2302C8.27232 27.059 8.46888 26.919 8.56923 26.919C8.66957 26.919 8.75133 27.059 8.75133 27.2302ZM131.618 31.9189C132.063 32.4607 131.557 32.5755 130.99 32.0611C130.665 31.7655 130.633 31.5869 130.907 31.5869C131.149 31.5869 131.469 31.7362 131.618 31.9189ZM157.804 32.6851C158.049 32.5709 158.143 32.3471 158.012 32.1878C157.876 32.0213 158.824 31.8981 160.242 31.8981C161.667 31.8981 162.774 32.0425 162.861 32.2397C162.944 32.4277 163.885 32.6558 164.952 32.7464C167.61 32.9723 167.004 33.4515 164.21 33.333C162.529 33.2617 161.953 33.3445 161.953 33.6569C161.953 34.1853 160.442 34.2112 160.161 33.6874C160.041 33.4618 159.94 33.5349 159.921 33.8614C159.903 34.171 159.735 34.3534 159.549 34.2662C159.362 34.1794 158.899 34.3811 158.52 34.7147C157.712 35.4267 155.759 35.539 155.759 34.874C155.759 34.5336 155.4 34.4707 154.258 34.6101C153.08 34.7542 152.801 34.6997 152.96 34.3574C153.072 34.1172 153.427 33.9351 153.749 33.9526C154.072 33.97 154.589 33.7792 154.9 33.529C155.39 33.1335 155.28 33.1018 154.063 33.2872C153.292 33.4045 152.352 33.5657 151.974 33.6454C151.595 33.7254 151.177 33.6579 151.044 33.496C150.911 33.3339 151.742 33.1039 152.89 32.9851C154.039 32.8659 155.2 32.5858 155.472 32.3624C155.876 32.0294 156.091 32.0406 156.662 32.4243C157.045 32.682 157.559 32.7993 157.804 32.6851ZM216.048 32.3297C216.048 32.5852 213.523 32.7137 213.321 32.4685C213.205 32.3259 213.77 32.2093 214.578 32.2093C215.387 32.2093 216.048 32.2634 216.048 32.3297ZM140.644 34.2034C140.289 34.9001 139.769 34.5519 139.894 33.7005C140.049 32.6418 140.059 32.6331 140.493 33.1939C140.713 33.4786 140.781 33.933 140.644 34.2034ZM169.91 33.0358C169.63 33.121 169.073 33.1263 168.671 33.0473C168.269 32.9683 168.498 32.8985 169.179 32.8923C169.861 32.8861 170.189 32.9505 169.91 33.0358ZM183.839 33.1587C181.19 33.5138 171.775 33.5023 171.037 33.1428C170.627 32.9427 172.991 32.8528 178.057 32.8752C183.282 32.8989 185.11 32.9882 183.839 33.1587ZM192.407 33.0545C191.782 33.1257 190.761 33.1257 190.136 33.0545C189.511 32.9832 190.022 32.925 191.272 32.925C192.521 32.925 193.032 32.9832 192.407 33.0545ZM196.33 33.0376C196.046 33.1242 195.582 33.1242 195.298 33.0376C195.014 32.9514 195.246 32.8808 195.814 32.8808C196.382 32.8808 196.614 32.9514 196.33 33.0376ZM200.46 33.0376C200.176 33.1242 199.711 33.1242 199.427 33.0376C199.143 32.9514 199.376 32.8808 199.943 32.8808C200.511 32.8808 200.744 32.9514 200.46 33.0376ZM130.156 33.295C130.156 33.7481 128.617 34.6972 127.897 34.6885C127.091 34.6786 127.095 34.6552 128.004 34.0845L128.948 33.4911L127.178 33.3712C125.623 33.2661 125.697 33.2449 127.782 33.1973C129.088 33.1674 130.156 33.2113 130.156 33.295ZM132.109 33.3308C131.972 33.4341 131.616 33.4453 131.318 33.3554C130.988 33.2561 131.086 33.1824 131.567 33.1674C132.002 33.154 132.246 33.2275 132.109 33.3308ZM157.41 33.454C157.41 33.6252 157.607 33.7652 157.848 33.7652C158.088 33.7652 158.17 33.6252 158.03 33.454C157.889 33.2829 157.693 33.1428 157.592 33.1428C157.492 33.1428 157.41 33.2829 157.41 33.454ZM286.549 33.3308C286.412 33.4341 286.056 33.4453 285.758 33.3554C285.428 33.2561 285.526 33.1824 286.007 33.1674C286.443 33.154 286.686 33.2275 286.549 33.3308ZM289.655 33.3488C289.371 33.4354 288.907 33.4354 288.623 33.3488C288.339 33.2626 288.571 33.192 289.139 33.192C289.707 33.192 289.939 33.2626 289.655 33.3488ZM112.288 33.642C112.151 33.7453 111.794 33.7565 111.497 33.6666C111.167 33.5673 111.265 33.4935 111.746 33.4786C112.181 33.4652 112.425 33.5387 112.288 33.642ZM123.868 33.8237C123.777 34.0269 123.457 34.255 123.156 34.3307C122.848 34.4081 122.727 34.3244 122.879 34.139C123.03 33.9541 122.739 33.7503 122.213 33.6743C121.547 33.5779 121.674 33.5265 122.654 33.4963C123.552 33.4687 123.974 33.5826 123.868 33.8237ZM136.97 34.0764C136.819 34.4333 136.895 34.6988 137.149 34.6988C137.391 34.6988 137.589 34.8155 137.589 34.958C137.589 35.3623 135.91 35.169 135.544 34.7225C135.29 34.4134 135.017 34.4041 134.33 34.6811C133.842 34.8777 133.242 34.9453 132.996 34.8307C132.5 34.5998 135.287 33.5194 136.481 33.4792C137.049 33.4602 137.168 33.6056 136.97 34.0764ZM215.016 33.7652C215.156 33.9364 215.074 34.0764 214.834 34.0764C214.593 34.0764 214.396 33.9364 214.396 33.7652C214.396 33.5941 214.478 33.454 214.578 33.454C214.679 33.454 214.875 33.5941 215.016 33.7652ZM218.939 33.5913C218.939 33.6669 218.753 33.815 218.526 33.9208C218.299 34.0266 218.113 33.9647 218.113 33.7836C218.113 33.6025 218.299 33.454 218.526 33.454C218.753 33.454 218.939 33.5156 218.939 33.5913ZM279.339 33.6582C279.06 33.7434 278.502 33.7487 278.1 33.6697C277.699 33.5906 277.927 33.5209 278.609 33.5147C279.29 33.5085 279.619 33.5729 279.339 33.6582ZM281.594 33.642C281.457 33.7453 281.1 33.7565 280.803 33.6666C280.473 33.5673 280.571 33.4935 281.052 33.4786C281.487 33.4652 281.731 33.5387 281.594 33.642ZM118.387 34.0764C118.528 34.2476 118.446 34.3876 118.205 34.3876C117.965 34.3876 117.768 34.2476 117.768 34.0764C117.768 33.9053 117.85 33.7652 117.95 33.7652C118.05 33.7652 118.247 33.9053 118.387 34.0764ZM167.209 33.9532C167.072 34.0565 166.716 34.0677 166.418 33.9778C166.088 33.8785 166.186 33.8047 166.667 33.7898C167.103 33.7764 167.346 33.8499 167.209 33.9532ZM169.274 33.9532C169.137 34.0565 168.78 34.0677 168.483 33.9778C168.153 33.8785 168.251 33.8047 168.732 33.7898C169.167 33.7764 169.411 33.8499 169.274 33.9532ZM173.102 34.232C173.102 34.4887 173.288 34.6988 173.515 34.6988C173.742 34.6988 173.928 34.5239 173.927 34.3098C173.926 34.021 174.833 33.947 177.443 34.0216C179.569 34.0826 180.862 34.2413 180.712 34.4234C180.577 34.5886 180.138 34.6456 179.737 34.5497C179.336 34.4539 178.469 34.5877 177.811 34.8466C176.75 35.2636 176.597 35.2642 176.479 34.8525C176.329 34.3328 174.531 34.2149 174.135 34.6988C173.858 35.0364 172.155 35.1261 171.754 34.8239C171.352 34.5211 171.904 33.7652 172.527 33.7652C172.843 33.7652 173.102 33.9753 173.102 34.232ZM211.093 34.232C210.658 34.6272 210.748 34.6988 211.686 34.6988C212.319 34.6988 212.684 34.832 212.538 35.01C212.398 35.1811 211.891 35.3212 211.412 35.3212C210.934 35.3212 210.675 35.4214 210.837 35.5437C211 35.666 212.637 35.7229 214.475 35.6707C217.461 35.5854 217.789 35.6308 217.552 36.0967C217.377 36.4396 217.463 36.5691 217.803 36.4754C218.087 36.3967 218.273 36.1751 218.216 35.9825C218.159 35.7898 218.589 35.6324 219.17 35.6324C219.769 35.6324 220.116 35.7671 219.971 35.9436C219.831 36.1147 219.913 36.2548 220.153 36.2548C220.393 36.2548 220.59 36.1147 220.59 35.9436C220.59 35.4257 222.135 35.595 222.414 36.1437C222.557 36.425 222.613 36.702 222.537 36.7592C222.461 36.8162 220.567 36.9011 218.329 36.9478C215.358 37.0097 214.213 36.9279 214.087 36.6438C213.992 36.43 213.547 36.2548 213.099 36.2548C212.65 36.2548 212.398 36.3948 212.538 36.566C212.687 36.7474 212.267 36.8772 211.53 36.8772C210.836 36.8772 210.267 36.7371 210.267 36.566C210.267 36.3948 209.579 36.2548 208.739 36.2548C207.069 36.2548 207.282 35.7572 209.028 35.581C209.804 35.5026 210.093 35.2645 210.191 34.621C210.271 34.0963 210.57 33.7652 210.964 33.7652C211.489 33.7652 211.512 33.8511 211.093 34.232ZM252.18 34.4828C252.635 34.5721 252.124 34.631 251.045 34.6138C249.966 34.5967 249.083 34.4592 249.083 34.3086C249.083 34.1576 249.478 34.129 249.961 34.2445C250.632 34.4047 250.759 34.3549 250.501 34.0319C250.236 33.6999 250.291 33.6856 250.759 33.965C251.087 34.1607 251.726 34.3935 252.18 34.4828ZM200.563 34.3876C200.422 34.5588 200.133 34.6988 199.919 34.6988C199.705 34.6988 199.53 34.5588 199.53 34.3876C199.53 34.2164 199.82 34.0764 200.174 34.0764C200.528 34.0764 200.703 34.2164 200.563 34.3876ZM156.584 34.6988C157.385 35.0887 157.823 35.0887 157.823 34.6988C157.823 34.5276 157.405 34.3898 156.894 34.3923C156.143 34.3963 156.084 34.4548 156.584 34.6988ZM195.401 34.8339C195.401 35.0865 195.893 35.3274 196.537 35.3893C197.448 35.4771 197.335 35.5281 195.969 35.6479C194.416 35.7839 194.265 35.7348 194.265 35.0925C194.265 34.7019 194.519 34.3876 194.833 34.3876C195.145 34.3876 195.401 34.5883 195.401 34.8339ZM208.202 34.6524C208.202 34.8087 207.455 34.9443 206.542 34.954C205.629 34.9633 204.966 34.869 205.068 34.7445C205.345 34.4066 208.202 34.3226 208.202 34.6524ZM79.5708 35.01C79.7112 35.1811 79.5362 35.3212 79.1823 35.3212C78.8284 35.3212 78.5385 35.1811 78.5385 35.01C78.5385 34.8388 78.7132 34.6988 78.9271 34.6988C79.141 34.6988 79.4304 34.8388 79.5708 35.01ZM161.54 35.0284C161.54 35.2095 161.333 35.2617 161.081 35.1441C160.828 35.0265 160.46 35.1233 160.261 35.3591C159.976 35.6984 159.899 35.6741 159.894 35.2434C159.891 34.9048 160.2 34.6988 160.714 34.6988C161.168 34.6988 161.54 34.8472 161.54 35.0284ZM167.321 34.9322C167.321 35.0604 166.874 35.1656 166.328 35.1656C165.782 35.1656 165.421 35.0604 165.527 34.9322C165.632 34.804 166.078 34.6988 166.519 34.6988C166.96 34.6988 167.321 34.804 167.321 34.9322ZM245.986 35.01C245.846 35.1811 245.324 35.3112 244.826 35.2994C243.954 35.2782 243.951 35.268 244.748 35.01C245.884 34.6418 246.288 34.6418 245.986 35.01ZM276.338 35.01C276.338 35.1811 276.756 35.3234 277.267 35.3259C277.777 35.3287 278.475 35.4665 278.815 35.6324C279.272 35.8549 278.947 35.9514 277.576 35.9996C276.554 36.0357 275.068 36.1206 274.273 36.1882C273.478 36.256 266.417 36.3525 258.581 36.4026C250.746 36.4527 245.45 36.3892 246.812 36.2613C248.175 36.1337 250.219 35.942 251.355 35.8356C255.718 35.427 261.01 35.3206 261.268 35.6358C261.411 35.8107 261.719 35.8648 261.952 35.7562C262.186 35.6479 262.81 35.7341 263.341 35.9482C263.872 36.1623 264.644 36.2358 265.057 36.1113C265.47 35.9868 267.143 35.8605 268.775 35.8306C270.407 35.8007 271.863 35.6847 272.012 35.5726C272.16 35.4609 272.916 35.4469 273.69 35.5415C274.811 35.6784 275.099 35.61 275.099 35.2064C275.099 34.9272 275.378 34.6988 275.718 34.6988C276.059 34.6988 276.338 34.8388 276.338 35.01ZM288.485 35.0878C288.678 35.399 288.774 35.399 288.967 35.0878C289.226 34.6695 292.673 34.5364 292.998 34.9322C293.103 35.0604 292.371 35.1164 291.371 35.0564C290.235 34.9882 289.552 35.076 289.552 35.2898C289.552 35.8088 287.61 35.6999 287.338 35.1656C287.048 34.598 288.136 34.5242 288.485 35.0878ZM192.717 35.3212C192.576 35.4923 191.962 35.6224 191.35 35.6106C190.358 35.591 190.328 35.5599 191.065 35.3212C192.212 34.9496 193.022 34.9496 192.717 35.3212ZM231.533 35.3212C231.393 35.4923 231.661 35.6324 232.128 35.6324C232.596 35.6324 232.979 35.4923 232.979 35.3212C232.979 34.9537 233.779 35.0368 234.459 35.4749C235.083 35.8767 232.962 36.5859 231.814 36.3596C231.37 36.2722 230.882 36.3528 230.73 36.5389C230.577 36.725 230.174 36.8772 229.833 36.8772C229.492 36.8772 229.337 36.7262 229.488 36.542C229.679 36.3098 229.179 36.2728 227.861 36.4216C226.707 36.552 225.959 36.5174 225.959 36.3335C225.959 36.167 227.024 35.9476 228.326 35.8465C229.629 35.7453 230.759 35.5157 230.838 35.3361C230.918 35.1569 231.164 35.01 231.386 35.01C231.607 35.01 231.674 35.15 231.533 35.3212ZM243.34 35.2969C243.02 35.4497 242.211 35.5225 241.543 35.4587C240.607 35.3694 240.278 35.4833 240.115 35.9545C239.998 36.2909 239.744 36.566 239.551 36.566C239.105 36.566 239.585 35.5527 240.175 35.2481C240.419 35.1223 241.361 35.0196 242.27 35.0196C243.397 35.0196 243.737 35.1077 243.34 35.2969ZM97.9468 35.596C97.9468 35.9666 96.3503 36.2626 96.0864 35.9411C95.9712 35.8004 96.1104 35.6146 96.3957 35.5278C97.2414 35.2708 97.9468 35.3019 97.9468 35.596ZM103.315 35.6324C103.315 35.8035 103.14 35.9436 102.926 35.9436C102.713 35.9436 102.423 35.8035 102.283 35.6324C102.142 35.4612 102.317 35.3212 102.671 35.3212C103.025 35.3212 103.315 35.4612 103.315 35.6324ZM110.748 35.5985C110.748 36.069 107.733 36.1692 106.63 35.7354C105.663 35.3554 105.777 35.3249 108.167 35.3231C109.587 35.3221 110.748 35.446 110.748 35.5985ZM112.018 35.718C111.967 36.0901 111.4 36.0179 111.223 35.6168C111.132 35.4114 111.281 35.2994 111.553 35.3679C111.826 35.4363 112.035 35.5938 112.018 35.718ZM115.674 36.6982C115.69 36.8566 115.359 36.7166 114.938 36.387C114.419 35.9809 114.319 35.7164 114.628 35.5661C115.041 35.3644 115.601 35.9697 115.674 36.6982ZM119.179 35.5101C120.02 35.7531 120.026 36.2548 119.189 36.2548C118.835 36.2548 118.653 36.3864 118.785 36.547C118.917 36.7079 118.65 36.8183 118.192 36.7922C117.336 36.7437 117.202 35.9868 117.974 35.5592C118.48 35.2792 118.393 35.2826 119.179 35.5101ZM281.293 35.6324C281.293 35.8035 280.967 35.9414 280.57 35.9389C279.952 35.9349 279.938 35.89 280.467 35.6324C281.246 35.2527 281.293 35.2527 281.293 35.6324ZM123.359 36.1169C122.302 36.4437 122.246 36.5162 122.946 36.65C123.6 36.7754 123.557 36.8118 122.72 36.8411C122.122 36.8619 121.483 36.6357 121.21 36.3067C120.777 35.7839 120.899 35.7363 122.66 35.7376C124.564 35.7388 124.57 35.7422 123.359 36.1169ZM129.035 36.4757C129.201 37.1317 129.104 37.2157 128.35 37.0633C127.867 36.9655 126.729 36.8793 125.82 36.8719C124.484 36.861 124.308 36.7969 124.9 36.5373C125.302 36.3609 125.528 36.0901 125.401 35.9355C125.274 35.7811 125.996 35.6672 127.005 35.6825C128.614 35.7068 128.865 35.8048 129.035 36.4757ZM141.169 36.43C141.598 36.8719 141.832 36.9161 142.216 36.627C142.903 36.1088 143.783 36.1617 143.783 36.7216C143.783 37.0853 143.259 37.1831 141.409 37.1638C140.103 37.1504 139.267 37.0685 139.551 36.9823C140.765 36.6129 139.9 36.2548 137.796 36.2548C135.339 36.2548 134.678 36.7586 136.867 36.9634C137.701 37.0412 137.32 37.1074 135.859 37.1386C134.54 37.1666 133.387 37.0399 133.231 36.8501C133.031 36.6064 132.828 36.6064 132.505 36.8501C132.258 37.0362 131.777 37.1883 131.436 37.1883C130.978 37.1883 130.938 37.0972 131.28 36.8392C131.535 36.6472 131.641 36.2881 131.515 36.041C131.322 35.6613 132.007 35.6128 135.951 35.7264C139.866 35.839 140.706 35.952 141.169 36.43ZM150.388 36.3326C150.392 36.6802 147.589 36.6151 147.298 36.2607C147.147 36.0768 147.71 35.984 148.717 36.0273C149.635 36.0668 150.387 36.2044 150.388 36.3326ZM165.256 36.2364C165.256 36.3976 165.071 36.6154 164.845 36.7209C164.124 37.0564 152.97 36.9024 152.042 36.5442C151.571 36.3621 156.686 36.0416 160.817 35.9943C163.363 35.9654 165.256 36.0684 165.256 36.2364ZM183.365 36.4169C183.801 36.7449 183.019 36.856 179.168 37.0138C175.218 37.1759 171.037 36.7794 171.037 36.2429C171.037 35.9694 182.996 36.1384 183.365 36.4169ZM198.085 36.5548C195.421 36.734 193.418 36.6021 194.082 36.2909C194.306 36.1854 195.856 36.1642 197.526 36.2436L200.563 36.388L198.085 36.5548ZM205.312 36.2548C205.312 36.4259 205.23 36.566 205.13 36.566C205.029 36.566 204.833 36.4259 204.692 36.2548C204.552 36.0836 204.634 35.9436 204.874 35.9436C205.115 35.9436 205.312 36.0836 205.312 36.2548ZM214.603 36.2548C214.462 36.4259 214.637 36.566 214.991 36.566C215.345 36.566 215.635 36.4259 215.635 36.2548C215.635 36.0836 215.46 35.9436 215.247 35.9436C215.033 35.9436 214.743 36.0836 214.603 36.2548ZM300.211 36.1561C300.509 36.2461 300.865 36.2349 301.002 36.1315C301.139 36.0282 300.896 35.9548 300.46 35.9682C299.979 35.9831 299.881 36.0568 300.211 36.1561ZM203.477 36.5367C203.35 36.6917 202.874 36.7455 202.421 36.6559C201.284 36.4321 201.387 36.2548 202.652 36.2548C203.233 36.2548 203.605 36.3817 203.477 36.5367ZM224.823 36.4608C224.539 36.5473 224.075 36.5473 223.791 36.4608C223.507 36.3746 223.739 36.3039 224.307 36.3039C224.875 36.3039 225.107 36.3746 224.823 36.4608ZM243.818 36.4608C243.535 36.5473 243.07 36.5473 242.786 36.4608C242.502 36.3746 242.734 36.3039 243.302 36.3039C243.87 36.3039 244.103 36.3746 243.818 36.4608ZM297.191 37.8107C297.332 37.9819 297.528 38.1219 297.628 38.1219C297.729 38.1219 297.811 37.9819 297.811 37.8107C297.811 37.6396 297.614 37.4995 297.373 37.4995C297.133 37.4995 297.051 37.6396 297.191 37.8107ZM308.057 37.7121C308.355 37.802 308.711 37.7908 308.848 37.6875C308.985 37.5842 308.742 37.5107 308.306 37.5241C307.825 37.5391 307.727 37.6128 308.057 37.7121ZM139.24 41.6229C139.241 41.7511 135.478 41.8301 130.879 41.7984C125.09 41.7582 123.597 41.6863 126.027 41.565C131.069 41.3129 139.239 41.3487 139.24 41.6229ZM143.37 41.7371C143.37 41.8024 142.488 41.8398 141.409 41.8195C139.722 41.7878 139.621 41.7529 140.686 41.5706C141.844 41.3723 143.37 41.4673 143.37 41.7371ZM122.001 41.7511C121.717 41.8376 121.252 41.8376 120.968 41.7511C120.685 41.6649 120.917 41.5942 121.484 41.5942C122.052 41.5942 122.285 41.6649 122.001 41.7511ZM84.6281 42.4145C84.9143 42.5564 83.22 42.6806 80.8134 42.694C78.432 42.7074 76.5584 42.6271 76.6501 42.5154C76.9004 42.2104 84.0343 42.1205 84.6281 42.4145ZM273.37 42.6912C273.667 42.7811 274.024 42.7699 274.161 42.6666C274.298 42.5633 274.054 42.4898 273.619 42.5032C273.138 42.5182 273.04 42.5919 273.37 42.6912ZM243.19 42.9778C243.053 43.0811 242.697 43.0923 242.399 43.0024C242.07 42.9031 242.167 42.8293 242.649 42.8144C243.084 42.801 243.327 42.8745 243.19 42.9778ZM99.679 43.6444C102.108 43.6991 106.196 43.6994 108.764 43.6447C111.331 43.5899 109.344 43.5451 104.347 43.5448C99.3508 43.5445 97.2501 43.5893 99.679 43.6444ZM136.688 43.7913C136.908 43.9571 137.433 44.038 137.855 43.9705C138.423 43.8799 138.319 43.8015 137.455 43.669C136.701 43.5529 136.43 43.5964 136.688 43.7913ZM264.698 43.6248C264.996 43.7147 265.352 43.7035 265.489 43.6002C265.626 43.4969 265.383 43.4234 264.947 43.4368C264.466 43.4517 264.368 43.5255 264.698 43.6248ZM139.969 43.9434C140.482 44.0178 141.226 44.015 141.62 43.9372C142.015 43.8594 141.595 43.7984 140.686 43.8018C139.778 43.8053 139.455 43.869 139.969 43.9434ZM145.75 43.9434C146.263 44.0178 147.007 44.015 147.401 43.9372C147.796 43.8594 147.376 43.7984 146.467 43.8018C145.559 43.8053 145.236 43.869 145.75 43.9434ZM158.553 43.949C159.295 44.0181 160.41 44.0169 161.031 43.9459C161.652 43.8746 161.044 43.818 159.682 43.8199C158.319 43.8214 157.811 43.8796 158.553 43.949ZM164.539 43.9468C165.167 44.0181 166.096 44.0162 166.604 43.9425C167.112 43.8687 166.598 43.8102 165.463 43.8124C164.327 43.8149 163.912 43.8753 164.539 43.9468ZM218.629 43.9378C219.026 44.0162 219.677 44.0162 220.074 43.9378C220.472 43.8597 220.147 43.7956 219.352 43.7956C218.557 43.7956 218.232 43.8597 218.629 43.9378ZM225.443 43.9294C225.727 44.0159 226.191 44.0159 226.475 43.9294C226.759 43.8432 226.526 43.7726 225.959 43.7726C225.391 43.7726 225.159 43.8432 225.443 43.9294Z" fill="#735C00"/>
</svg>
