<svg width="143" height="44" viewBox="0 0 143 44" fill="none" xmlns="http://www.w3.org/2000/svg">
<path fill-rule="evenodd" clip-rule="evenodd" d="M103.145 0.621258C101.687 0.74077 100.412 0.881425 100.312 0.934133C100.211 0.986534 100.828 1.11616 101.683 1.22188C103.232 1.41371 103.23 1.41432 100.86 1.50871C99.553 1.5608 97.6196 1.71188 96.5639 1.84426C95.2357 2.01096 95.9117 2.0413 98.7577 1.94262C105.262 1.71739 111.941 1.51821 112.8 1.52342C113.279 1.52648 113.543 1.40819 113.475 1.22188C113.4 1.02055 115 0.91544 118.137 0.91544C121.526 0.91544 122.876 1.01197 122.789 1.24823C122.711 1.45784 122.826 1.55467 123.098 1.50932C123.335 1.46948 123.653 1.51882 123.804 1.61903C123.955 1.71892 125.312 1.94814 126.82 2.12833C128.329 2.30851 129.871 2.57757 130.248 2.72619C130.625 2.87451 130.934 2.88186 130.934 2.74243C130.934 2.39432 130.45 2.19176 127.643 1.36468C127.291 1.2611 126.633 1.03373 126.181 0.859668C125.206 0.484586 107.104 0.297352 103.145 0.621258ZM47.4769 0.943938C46.6176 1.11462 46.6423 1.12841 47.8882 1.17377C49.2005 1.22127 49.597 1.09164 48.8023 0.874684C48.576 0.812783 47.9796 0.844039 47.4769 0.943938ZM45.4658 1.09471C45.2647 1.14711 44.3804 1.27857 43.5005 1.38674C42.6208 1.49492 41.9009 1.68491 41.9009 1.80932C41.9009 1.93343 42.1681 1.98032 42.495 1.91321C42.9506 1.81974 43.0252 1.86663 42.815 2.11484C42.6066 2.36061 42.7382 2.43078 43.3634 2.40657C44.1137 2.37777 44.1378 2.35448 43.6376 2.1412L43.0892 1.90738L43.7596 1.87092C44.1282 1.851 44.4572 1.95764 44.4909 2.1081C44.5254 2.26347 45.2218 2.28247 46.1057 2.15192C47.7818 1.90493 47.7527 1.78695 46.0143 1.78052C45.411 1.77807 45.1231 1.70881 45.3744 1.62638C45.8063 1.4848 46.3909 0.864571 46.0052 0.957116C45.9097 0.980099 45.6669 1.042 45.4658 1.09471ZM108.501 1.1419C107.876 1.20165 106.807 1.20196 106.124 1.14282C105.441 1.08398 105.952 1.03495 107.259 1.03464C108.566 1.03403 109.125 1.08245 108.501 1.1419ZM111.052 1.1183C110.927 1.20349 110.721 1.20349 110.595 1.1183C110.47 1.03342 110.572 0.963858 110.824 0.963858C111.075 0.963858 111.178 1.03342 111.052 1.1183ZM124.947 1.42474C124.821 1.50993 124.615 1.50993 124.49 1.42474C124.364 1.33986 124.467 1.2703 124.718 1.2703C124.969 1.2703 125.072 1.33986 124.947 1.42474ZM126.23 1.4229C126.106 1.50687 125.859 1.51208 125.681 1.43424C125.503 1.35641 125.605 1.28776 125.906 1.28163C126.208 1.27551 126.354 1.33894 126.23 1.4229ZM47.9796 1.73945C48.1555 1.81668 48.4436 1.81668 48.6195 1.73945C48.7954 1.66254 48.6515 1.59941 48.2995 1.59941C47.9476 1.59941 47.8037 1.66254 47.9796 1.73945ZM49.7164 1.73118C49.8422 1.81637 50.0478 1.81637 50.1734 1.73118C50.2992 1.6463 50.1963 1.57674 49.9449 1.57674C49.6935 1.57674 49.5908 1.6463 49.7164 1.73118ZM14.7167 2.23742C14.6641 2.38022 13.7044 2.46878 12.5841 2.43415C10.5514 2.37195 6.99095 2.82302 6.39167 3.21894C6.19112 3.35133 6.08928 3.71047 6.11342 4.19986C6.15455 5.03276 6.18289 5.06248 7.21088 5.3487C8.05222 5.58312 8.12004 6.07894 7.30229 6.01674C6.75786 5.97537 6.71252 6.04217 6.76078 6.8144C6.80685 7.5523 6.74999 7.65772 6.30373 7.6617C5.66441 7.66783 5.43918 7.94025 5.38872 8.76887C5.356 9.30789 5.47465 9.45437 6.0743 9.61495C7.04488 9.87511 6.99241 10.2989 5.96552 10.4929C5.15435 10.6461 4.14573 11.7499 4.33879 12.2733C4.38669 12.4035 4.17901 12.6012 3.87717 12.7124C3.40275 12.8871 3.36363 12.9735 3.58832 13.3501C3.73128 13.5898 3.95706 13.788 4.08997 13.7905C4.27206 13.7942 4.26566 13.865 4.06401 14.0788C3.87662 14.2774 4.09034 14.3905 4.77865 14.457C5.74888 14.5508 5.76076 14.5636 5.77721 15.5479C5.78654 16.0958 5.73224 16.5438 5.65692 16.5438C5.5816 16.5438 5.5198 16.8196 5.5198 17.1567C5.5198 17.6109 5.38964 17.7803 5.01705 17.8113C4.57883 17.8477 4.56768 17.8701 4.93039 17.9869C5.46039 18.1572 6.42439 18.9911 6.09441 18.9935C5.95491 18.9944 5.8902 19.1866 5.9465 19.4326C6.09532 20.0826 5.73334 20.4332 4.5302 20.8046C3.45376 21.1368 2.98995 21.4469 3.56967 21.4469C3.73731 21.4469 3.87443 21.6537 3.87443 21.9065C3.87443 22.2642 3.63073 22.3662 2.77751 22.3662C1.59467 22.3662 1.22684 22.9515 2.36617 23.0208C2.79049 23.0465 2.89506 23.113 2.6404 23.1954C2.41407 23.2684 2.22905 23.447 2.22905 23.5926C2.22905 23.7381 2.06324 23.9453 1.86067 24.0531C1.65811 24.1607 1.53781 24.3718 1.59302 24.5217C1.64842 24.6718 1.42337 24.9253 1.09301 25.0849C0.573989 25.3359 0.678745 25.3803 1.86342 25.4122C3.27131 25.4502 3.32359 25.7729 1.98718 26.1755C1.39467 26.3539 1.32245 26.4556 1.51386 26.842C1.69559 27.2092 1.77036 27.2205 1.89651 26.9006C2.01826 26.5914 2.11424 26.6373 2.32778 27.1068C2.57952 27.6599 2.56763 27.7356 2.18719 28.0114C1.83179 28.2688 1.91698 28.3362 2.77751 28.4803C3.67991 28.631 3.74316 28.6865 3.39453 29.0214C3.18099 29.2268 2.64625 29.4866 2.2062 29.5988C0.83853 29.9475 0.759734 30.3128 2.04623 30.3407L3.23456 30.3661L1.6806 31.3458L0.126631 32.3255L1.04073 32.4787L1.95482 32.6319L0.877653 33.0465C0.124986 33.3364 -0.122735 33.5426 0.0549657 33.7314C0.195005 33.88 0.473988 34.0133 0.675089 34.0277C1.03817 34.0538 1.03817 34.0556 0.678381 34.2913C0.415486 34.4632 0.641451 34.6011 1.50107 34.7932C2.57477 35.0329 2.61736 35.0681 1.95482 35.1677C1.55262 35.2281 1.14548 35.4064 1.04987 35.5636C0.942189 35.7407 1.70637 35.8587 3.06088 35.8737C4.74812 35.8924 5.13113 35.9681 4.74282 36.2056C4.45141 36.3843 4.24007 36.7428 4.24007 37.059C4.24007 37.5015 3.9205 37.7136 2.55136 38.1794C1.62264 38.4953 1.01769 38.8039 1.20691 38.8649C1.48224 38.9538 1.49997 39.0301 1.29576 39.2467C1.10819 39.4459 1.16157 39.5198 1.49778 39.5268C1.74915 39.532 2.07585 39.6647 2.22394 39.8216C2.52303 40.1384 2.44533 40.216 1.47218 40.5711C1.20673 40.668 0.944931 40.9425 0.890268 41.1816C0.806902 41.545 1.12281 41.5928 2.83547 41.4745C4.34647 41.3703 4.80845 41.4212 4.60571 41.6694C4.37444 41.9529 4.38888 41.9979 4.69712 41.9569C5.3081 41.8747 5.44192 41.9728 5.15416 42.2915C4.96769 42.498 5.23077 42.525 5.97685 42.3761C7.34251 42.103 7.27268 42.1 10.3645 42.5731C12.2593 42.863 15.0368 42.9102 21.0595 42.7554C26.0587 42.6267 30.7454 42.6709 33.2169 42.8694C41.3625 43.5249 42.1727 43.5709 42.0563 43.3692C41.991 43.2562 41.086 43.0888 40.0452 42.9975C39.0046 42.9065 38.0748 42.7086 37.9794 42.5584C37.7414 42.1836 53.4836 42.2127 59.0356 42.5973C62.2203 42.818 86.2755 43.2497 94.6443 43.2365C96.5114 43.2335 104.655 42.8461 105.028 42.7426C105.337 42.6568 105.496 42.7202 105.429 42.9022C105.368 43.0683 105.4 43.2041 105.5 43.2041C105.601 43.2041 105.734 43.0662 105.796 42.8976C105.944 42.4959 106.619 42.5005 106.619 42.9031C106.619 43.2497 110.938 43.2703 114.091 42.939C115.536 42.7873 116.009 42.8317 116.076 43.125C116.125 43.3371 116.284 43.5105 116.43 43.5105C116.576 43.5105 116.645 43.3726 116.583 43.2041C116.52 43.0355 116.618 42.874 116.8 42.8452C116.982 42.8164 117.254 42.7622 117.405 42.7245C117.556 42.6871 118.132 42.6396 118.685 42.6191C119.298 42.5964 119.597 42.4821 119.451 42.327C119.214 42.0748 120.51 41.8401 124.17 41.4736C126.009 41.2894 126.842 40.7863 125.44 40.706C124.993 40.6802 124.544 40.6272 124.444 40.588C124.343 40.5488 123.479 40.482 122.524 40.4397L120.787 40.3621L121.976 40.1237C122.629 39.9926 123.973 39.8421 124.961 39.7897C125.95 39.737 126.798 39.5875 126.846 39.4572C126.894 39.327 127.098 39.2204 127.299 39.2204C127.5 39.2204 127.62 39.1005 127.567 38.9538C127.512 38.8057 127.121 38.7999 126.687 38.9406C125.812 39.2243 124.978 39.2957 125.109 39.0757C125.285 38.7803 129.073 37.6863 129.335 37.8549C129.488 37.9532 129.655 37.8212 129.716 37.5524C129.794 37.2138 130.106 37.0609 130.791 37.0253L131.757 36.9754L130.751 36.7946C129.96 36.6521 129.851 36.5746 130.238 36.4308C130.509 36.33 131.126 36.3502 131.609 36.4753C132.092 36.6003 132.507 36.6748 132.529 36.6408C132.552 36.6064 132.44 36.2651 132.28 35.8817C132.087 35.4202 131.927 35.2878 131.807 35.4895C131.686 35.6914 131.431 35.6862 131.051 35.4735C130.03 34.9032 130.191 34.7748 131.789 34.8867C132.903 34.9645 133.32 34.898 133.231 34.6569C133.154 34.4479 133.269 34.3066 133.528 34.2897C133.904 34.2652 132.108 33.6533 130.66 33.3125C130.358 33.2414 130.728 33.1605 131.482 33.1329C132.237 33.1051 132.977 32.9485 133.128 32.7851C133.355 32.5388 133.34 32.4864 133.036 32.4787C132.835 32.4735 132.547 32.3236 132.396 32.1456C132.196 31.909 132.356 31.8741 132.99 32.016C134.125 32.2691 134.365 32.0016 133.841 31.0675C133.609 30.6538 133.528 30.3336 133.655 30.3336C133.779 30.3336 133.83 30.1957 133.768 30.0272C133.705 29.8586 133.31 29.7186 132.888 29.7161C132.467 29.7134 131.999 29.5675 131.848 29.3916C131.651 29.1618 131.843 29.1281 132.534 29.2721C133.51 29.4753 133.88 29.0671 133.082 28.666C132.681 28.4643 132.68 28.4521 133.036 28.1649C133.326 27.9321 133.268 27.8974 132.757 27.9992C132.021 28.1459 131.248 27.4853 131.766 27.1522C131.928 27.048 132.209 26.9628 132.389 26.9628C132.57 26.9628 132.82 26.7559 132.945 26.5031C133.124 26.1421 133.124 26.0435 132.948 26.0435C132.823 26.0435 132.77 25.8388 132.828 25.5838C132.896 25.2884 132.821 25.1165 132.619 25.1027C132.359 25.0846 132.367 25.0383 132.671 24.83C133.01 24.5965 133 24.5548 132.522 24.2385C132.239 24.0516 131.889 23.8984 131.745 23.8984C131.6 23.8984 131.482 23.7605 131.482 23.592C131.482 23.4234 131.955 23.272 132.534 23.2558L133.585 23.2261L132.899 22.7545C132.156 22.2433 132.021 21.6412 132.545 21.1714C132.727 21.0081 133.796 20.7767 134.922 20.6572C136.046 20.538 136.967 20.3336 136.967 20.203C136.967 20.0725 136.741 19.8273 136.464 19.6579C136.043 19.4005 136.178 19.3462 137.287 19.326C138.039 19.3122 138.612 19.1691 138.612 18.9954C138.612 18.8268 138.443 18.6889 138.236 18.6889C138.029 18.6889 137.908 18.5572 137.968 18.396C138.027 18.2348 138.196 18.1805 138.344 18.2755C138.491 18.3702 138.612 18.3184 138.612 18.1603C138.612 18.0019 138.221 17.7187 137.744 17.5309C137.007 17.241 137.29 17.2042 139.618 17.287L142.36 17.3847L139.983 16.8245C135.825 15.8442 135.899 15.8697 136.419 15.6089C136.841 15.3965 136.846 15.3769 136.475 15.3487C135.918 15.3061 135.776 14.7775 136.279 14.6157C136.509 14.5413 136.355 14.4637 135.931 14.4404C135.512 14.4175 135.142 14.2627 135.108 14.0966C135.075 13.9305 134.101 13.6817 132.945 13.5441C130.886 13.299 130.858 13.2861 131.614 12.9174C132.106 12.6775 133.389 12.566 135.156 12.6092C137.713 12.672 137.946 12.6312 138.185 12.0824C138.413 11.5593 138.719 11.4753 140.722 11.3859C142.538 11.305 143 11.1962 143 10.8496C143 10.6106 142.929 10.4151 142.841 10.4151C142.584 10.4151 139.464 9.49176 139.115 9.31249C138.455 8.97296 138.832 8.5752 139.846 8.54118C140.886 8.50625 140.89 8.50318 140.166 8.25252C139.764 8.11309 138.777 7.98071 137.972 7.95864C136.54 7.9188 134.597 7.50235 135.139 7.35067C135.655 7.20633 133.769 6.78314 132.509 6.76046C131.41 6.74054 131.196 6.64034 130.826 5.97169L130.403 5.20559L131.171 5.17801L131.939 5.15043L131.314 4.8492C130.97 4.68372 130.539 4.61447 130.355 4.69506C130.17 4.77566 130.02 4.72693 130.02 4.58658C130.02 4.44623 129.876 4.26819 129.7 4.19097C129.524 4.11405 129.75 4.01753 130.203 3.97708L131.025 3.90322L130.203 3.67094C127.514 2.9122 108.391 2.4933 102.231 3.05837C100.472 3.21986 98.1955 3.35531 97.1732 3.35929C95.8613 3.36481 95.2872 3.47972 95.2218 3.75C95.1519 4.03836 95.0914 4.0448 94.9766 3.77513C94.8477 3.47298 91.0513 3.12517 90.7136 3.38442C90.3837 3.63785 42.2246 3.60444 38.9758 3.34857C36.8139 3.17819 34.3459 2.98513 33.4912 2.91955C32.6365 2.85398 30.0926 2.72834 27.8382 2.641C25.5837 2.55336 22.91 2.39524 21.8966 2.28982C18.9664 1.98461 14.8211 1.95427 14.7167 2.23742ZM107.499 2.04406C107.631 2.13262 107.788 2.12159 107.849 2.01985C107.91 1.91811 107.802 1.84579 107.609 1.85897C107.396 1.87368 107.353 1.9463 107.499 2.04406ZM102.563 2.35049C102.695 2.43906 102.852 2.42802 102.913 2.32629C102.974 2.22455 102.866 2.15223 102.673 2.16541C102.46 2.18011 102.417 2.25274 102.563 2.35049ZM104.025 2.35049C104.157 2.43906 104.315 2.42802 104.376 2.32629C104.436 2.22455 104.328 2.15223 104.136 2.16541C103.923 2.18011 103.879 2.25274 104.025 2.35049ZM45.3287 2.97042C45.5551 3.04336 45.9251 3.04336 46.1514 2.97042C46.3777 2.89718 46.1926 2.83743 45.7401 2.83743C45.2876 2.83743 45.1024 2.89718 45.3287 2.97042ZM82.3531 4.18086C82.2294 4.26482 81.9826 4.27003 81.8047 4.1922C81.6268 4.11436 81.7281 4.04572 82.0297 4.03959C82.3314 4.03346 82.4769 4.09689 82.3531 4.18086ZM129.239 4.16492C129.178 4.26666 129.021 4.27769 128.889 4.18913C128.743 4.09138 128.786 4.01875 128.999 4.00404C129.192 3.99086 129.3 4.06318 129.239 4.16492ZM101.996 4.70916C102.058 4.81365 101.458 4.91478 100.662 4.93408C99.8659 4.95308 97.1169 5.03889 94.5528 5.12438C91.9888 5.21019 82.9129 5.38639 74.3844 5.51663C65.8557 5.64686 58.4292 5.84697 57.8809 5.96188C56.8736 6.17271 55.6679 5.9294 55.8889 5.55953C56.0162 5.34655 57.7467 5.28956 67.4499 5.18016C71.1533 5.13817 73.5286 4.99721 73.5286 4.81917C73.5286 4.6586 73.6443 4.6016 73.7859 4.69261C74.1767 4.94389 80.265 4.9013 84.6806 4.61631C88.9977 4.33745 101.815 4.4064 101.996 4.70916ZM106.771 4.4398C106.64 4.66013 103.506 4.68679 103.376 4.4686C103.316 4.3684 104.076 4.28627 105.065 4.28627C106.054 4.28627 106.822 4.35522 106.771 4.4398ZM107.483 4.47136C107.423 4.5731 107.265 4.58413 107.133 4.49557C106.987 4.39782 107.031 4.32519 107.244 4.31048C107.436 4.29731 107.544 4.36962 107.483 4.47136ZM93.5953 4.80936C93.8227 4.8826 94.1517 4.87984 94.3265 4.80323C94.5013 4.72662 94.3152 4.66656 93.913 4.66993C93.5108 4.67331 93.3678 4.73613 93.5953 4.80936ZM118.565 4.82254C118.612 4.94879 117.513 5.05237 116.123 5.05237C114.734 5.05237 113.535 4.94879 113.46 4.82254C113.384 4.69629 114.483 4.59271 115.901 4.59271C117.32 4.59271 118.519 4.69629 118.565 4.82254ZM119.508 4.89915C119.008 5.25891 118.868 5.25891 118.868 4.89915C118.868 4.73061 119.094 4.60252 119.371 4.61416C119.816 4.63347 119.832 4.66564 119.508 4.89915ZM86.109 5.10845C86.2408 5.19701 86.3986 5.18598 86.4593 5.08424C86.52 4.9825 86.4121 4.91018 86.2194 4.92336C86.0064 4.93807 85.9631 5.01069 86.109 5.10845ZM87.1977 5.12132C87.5262 5.18935 88.0198 5.18812 88.2946 5.11825C88.5694 5.04808 88.3004 4.99231 87.6971 4.99415C87.0938 4.99568 86.8691 5.05298 87.1977 5.12132ZM50.2932 5.83655C50.1616 5.97291 49.9793 6.00724 49.8884 5.91316C49.7976 5.81908 49.8308 5.63032 49.9623 5.49395C50.0939 5.35758 50.2762 5.32326 50.3671 5.41734C50.4579 5.51142 50.4246 5.70018 50.2932 5.83655ZM53.6013 5.57853C53.6013 5.7106 53.005 5.80223 52.2759 5.78231C51.2921 5.75534 51.0917 5.68701 51.4989 5.51724C52.2007 5.22428 53.6013 5.26535 53.6013 5.57853ZM55.4295 5.36647C55.4295 5.69375 54.4425 6.14268 54.164 5.94196C53.9362 5.77771 53.9715 5.68486 54.3326 5.50038C54.8909 5.21478 55.4295 5.14921 55.4295 5.36647ZM49.4815 5.83594C49.4228 5.99467 48.7422 6.12276 47.9688 6.12031C47.1955 6.11755 46.6589 6.01428 46.7765 5.89048C47.1019 5.54758 49.6063 5.49701 49.4815 5.83594ZM107.948 5.71305C107.824 5.79702 107.577 5.80223 107.399 5.72439C107.222 5.64656 107.323 5.57791 107.624 5.57179C107.926 5.56566 108.072 5.62909 107.948 5.71305ZM120.742 6.03482C120.516 6.10775 120.145 6.10775 119.919 6.03482C119.693 5.96158 119.878 5.90182 120.33 5.90182C120.783 5.90182 120.968 5.96158 120.742 6.03482ZM7.348 10.1086C7.348 10.2772 7.3118 10.4151 7.26737 10.4151C7.22295 10.4151 7.13593 10.2772 7.07377 10.1086C7.01161 9.94008 7.04799 9.80218 7.15439 9.80218C7.26079 9.80218 7.348 9.94008 7.348 10.1086ZM2.37769 21.3497C2.5095 21.4383 2.66727 21.4273 2.72797 21.3255C2.78866 21.2238 2.6808 21.1515 2.48811 21.1646C2.27513 21.1794 2.2318 21.252 2.37769 21.3497ZM132.347 26.535C132.286 26.6367 132.128 26.6478 131.997 26.5592C131.851 26.4614 131.894 26.3888 132.107 26.3741C132.3 26.3609 132.408 26.4333 132.347 26.535ZM3.87443 27.2692C3.87443 27.4378 3.78722 27.5757 3.68082 27.5757C3.57442 27.5757 3.53804 27.4378 3.6002 27.2692C3.66236 27.1007 3.74938 26.9628 3.79381 26.9628C3.83823 26.9628 3.87443 27.1007 3.87443 27.2692ZM58.2707 31.8863C58.4674 32.4199 58.2435 32.5329 57.9926 32.0264C57.8484 31.7353 57.8345 31.5594 57.9559 31.5594C58.0626 31.5594 58.2045 31.7065 58.2707 31.8863ZM69.8636 32.6408C69.9722 32.5283 70.0137 32.308 69.9558 32.1511C69.8954 31.9872 70.3154 31.8658 70.9432 31.8658C71.5741 31.8658 72.0639 32.008 72.1024 32.2023C72.1394 32.3874 72.5558 32.612 73.0283 32.7012C74.2049 32.9236 73.9367 33.3956 72.6997 33.2788C71.9556 33.2086 71.7004 33.2901 71.7004 33.5978C71.7004 34.1181 71.0315 34.1436 70.9074 33.6278C70.854 33.4057 70.8092 33.4777 70.8008 33.7991C70.7929 34.104 70.7187 34.2836 70.6361 34.1978C70.5534 34.1123 70.3487 34.3109 70.1808 34.6394C69.8229 35.3405 68.9581 35.4512 68.9581 34.7963C68.9581 34.4611 68.7995 34.3991 68.2938 34.5364C67.7724 34.6783 67.6486 34.6247 67.7192 34.2876C67.7687 34.051 67.9259 33.8718 68.0685 33.8889C68.2113 33.9061 68.4404 33.7182 68.5779 33.4719C68.7949 33.0824 68.7464 33.0511 68.2073 33.2338C67.8662 33.3493 67.4499 33.508 67.2824 33.5865C67.115 33.6652 66.9298 33.5987 66.8709 33.4394C66.812 33.2797 67.1799 33.0533 67.6883 32.9362C68.1967 32.8188 68.711 32.543 68.8311 32.323C69.0102 31.9951 69.1051 32.0062 69.358 32.384C69.5276 32.6377 69.7552 32.7533 69.8636 32.6408ZM95.6498 32.2908C95.6498 32.5424 94.5316 32.669 94.4426 32.4275C94.3909 32.2872 94.6413 32.1723 94.9991 32.1723C95.3569 32.1723 95.6498 32.2256 95.6498 32.2908ZM62.2664 34.1359C62.1094 34.822 61.8792 34.4791 61.9344 33.6407C62.003 32.5982 62.0073 32.5896 62.1997 33.1418C62.2973 33.4222 62.3273 33.8696 62.2664 34.1359ZM75.2232 32.9862C75.0994 33.0701 74.8526 33.0753 74.6747 32.9975C74.4968 32.9197 74.5981 32.851 74.8998 32.8449C75.2014 32.8388 75.3469 32.9022 75.2232 32.9862ZM81.3899 33.1072C80.2174 33.4568 76.0492 33.4455 75.7225 33.0916C75.5406 32.8945 76.5872 32.806 78.8304 32.828C81.1436 32.8513 81.9526 32.9393 81.3899 33.1072ZM85.1834 33.0045C84.9068 33.0747 84.4545 33.0747 84.1779 33.0045C83.9013 32.9344 84.1276 32.8771 84.6806 32.8771C85.2336 32.8771 85.46 32.9344 85.1834 33.0045ZM86.9201 32.988C86.7945 33.0732 86.5889 33.0732 86.4631 32.988C86.3375 32.9031 86.4402 32.8335 86.6916 32.8335C86.943 32.8335 87.0459 32.9031 86.9201 32.988ZM88.7483 32.988C88.6227 33.0732 88.4171 33.0732 88.2913 32.988C88.1657 32.9031 88.2684 32.8335 88.5198 32.8335C88.7712 32.8335 88.8741 32.9031 88.7483 32.988ZM57.6233 33.2414C57.6233 33.6876 56.9418 34.6222 56.623 34.6137C56.2665 34.6038 56.2683 34.5809 56.6705 34.0189L57.0886 33.4345L56.3048 33.3165C55.6165 33.2129 55.6491 33.1921 56.5721 33.1452C57.1504 33.1158 57.6233 33.159 57.6233 33.2414ZM58.4879 33.2767C58.4272 33.3784 58.2694 33.3894 58.1376 33.3009C57.9917 33.2031 58.035 33.1305 58.248 33.1158C58.4407 33.1026 58.5486 33.1749 58.4879 33.2767ZM69.6894 33.398C69.6894 33.5666 69.7766 33.7044 69.883 33.7044C69.9894 33.7044 70.0258 33.5666 69.9636 33.398C69.9015 33.2295 69.8145 33.0916 69.77 33.0916C69.7256 33.0916 69.6894 33.2295 69.6894 33.398ZM126.862 33.2767C126.802 33.3784 126.644 33.3894 126.512 33.3009C126.366 33.2031 126.409 33.1305 126.622 33.1158C126.815 33.1026 126.923 33.1749 126.862 33.2767ZM128.237 33.2944C128.112 33.3796 127.906 33.3796 127.78 33.2944C127.655 33.2095 127.757 33.14 128.009 33.14C128.26 33.14 128.363 33.2095 128.237 33.2944ZM49.7126 33.5831C49.6519 33.6848 49.4941 33.6959 49.3623 33.6073C49.2164 33.5096 49.2597 33.4369 49.4727 33.4222C49.6654 33.409 49.7733 33.4814 49.7126 33.5831ZM54.8392 33.7621C54.7993 33.9622 54.6576 34.1868 54.5242 34.2612C54.3878 34.3376 54.3341 34.2551 54.4013 34.0725C54.4684 33.8905 54.3394 33.6897 54.1068 33.615C53.8119 33.52 53.8682 33.4694 54.3021 33.4397C54.6997 33.4124 54.8863 33.5246 54.8392 33.7621ZM60.6399 34.0109C60.5733 34.3624 60.607 34.6238 60.719 34.6238C60.8263 34.6238 60.9141 34.7387 60.9141 34.879C60.9141 35.2771 60.1707 35.0868 60.0086 34.6471C59.8963 34.3428 59.7751 34.3336 59.4711 34.6063C59.255 34.8 58.9894 34.8665 58.8806 34.7537C58.6612 34.5263 59.895 33.4624 60.4236 33.4228C60.675 33.4041 60.7276 33.5472 60.6399 34.0109ZM95.1927 33.7044C95.2549 33.873 95.2185 34.0109 95.1121 34.0109C95.0057 34.0109 94.9185 33.873 94.9185 33.7044C94.9185 33.5359 94.9547 33.398 94.9991 33.398C95.0435 33.398 95.1306 33.5359 95.1927 33.7044ZM96.9295 33.5331C96.9295 33.6076 96.8472 33.7535 96.7467 33.8577C96.6461 33.9619 96.5639 33.9009 96.5639 33.7225C96.5639 33.5442 96.6461 33.398 96.7467 33.398C96.8472 33.398 96.9295 33.4587 96.9295 33.5331ZM123.67 33.599C123.547 33.683 123.3 33.6882 123.122 33.6104C122.944 33.5325 123.045 33.4639 123.347 33.4578C123.649 33.4516 123.794 33.5151 123.67 33.599ZM124.669 33.5831C124.608 33.6848 124.45 33.6959 124.318 33.6073C124.172 33.5096 124.216 33.4369 124.429 33.4222C124.621 33.409 124.729 33.4814 124.669 33.5831ZM52.413 34.0109C52.4751 34.1794 52.4388 34.3173 52.3324 34.3173C52.226 34.3173 52.1388 34.1794 52.1388 34.0109C52.1388 33.8423 52.175 33.7044 52.2194 33.7044C52.2638 33.7044 52.3508 33.8423 52.413 34.0109ZM74.0275 33.8895C73.9668 33.9913 73.8091 34.0023 73.6773 33.9137C73.5314 33.816 73.5747 33.7434 73.7877 33.7287C73.9804 33.7155 74.0882 33.7878 74.0275 33.8895ZM74.9416 33.8895C74.8809 33.9913 74.7232 34.0023 74.5914 33.9137C74.4455 33.816 74.4888 33.7434 74.7018 33.7287C74.8945 33.7155 75.0023 33.7878 74.9416 33.8895ZM76.6366 34.1641C76.6366 34.4169 76.7188 34.6238 76.8194 34.6238C76.9199 34.6238 77.002 34.4515 77.0018 34.2407C77.0015 33.9563 77.4029 33.8834 78.5582 33.957C79.4997 34.017 80.0719 34.1733 80.0057 34.3526C79.9458 34.5153 79.7514 34.5714 79.5739 34.477C79.3966 34.3826 79.0127 34.5144 78.7211 34.7693C78.2514 35.18 78.1838 35.1806 78.1315 34.7752C78.0653 34.2634 77.2693 34.1473 77.0936 34.6238C76.9711 34.9563 76.2172 35.0445 76.0398 34.747C75.8618 34.4488 76.1062 33.7044 76.3819 33.7044C76.5219 33.7044 76.6366 33.9113 76.6366 34.1641ZM93.4559 34.1641C93.2632 34.5533 93.3035 34.6238 93.7187 34.6238C93.9989 34.6238 94.1603 34.7549 94.0958 34.9302C94.0336 35.0987 93.8095 35.2366 93.5974 35.2366C93.3856 35.2366 93.2709 35.3353 93.3428 35.4557C93.4148 35.5762 94.1395 35.6323 94.9532 35.5808C96.2752 35.4968 96.4205 35.5416 96.3156 36.0003C96.2383 36.338 96.2763 36.4655 96.4266 36.3732C96.5524 36.2957 96.6348 36.0775 96.6096 35.8878C96.5843 35.6981 96.7745 35.5431 97.0317 35.5431C97.297 35.5431 97.4507 35.6758 97.3866 35.8495C97.3244 36.0181 97.3608 36.156 97.4672 36.156C97.5736 36.156 97.6608 36.0181 97.6608 35.8495C97.6608 35.3396 98.3445 35.5063 98.4683 36.0466C98.5315 36.3236 98.5561 36.5963 98.5224 36.6527C98.4888 36.7088 97.6505 36.7924 96.6597 36.8384C95.3443 36.8994 94.8373 36.8188 94.7816 36.539C94.7395 36.3285 94.5426 36.156 94.3441 36.156C94.1453 36.156 94.0336 36.2939 94.0958 36.4624C94.1618 36.6411 93.9759 36.7688 93.6495 36.7688C93.342 36.7688 93.0903 36.6309 93.0903 36.4624C93.0903 36.2939 92.7859 36.156 92.4139 36.156C91.6744 36.156 91.7689 35.666 92.5418 35.4925C92.8855 35.4153 93.0131 35.1809 93.0567 34.5472C93.0921 34.0305 93.2247 33.7044 93.3991 33.7044C93.6313 33.7044 93.6417 33.789 93.4559 34.1641ZM111.646 34.4111C111.848 34.499 111.621 34.557 111.144 34.5401C110.666 34.5233 110.275 34.3878 110.275 34.2395C110.275 34.0909 110.45 34.0627 110.664 34.1764C110.961 34.3342 111.017 34.2852 110.903 33.9671C110.786 33.6401 110.81 33.626 111.017 33.9012C111.162 34.0939 111.445 34.3232 111.646 34.4111ZM88.794 34.3173C88.7319 34.4859 88.6037 34.6238 88.509 34.6238C88.4143 34.6238 88.337 34.4859 88.337 34.3173C88.337 34.1488 88.4653 34.0109 88.622 34.0109C88.7787 34.0109 88.8562 34.1488 88.794 34.3173ZM69.3238 34.6238C69.6783 35.0077 69.8722 35.0077 69.8722 34.6238C69.8722 34.4552 69.687 34.3195 69.4609 34.3219C69.1283 34.3259 69.102 34.3835 69.3238 34.6238ZM86.5088 34.7568C86.5088 35.0056 86.7267 35.2428 87.0116 35.3038C87.4149 35.3902 87.3651 35.4404 86.7602 35.5584C86.0728 35.6923 86.0061 35.6439 86.0061 35.0114C86.0061 34.6268 86.1181 34.3173 86.2574 34.3173C86.3956 34.3173 86.5088 34.515 86.5088 34.7568ZM92.1762 34.5781C92.1762 34.7319 91.8455 34.8655 91.4413 34.875C91.0369 34.8842 90.7433 34.7914 90.7884 34.6688C90.9113 34.336 92.1762 34.2533 92.1762 34.5781ZM35.228 34.9302C35.2901 35.0987 35.2126 35.2366 35.0559 35.2366C34.8992 35.2366 34.7709 35.0987 34.7709 34.9302C34.7709 34.7617 34.8482 34.6238 34.9429 34.6238C35.0376 34.6238 35.1658 34.7617 35.228 34.9302ZM71.5176 34.9483C71.5176 35.1266 71.4262 35.1781 71.3143 35.0623C71.2026 34.9464 71.0394 35.0418 70.9516 35.274C70.8253 35.6081 70.7913 35.5842 70.7891 35.16C70.7874 34.8266 70.9245 34.6238 71.152 34.6238C71.3531 34.6238 71.5176 34.7699 71.5176 34.9483ZM74.0771 34.8536C74.0771 34.9799 73.8793 35.0834 73.6374 35.0834C73.3957 35.0834 73.2361 34.9799 73.2827 34.8536C73.3292 34.7273 73.527 34.6238 73.7222 34.6238C73.9175 34.6238 74.0771 34.7273 74.0771 34.8536ZM108.904 34.9302C108.842 35.0987 108.611 35.2268 108.391 35.2152C108.005 35.1944 108.003 35.1842 108.356 34.9302C108.859 34.5677 109.038 34.5677 108.904 34.9302ZM122.341 34.9302C122.341 35.0987 122.527 35.2388 122.753 35.2412C122.979 35.244 123.287 35.3798 123.438 35.5431C123.641 35.7622 123.497 35.8572 122.89 35.9047C122.437 35.9402 121.779 36.0239 121.427 36.0904C121.075 36.1572 117.949 36.2522 114.48 36.3015C111.011 36.3509 108.667 36.2883 109.27 36.1624C109.873 36.0368 110.778 35.848 111.281 35.7432C113.213 35.3408 115.555 35.236 115.67 35.5465C115.733 35.7187 115.87 35.772 115.973 35.665C116.076 35.5584 116.353 35.6433 116.588 35.8541C116.823 36.065 117.165 36.1373 117.347 36.0147C117.53 35.8921 118.271 35.7677 118.993 35.7383C119.716 35.7089 120.361 35.5946 120.426 35.4842C120.492 35.3742 120.826 35.3604 121.169 35.4536C121.665 35.5884 121.793 35.521 121.793 35.1236C121.793 34.8487 121.916 34.6238 122.067 34.6238C122.218 34.6238 122.341 34.7617 122.341 34.9302ZM127.719 35.0068C127.805 35.3133 127.847 35.3133 127.933 35.0068C128.047 34.595 129.574 34.4638 129.717 34.8536C129.764 34.9799 129.44 35.035 128.997 34.9759C128.494 34.9088 128.192 34.9952 128.192 35.2057C128.192 35.7168 127.332 35.6096 127.211 35.0834C127.083 34.5245 127.565 34.4519 127.719 35.0068ZM85.3205 35.2366C85.2583 35.4052 84.9861 35.5333 84.7155 35.5216C84.2762 35.5023 84.2627 35.4717 84.5892 35.2366C85.0971 34.8708 85.4554 34.8708 85.3205 35.2366ZM102.505 35.2366C102.443 35.4052 102.562 35.5431 102.769 35.5431C102.976 35.5431 103.145 35.4052 103.145 35.2366C103.145 34.8747 103.5 34.9566 103.801 35.388C104.077 35.7836 103.138 36.482 102.63 36.2592C102.433 36.1731 102.217 36.2525 102.15 36.4357C102.082 36.619 101.903 36.7688 101.753 36.7688C101.602 36.7688 101.533 36.6202 101.6 36.4388C101.684 36.2102 101.463 36.1737 100.88 36.3202C100.369 36.4486 100.037 36.4146 100.037 36.2335C100.037 36.0696 100.509 35.8535 101.086 35.7539C101.662 35.6543 102.163 35.4282 102.198 35.2514C102.233 35.0748 102.342 34.9302 102.44 34.9302C102.538 34.9302 102.568 35.0681 102.505 35.2366ZM107.732 35.2127C107.591 35.3632 107.233 35.4349 106.937 35.3721C106.522 35.2841 106.377 35.3963 106.305 35.8603C106.253 36.1915 106.14 36.4624 106.055 36.4624C105.857 36.4624 106.07 35.4646 106.331 35.1646C106.439 35.0408 106.857 34.9397 107.259 34.9397C107.758 34.9397 107.908 35.0264 107.732 35.2127ZM43.3634 35.5072C43.3634 35.8722 42.6566 36.1636 42.5398 35.8471C42.4888 35.7086 42.5504 35.5256 42.6768 35.4401C43.0512 35.187 43.3634 35.2176 43.3634 35.5072ZM45.7401 35.5431C45.7401 35.7116 45.6627 35.8495 45.568 35.8495C45.4733 35.8495 45.3452 35.7116 45.283 35.5431C45.2209 35.3745 45.2984 35.2366 45.4551 35.2366C45.6117 35.2366 45.7401 35.3745 45.7401 35.5431ZM49.0308 35.5097C49.0308 35.973 47.6959 36.0717 47.2076 35.6445C46.7798 35.2704 46.8302 35.2403 47.8882 35.2385C48.5167 35.2376 49.0308 35.3595 49.0308 35.5097ZM49.593 35.6274C49.5703 35.9939 49.3197 35.9228 49.2411 35.5278C49.2008 35.3255 49.2667 35.2152 49.3873 35.2826C49.508 35.35 49.6005 35.5051 49.593 35.6274ZM51.2119 36.5926C51.2188 36.7486 51.0722 36.6107 50.8857 36.2862C50.6559 35.8863 50.6117 35.6258 50.7486 35.4778C50.9316 35.2792 51.1793 35.8753 51.2119 36.5926ZM52.7636 35.4227C53.1357 35.662 53.1386 36.156 52.7678 36.156C52.6112 36.156 52.5305 36.2856 52.589 36.4437C52.6474 36.6021 52.5293 36.7109 52.3265 36.6852C51.9473 36.6374 51.8883 35.8921 52.2302 35.4711C52.4541 35.1953 52.4155 35.1986 52.7636 35.4227ZM124.535 35.5431C124.535 35.7116 124.391 35.8474 124.215 35.8449C123.942 35.8409 123.935 35.7968 124.17 35.5431C124.515 35.1692 124.535 35.1692 124.535 35.5431ZM54.6139 36.0202C54.1463 36.342 54.1214 36.4134 54.4311 36.5451C54.7209 36.6686 54.7017 36.7045 54.3309 36.7333C54.0662 36.7538 53.7836 36.531 53.6627 36.2071C53.471 35.6923 53.5249 35.6454 54.3044 35.6467C55.1474 35.6479 55.1502 35.6513 54.6139 36.0202ZM57.127 36.3735C57.2007 37.0195 57.1573 37.1023 56.8239 36.9521C56.61 36.8559 56.1059 36.771 55.7037 36.7636C55.1119 36.7529 55.0342 36.6898 55.2962 36.4342C55.4743 36.2605 55.5741 35.9939 55.518 35.8416C55.4619 35.6896 55.7816 35.5774 56.2284 35.5924C56.9405 35.6163 57.0517 35.7129 57.127 36.3735ZM62.4989 36.3285C62.6889 36.7636 62.7926 36.8071 62.9624 36.5225C63.2668 36.0122 63.6564 36.0643 63.6564 36.6156C63.6564 36.9739 63.4242 37.0701 62.6052 37.0511C62.0269 37.0379 61.6569 36.9573 61.7825 36.8724C62.32 36.5087 61.9373 36.156 61.0055 36.156C59.9179 36.156 59.6254 36.6521 60.5942 36.8537C60.9636 36.9303 60.7949 36.9956 60.1479 37.0263C59.564 37.0538 59.0535 36.9291 58.9846 36.7422C58.8961 36.5022 58.8062 36.5022 58.663 36.7422C58.5537 36.9254 58.3409 37.0753 58.1901 37.0753C57.9873 37.0753 57.9694 36.9855 58.121 36.7315C58.2338 36.5424 58.2806 36.1888 58.2248 35.9454C58.1393 35.5716 58.4429 35.5238 60.189 35.6356C61.9222 35.7466 62.2938 35.8578 62.4989 36.3285ZM66.5806 36.2326C66.582 36.5749 65.3412 36.5108 65.2125 36.1618C65.1456 35.9807 65.3948 35.8894 65.8407 35.932C66.2471 35.9709 66.58 36.1063 66.5806 36.2326ZM73.163 36.1379C73.163 36.2966 73.0809 36.5111 72.9807 36.615C72.6617 36.9454 67.7234 36.7937 67.3128 36.441C67.104 36.2617 69.3686 35.9461 71.1977 35.8995C72.3249 35.871 73.163 35.9724 73.163 36.1379ZM81.1804 36.3156C81.373 36.6386 81.0271 36.748 79.322 36.9034C77.5735 37.063 75.7225 36.6726 75.7225 36.1443C75.7225 35.875 81.0167 36.0414 81.1804 36.3156ZM87.6971 36.4514C86.5178 36.6279 85.6311 36.4979 85.9247 36.1915C86.0241 36.0876 86.7104 36.0668 87.4498 36.1449L88.794 36.2871L87.6971 36.4514ZM90.8965 36.156C90.8965 36.3245 90.8603 36.4624 90.8158 36.4624C90.7714 36.4624 90.6844 36.3245 90.6222 36.156C90.5601 35.9874 90.5965 35.8495 90.7029 35.8495C90.8093 35.8495 90.8965 35.9874 90.8965 36.156ZM95.0099 36.156C94.9477 36.3245 95.0253 36.4624 95.1819 36.4624C95.3386 36.4624 95.4669 36.3245 95.4669 36.156C95.4669 35.9874 95.3896 35.8495 95.2949 35.8495C95.2002 35.8495 95.0721 35.9874 95.0099 36.156ZM132.911 36.0588C133.043 36.1474 133.2 36.1364 133.261 36.0346C133.322 35.9329 133.214 35.8606 133.021 35.8737C132.808 35.8884 132.765 35.9611 132.911 36.0588ZM90.0844 36.4336C90.0281 36.5862 89.8175 36.6392 89.6166 36.551C89.1134 36.3306 89.1588 36.156 89.7189 36.156C89.9762 36.156 90.1407 36.281 90.0844 36.4336ZM99.5347 36.3588C99.4091 36.444 99.2034 36.444 99.0776 36.3588C98.952 36.2739 99.0548 36.2044 99.3062 36.2044C99.5575 36.2044 99.6605 36.2739 99.5347 36.3588ZM107.944 36.3588C107.819 36.444 107.613 36.444 107.487 36.3588C107.362 36.2739 107.464 36.2044 107.716 36.2044C107.967 36.2044 108.07 36.2739 107.944 36.3588ZM131.574 37.6882C131.636 37.8567 131.723 37.9946 131.767 37.9946C131.812 37.9946 131.848 37.8567 131.848 37.6882C131.848 37.5196 131.761 37.3817 131.654 37.3817C131.548 37.3817 131.512 37.5196 131.574 37.6882ZM136.384 37.591C136.516 37.6796 136.674 37.6686 136.735 37.5668C136.795 37.4651 136.687 37.3928 136.495 37.4059C136.282 37.4206 136.238 37.4933 136.384 37.591ZM61.645 41.442C61.6452 41.5683 59.9793 41.6461 57.9433 41.6149C55.3805 41.5753 54.7194 41.5046 55.7951 41.385C58.0274 41.1368 61.6446 41.1721 61.645 41.442ZM63.4736 41.5545C63.4736 41.6189 63.0829 41.6556 62.6052 41.6357C61.8583 41.6045 61.8136 41.5701 62.2852 41.3906C62.7977 41.1954 63.4736 41.2888 63.4736 41.5545ZM54.0127 41.5683C53.8871 41.6535 53.6814 41.6535 53.5556 41.5683C53.43 41.4834 53.5328 41.4138 53.7841 41.4138C54.0355 41.4138 54.1384 41.4834 54.0127 41.5683ZM37.4669 42.2216C37.5936 42.3614 36.8435 42.4836 35.7781 42.4968C34.7237 42.51 33.8943 42.4309 33.9349 42.3209C34.0457 42.0206 37.2041 41.932 37.4669 42.2216ZM121.027 42.494C121.159 42.5826 121.317 42.5716 121.378 42.4698C121.438 42.3681 121.331 42.2958 121.138 42.309C120.925 42.3237 120.882 42.3963 121.027 42.494ZM107.666 42.7763C107.606 42.878 107.448 42.889 107.316 42.8005C107.17 42.7027 107.213 42.6301 107.426 42.6154C107.619 42.6022 107.727 42.6745 107.666 42.7763ZM44.1304 43.4327C45.2057 43.4866 47.0156 43.4869 48.1524 43.433C49.2891 43.379 48.4092 43.3349 46.1971 43.3346C43.985 43.3343 43.055 43.3784 44.1304 43.4327ZM60.5152 43.5773C60.6126 43.7406 60.8452 43.8203 61.0318 43.7538C61.2832 43.6646 61.2371 43.5874 60.8545 43.4569C60.5208 43.3426 60.4007 43.3855 60.5152 43.5773ZM117.188 43.4134C117.32 43.5019 117.478 43.4909 117.539 43.3892C117.599 43.2874 117.491 43.2151 117.299 43.2283C117.086 43.243 117.042 43.3156 117.188 43.4134ZM61.9675 43.7272C62.1949 43.8004 62.524 43.7976 62.6988 43.721C62.8735 43.6444 62.6874 43.5844 62.2852 43.5877C61.883 43.5911 61.7401 43.6539 61.9675 43.7272ZM64.527 43.7272C64.7544 43.8004 65.0835 43.7976 65.2582 43.721C65.433 43.6444 65.2469 43.5844 64.8447 43.5877C64.4425 43.5911 64.2995 43.6539 64.527 43.7272ZM70.1955 43.7327C70.524 43.8007 71.0176 43.7995 71.2924 43.7296C71.5672 43.6594 71.2982 43.6037 70.6949 43.6055C70.0916 43.607 69.8669 43.6643 70.1955 43.7327ZM72.8456 43.7305C73.1235 43.8007 73.5348 43.7989 73.7597 43.7262C73.9846 43.6536 73.7571 43.596 73.2544 43.5981C72.7516 43.6006 72.5677 43.66 72.8456 43.7305ZM96.7924 43.7216C96.9683 43.7989 97.2564 43.7989 97.4323 43.7216C97.6081 43.6447 97.4642 43.5816 97.1123 43.5816C96.7604 43.5816 96.6165 43.6447 96.7924 43.7216ZM99.8089 43.7134C99.9347 43.7986 100.14 43.7986 100.266 43.7134C100.392 43.6285 100.289 43.5589 100.037 43.5589C99.7861 43.5589 99.6833 43.6285 99.8089 43.7134Z" fill="#735C00"/>
</svg>
