<svg width="651" height="35" viewBox="0 0 651 35" fill="none" xmlns="http://www.w3.org/2000/svg">
<path fill-rule="evenodd" clip-rule="evenodd" d="M469.564 0.13424C462.926 0.23078 457.121 0.344401 456.664 0.386978C456.206 0.429308 459.015 0.534017 462.906 0.619419C469.96 0.774379 469.949 0.774874 459.16 0.851117C453.21 0.893198 444.408 1.01524 439.602 1.12217C433.555 1.25683 436.633 1.28134 449.589 1.20163C479.2 1.01969 509.606 0.85879 513.516 0.862999C515.698 0.865474 516.9 0.769923 516.587 0.619419C516.25 0.456785 523.531 0.371878 537.81 0.371878C553.241 0.371878 559.386 0.449853 558.989 0.640707C558.637 0.810024 559.158 0.888247 560.397 0.851611C561.478 0.819431 562.924 0.859286 563.611 0.940231C564.298 1.02093 570.477 1.20609 577.344 1.35164C584.21 1.4972 591.233 1.71454 592.949 1.83459C594.666 1.9544 596.07 1.96035 596.07 1.84771C596.07 1.56651 593.866 1.40288 581.089 0.734772C579.487 0.651104 576.49 0.467429 574.431 0.326826C569.993 0.0238367 487.586 -0.12741 469.564 0.13424ZM216.136 0.394899C212.224 0.532779 212.337 0.543918 218.009 0.580554C223.983 0.618923 225.788 0.514214 222.17 0.338955C221.14 0.288952 218.425 0.314201 216.136 0.394899ZM206.981 0.516689C206.065 0.559019 202.04 0.665213 198.034 0.752595C194.029 0.839977 190.752 0.993452 190.752 1.09395C190.752 1.19421 191.968 1.23208 193.456 1.17787C195.53 1.10237 195.87 1.14024 194.913 1.34075C193.964 1.53928 194.563 1.59597 197.41 1.57641C200.825 1.55314 200.935 1.53433 198.658 1.36204L196.161 1.17317L199.213 1.14371C200.891 1.12762 202.389 1.21376 202.542 1.3353C202.7 1.46081 205.87 1.47616 209.894 1.3707C217.524 1.17119 217.392 1.07588 209.478 1.07069C206.731 1.0687 205.42 1.01276 206.565 0.946172C208.531 0.831808 211.192 0.330787 209.436 0.405544C209.002 0.42411 207.896 0.474112 206.981 0.516689ZM493.943 0.55481C491.101 0.603081 486.232 0.603329 483.123 0.555553C480.014 0.508026 482.339 0.468419 488.29 0.468171C494.241 0.467676 496.784 0.506787 493.943 0.55481ZM505.56 0.53575C504.988 0.604566 504.052 0.604566 503.479 0.53575C502.907 0.467181 503.375 0.41099 504.519 0.41099C505.664 0.41099 506.132 0.467181 505.56 0.53575ZM568.813 0.78329C568.241 0.852106 567.305 0.852106 566.732 0.78329C566.16 0.714721 566.628 0.65853 567.772 0.65853C568.917 0.65853 569.385 0.714721 568.813 0.78329ZM574.654 0.781805C574.091 0.849631 572.967 0.85384 572.158 0.790964C571.348 0.728089 571.809 0.67264 573.182 0.667689C574.555 0.662738 575.218 0.713979 574.654 0.781805ZM218.425 1.03751C219.225 1.09989 220.537 1.09989 221.338 1.03751C222.138 0.975381 221.483 0.924388 219.881 0.924388C218.279 0.924388 217.624 0.975381 218.425 1.03751ZM226.331 1.03083C226.904 1.09965 227.84 1.09965 228.412 1.03083C228.985 0.962262 228.516 0.906071 227.372 0.906071C226.227 0.906071 225.76 0.962262 226.331 1.03083ZM66.9971 1.43977C66.7574 1.55512 62.3888 1.62666 57.2886 1.59869C48.0345 1.54844 31.8259 1.91282 29.0977 2.23264C28.1847 2.33958 27.7211 2.62969 27.831 3.02502C28.0183 3.69783 28.1473 3.72184 32.8272 3.95305C36.6573 4.14241 36.9661 4.54293 33.2433 4.49268C30.7648 4.45927 30.5584 4.51323 30.7781 5.13703C30.9878 5.73311 30.729 5.81826 28.6974 5.82148C25.7869 5.82643 24.7616 6.04649 24.5319 6.71584C24.3829 7.15127 24.923 7.26959 27.6529 7.3993C32.0715 7.60946 31.8326 7.95181 27.1577 8.1085C23.4649 8.23227 18.8732 9.12392 19.7521 9.54671C19.9702 9.65192 19.0247 9.81158 17.6506 9.90144C15.4909 10.0425 15.3128 10.1123 16.3356 10.4166C16.9865 10.6101 18.0143 10.7703 18.6194 10.7723C19.4483 10.7753 19.4192 10.8324 18.5012 11.0052C17.6481 11.1656 18.621 11.257 21.7546 11.3107C26.1715 11.3864 26.2256 11.3968 26.3005 12.1919C26.3429 12.6345 26.0957 12.9964 25.7528 12.9964C25.4099 12.9964 25.1286 13.2192 25.1286 13.4915C25.1286 13.8584 24.536 13.9953 22.8399 14.0203C20.8449 14.0497 20.7941 14.0678 22.4454 14.1621C24.8581 14.2997 29.2467 14.9733 27.7445 14.9753C27.1094 14.976 26.8148 15.1312 27.0711 15.33C27.7486 15.855 26.1007 16.1382 20.6235 16.4382C15.7231 16.7066 13.6116 16.9571 16.2507 16.9571C17.0139 16.9571 17.6381 17.1242 17.6381 17.3284C17.6381 17.6173 16.5287 17.6997 12.6445 17.6997C7.25965 17.6997 5.58512 18.1725 10.7719 18.2285C12.7036 18.2492 13.1796 18.303 12.0203 18.3695C10.9899 18.4285 10.1477 18.5728 10.1477 18.6904C10.1477 18.8079 9.39278 18.9753 8.47062 19.0624C7.54845 19.1493 7.00081 19.3199 7.25216 19.4409C7.50434 19.5622 6.47981 19.7669 4.97589 19.8959C2.61305 20.0986 3.08995 20.1345 8.4831 20.1603C14.8925 20.191 15.1305 20.4516 9.04655 20.7769C6.34915 20.9209 6.02039 21.0031 6.89179 21.3153C7.71907 21.6118 8.05947 21.621 8.63374 21.3626C9.18804 21.1128 9.62498 21.1499 10.5971 21.5292C11.7431 21.976 11.689 22.0371 9.95706 22.2599C8.33911 22.4678 8.72696 22.5223 12.6445 22.6386C16.7526 22.7604 17.0406 22.8052 15.4534 23.0758C14.4813 23.2416 12.0469 23.4516 10.0436 23.5422C3.81736 23.8239 3.45865 24.1189 9.31538 24.1414L14.7252 24.162L7.65082 24.9534L0.576479 25.7448L4.73786 25.8685L8.89924 25.9923L3.99547 26.3272C0.56899 26.5614 -0.558743 26.728 0.250229 26.8805C0.887752 27.0005 2.1578 27.1082 3.07331 27.1199C4.72621 27.1409 4.72621 27.1424 3.08829 27.3327C1.89148 27.4716 2.92017 27.583 6.83353 27.7382C11.7215 27.9318 11.9154 27.9603 8.89924 28.0407C7.06823 28.0895 5.21475 28.2335 4.77947 28.3605C4.28926 28.5036 7.76818 28.5989 13.9345 28.611C21.6156 28.6261 23.3592 28.6873 21.5914 28.8791C20.2648 29.0234 19.3027 29.3131 19.3027 29.5685C19.3027 29.926 17.8479 30.0973 11.615 30.4735C7.38699 30.7287 4.63299 30.978 5.49439 31.0273C6.7478 31.0991 6.82854 31.1607 5.89889 31.3357C5.04497 31.4966 5.28799 31.5563 6.81855 31.562C7.96293 31.5662 9.4502 31.6734 10.1243 31.8001C11.486 32.0561 11.1322 32.1187 6.70203 32.4056C5.49357 32.4838 4.30175 32.7056 4.0529 32.8987C3.67338 33.1923 5.11155 33.2309 12.9083 33.1353C19.7871 33.0512 21.8902 33.0923 20.9672 33.2928C19.9144 33.5217 19.9802 33.5581 21.3834 33.525C24.1648 33.4586 24.7741 33.5378 23.4641 33.7953C22.6151 33.9621 23.8128 33.9839 27.2093 33.8636C33.4264 33.643 33.1085 33.6406 47.1839 34.0228C55.8096 34.2569 68.4544 34.2951 95.8721 34.17C118.631 34.0661 139.967 34.1017 151.218 34.2621C188.3 34.7916 191.989 34.8288 191.459 34.6659C191.162 34.5745 187.042 34.4394 182.304 34.3656C177.567 34.2921 173.334 34.1322 172.899 34.0109C171.816 33.7081 243.481 33.7317 268.757 34.0423C283.255 34.2205 392.765 34.5693 430.863 34.5587C439.363 34.5562 476.435 34.2433 478.136 34.1597C479.54 34.0903 480.265 34.1416 479.96 34.2886C479.681 34.4228 479.828 34.5324 480.285 34.5324C480.743 34.5324 481.349 34.4211 481.632 34.2849C482.306 33.9604 485.377 33.9641 485.377 34.2894C485.377 34.5693 505.038 34.5859 519.396 34.3183C525.97 34.1958 528.126 34.2317 528.432 34.4686C528.653 34.6399 529.377 34.78 530.042 34.78C530.707 34.78 531.019 34.6686 530.736 34.5324C530.453 34.3963 530.899 34.2658 531.727 34.2426C532.555 34.2193 533.795 34.1755 534.481 34.145C535.168 34.1148 537.79 34.0765 540.307 34.0599C543.096 34.0416 544.459 33.9492 543.793 33.824C542.713 33.6203 548.617 33.4306 565.276 33.1346C573.651 32.9858 577.44 32.5794 571.06 32.5145C569.023 32.4937 566.982 32.4509 566.524 32.4192C566.066 32.3875 562.134 32.3335 557.785 32.2994L549.878 32.2368L555.288 32.0442C558.264 31.9382 564.38 31.8167 568.88 31.7744C573.38 31.7318 577.241 31.611 577.46 31.5058C577.679 31.4006 578.607 31.3144 579.522 31.3144C580.438 31.3144 580.986 31.2176 580.74 31.0991C580.491 30.9795 578.712 30.9748 576.738 31.0884C572.753 31.3176 568.955 31.3753 569.553 31.1976C570.354 30.959 587.597 30.0752 588.791 30.2114C589.488 30.2908 590.246 30.1842 590.527 29.9671C590.88 29.6935 592.299 29.57 595.42 29.5413L599.815 29.5009L595.238 29.3549C591.636 29.2398 591.138 29.1772 592.901 29.0611C594.133 28.9796 596.942 28.996 599.143 29.097C601.343 29.198 603.229 29.2581 603.333 29.2306C603.437 29.2029 602.925 28.9271 602.196 28.6175C601.318 28.2447 600.592 28.1377 600.044 28.3006C599.495 28.4638 598.334 28.4595 596.602 28.2877C591.953 27.8271 592.687 27.7234 599.961 27.8137C605.035 27.8766 606.933 27.8229 606.529 27.6281C606.178 27.4592 606.699 27.3451 607.881 27.3315C609.592 27.3117 601.413 26.8174 594.821 26.5421C593.448 26.4847 595.134 26.4193 598.567 26.397C602 26.3745 605.371 26.248 606.057 26.1161C607.092 25.9171 607.022 25.8747 605.641 25.8685C604.725 25.8643 603.415 25.7433 602.728 25.5995C601.815 25.4084 602.542 25.3801 605.43 25.4948C610.596 25.6992 611.687 25.4831 609.304 24.7286C608.249 24.3944 607.88 24.1358 608.458 24.1358C609.023 24.1358 609.253 24.0244 608.97 23.8882C608.687 23.7521 606.886 23.6389 604.968 23.637C603.049 23.6347 600.918 23.5169 600.231 23.3748C599.333 23.1892 600.208 23.1619 603.352 23.2783C607.798 23.4424 609.48 23.1127 605.849 22.7886C604.023 22.6258 604.017 22.6159 605.641 22.3839C606.96 22.1958 606.696 22.1678 604.371 22.25C601.02 22.3686 597.501 21.8349 599.858 21.5658C600.597 21.4816 601.872 21.4128 602.694 21.4128C603.516 21.4128 604.655 21.2457 605.225 21.0415C606.039 20.7499 606.041 20.6702 605.237 20.6702C604.67 20.6702 604.428 20.5048 604.694 20.2989C605.001 20.0603 604.661 19.9214 603.743 19.9102C602.556 19.8956 602.596 19.8583 603.976 19.6899C605.523 19.5013 605.475 19.4676 603.298 19.2122C602.01 19.0612 600.418 18.9374 599.761 18.9374C599.104 18.9374 598.567 18.826 598.567 18.6899C598.567 18.5537 600.72 18.4314 603.352 18.4183L608.138 18.3943L605.017 18.0133C601.633 17.6004 601.019 17.114 603.404 16.7345C604.233 16.6026 609.102 16.4157 614.223 16.3192C619.344 16.2229 623.535 16.0578 623.535 15.9523C623.535 15.8469 622.505 15.6488 621.246 15.5119C619.33 15.304 619.941 15.2602 624.991 15.2439C628.415 15.2327 631.025 15.1171 631.025 14.9768C631.025 14.8406 630.254 14.7292 629.312 14.7292C628.37 14.7292 627.819 14.6228 628.09 14.4926C628.36 14.3624 629.132 14.3185 629.804 14.3953C630.475 14.4718 631.025 14.4299 631.025 14.3022C631.025 14.1742 629.246 13.9455 627.072 13.7938C623.716 13.5596 625.005 13.5299 635.603 13.5967L648.087 13.6757L637.267 13.2232C618.335 12.4313 618.674 12.4518 621.038 12.2412C622.963 12.0696 622.982 12.0538 621.295 12.031C618.758 11.9966 618.113 11.5696 620.401 11.4389C621.45 11.3788 620.748 11.3161 618.818 11.2973C616.912 11.2788 615.226 11.1537 615.073 11.0196C614.921 10.8854 610.489 10.6844 605.225 10.5733C595.85 10.3752 595.726 10.3648 599.166 10.067C601.407 9.87322 607.246 9.78312 615.29 9.81802C626.933 9.86877 627.993 9.83584 629.082 9.3925C630.119 8.96995 631.513 8.90212 640.631 8.82984C648.899 8.76449 651 8.67661 651 8.39664C651 8.20356 650.675 8.04563 650.277 8.04563C649.107 8.04563 634.904 7.29979 633.314 7.15498C630.307 6.8807 632.025 6.5594 636.643 6.53192C641.378 6.5037 641.393 6.50123 638.1 6.29874C636.269 6.18611 631.774 6.07917 628.112 6.06135C621.591 6.02917 612.746 5.69276 615.212 5.57023C617.561 5.45363 608.978 5.11178 603.24 5.09346C598.239 5.07737 597.263 4.99643 595.58 4.45629L593.652 3.83744L597.15 3.81517L600.647 3.79289L597.802 3.54955C596.236 3.41588 594.27 3.35994 593.432 3.42504C592.594 3.49014 591.908 3.45079 591.908 3.33741C591.908 3.22404 591.253 3.08022 590.452 3.01784C589.651 2.9557 590.681 2.87773 592.741 2.84505L596.486 2.7854L592.741 2.59776C580.5 1.98485 493.446 1.64646 465.402 2.10293C457.392 2.23338 447.03 2.34279 442.376 2.34601C436.404 2.35047 433.79 2.4433 433.492 2.66163C433.174 2.89456 432.899 2.89976 432.376 2.68193C431.789 2.43785 414.506 2.15689 412.969 2.36631C411.467 2.57103 192.225 2.54404 177.435 2.33735C167.593 2.19972 156.358 2.04377 152.467 1.99079C148.576 1.93782 136.995 1.83633 126.732 1.76578C116.468 1.69498 104.296 1.56725 99.6831 1.4821C86.3433 1.23555 67.4723 1.21104 66.9971 1.43977ZM489.383 1.28357C489.983 1.35511 490.701 1.3462 490.978 1.26401C491.254 1.18183 490.763 1.12341 489.886 1.13405C488.916 1.14594 488.719 1.2046 489.383 1.28357ZM466.911 1.53111C467.511 1.60265 468.23 1.59374 468.506 1.51155C468.782 1.42937 468.291 1.37095 467.414 1.3816C466.444 1.39348 466.247 1.45214 466.911 1.53111ZM473.57 1.53111C474.17 1.60265 474.888 1.59374 475.164 1.51155C475.441 1.42937 474.95 1.37095 474.072 1.3816C473.103 1.39348 472.905 1.45214 473.57 1.53111ZM206.357 2.03188C207.387 2.0908 209.072 2.0908 210.102 2.03188C211.132 1.97272 210.289 1.92445 208.229 1.92445C206.169 1.92445 205.326 1.97272 206.357 2.03188ZM374.908 3.00967C374.345 3.07749 373.221 3.0817 372.411 3.01883C371.602 2.95595 372.063 2.9005 373.436 2.89555C374.809 2.8906 375.472 2.94184 374.908 3.00967ZM588.354 2.9968C588.077 3.07898 587.359 3.08789 586.759 3.01635C586.095 2.93739 586.292 2.87872 587.262 2.86684C588.139 2.85619 588.63 2.91461 588.354 2.9968ZM464.331 3.43643C464.615 3.52084 461.883 3.60253 458.259 3.61812C454.635 3.63347 442.12 3.70278 430.447 3.77185C418.774 3.84116 377.457 3.98349 338.631 4.0887C299.805 4.1939 265.996 4.35555 263.5 4.44837C258.914 4.61868 253.425 4.42213 254.431 4.12335C255.011 3.95131 262.889 3.90527 307.062 3.8169C323.921 3.78298 334.735 3.66912 334.735 3.52529C334.735 3.39558 335.262 3.34954 335.906 3.42306C337.686 3.62604 365.402 3.59164 385.504 3.36142C405.157 3.13616 463.509 3.19186 464.331 3.43643ZM486.07 3.21884C485.472 3.39682 471.206 3.41836 470.614 3.24211C470.341 3.16116 473.802 3.09482 478.303 3.09482C482.804 3.09482 486.299 3.15052 486.07 3.21884ZM489.313 3.24434C489.037 3.32652 488.318 3.33543 487.718 3.26389C487.054 3.18493 487.251 3.12626 488.221 3.11438C489.098 3.10373 489.589 3.16215 489.313 3.24434ZM426.087 3.51737C427.123 3.57654 428.621 3.57431 429.417 3.51242C430.212 3.45054 429.365 3.40202 427.534 3.40474C425.703 3.40747 425.052 3.45821 426.087 3.51737ZM539.761 3.52802C539.973 3.63 534.97 3.71367 528.645 3.71367C522.319 3.71367 516.863 3.63 516.519 3.52802C516.175 3.42603 521.177 3.34236 527.635 3.34236C534.094 3.34236 539.55 3.42603 539.761 3.52802ZM544.053 3.5899C541.78 3.88052 541.14 3.88052 541.14 3.5899C541.14 3.45376 542.169 3.35028 543.428 3.35969C545.457 3.37529 545.527 3.40128 544.053 3.5899ZM392.007 3.75897C392.607 3.83051 393.325 3.8216 393.601 3.73942C393.878 3.65723 393.387 3.59882 392.509 3.60946C391.54 3.62134 391.342 3.68001 392.007 3.75897ZM396.963 3.76937C398.458 3.82432 400.706 3.82333 401.956 3.76689C403.207 3.71021 401.983 3.66515 399.237 3.66664C396.49 3.66788 395.467 3.71417 396.963 3.76937ZM228.957 4.34713C228.358 4.45728 227.528 4.48501 227.114 4.40901C226.701 4.33302 226.852 4.18053 227.451 4.07038C228.05 3.96022 228.88 3.9325 229.293 4.00849C229.707 4.08449 229.556 4.23697 228.957 4.34713ZM244.017 4.1387C244.017 4.24539 241.302 4.31941 237.983 4.30332C233.505 4.28153 232.593 4.22633 234.446 4.08919C237.641 3.85254 244.017 3.88571 244.017 4.1387ZM252.34 3.9674C252.34 4.23178 247.846 4.59442 246.579 4.43228C245.542 4.2996 245.703 4.2246 247.346 4.07558C249.888 3.84487 252.34 3.7919 252.34 3.9674ZM225.262 4.34663C224.995 4.47486 221.896 4.57833 218.376 4.57635C214.855 4.57412 212.412 4.4907 212.947 4.3907C214.429 4.1137 225.83 4.07285 225.262 4.34663ZM491.427 4.24737C490.863 4.3152 489.74 4.3194 488.93 4.25653C488.12 4.19365 488.581 4.1382 489.955 4.13325C491.328 4.1283 491.99 4.17954 491.427 4.24737ZM549.67 4.50729C548.641 4.5662 546.955 4.5662 545.925 4.50729C544.896 4.44813 545.738 4.39986 547.798 4.39986C549.858 4.39986 550.7 4.44813 549.67 4.50729ZM33.4514 7.79809C33.4514 7.93424 33.2866 8.04563 33.0843 8.04563C32.8821 8.04563 32.4859 7.93424 32.203 7.79809C31.92 7.66194 32.0856 7.55055 32.57 7.55055C33.0544 7.55055 33.4514 7.66194 33.4514 7.79809ZM10.8243 16.8786C11.4244 16.9502 12.1426 16.9412 12.4189 16.8591C12.6953 16.7769 12.2042 16.7185 11.327 16.7291C10.3574 16.741 10.1601 16.7996 10.8243 16.8786ZM602.502 21.0672C602.226 21.1494 601.508 21.1583 600.908 21.0868C600.244 21.0078 600.441 20.9492 601.411 20.9373C602.288 20.9266 602.779 20.9851 602.502 21.0672ZM17.6381 21.6604C17.6381 21.7965 17.2411 21.9079 16.7567 21.9079C16.2724 21.9079 16.1067 21.7965 16.3897 21.6604C16.6727 21.5242 17.0689 21.4128 17.2711 21.4128C17.4733 21.4128 17.6381 21.5242 17.6381 21.6604ZM265.274 25.39C266.17 25.821 265.15 25.9124 264.008 25.5032C263.352 25.268 263.288 25.1259 263.841 25.1259C264.327 25.1259 264.973 25.2447 265.274 25.39ZM318.051 25.9995C318.545 25.9086 318.734 25.7307 318.47 25.6039C318.195 25.4715 320.107 25.3735 322.965 25.3735C325.837 25.3735 328.067 25.4883 328.243 25.6453C328.411 25.7948 330.307 25.9762 332.457 26.0483C337.814 26.228 336.593 26.6092 330.962 26.5149C327.574 26.4582 326.412 26.524 326.412 26.7726C326.412 27.1929 323.367 27.2134 322.802 26.7968C322.559 26.6173 322.355 26.6755 322.317 26.9352C322.281 27.1815 321.943 27.3265 321.567 27.2572C321.191 27.1882 320.259 27.3486 319.495 27.6139C317.865 28.1803 313.928 28.2697 313.928 27.7407C313.928 27.4699 313.206 27.4199 310.904 27.5308C308.53 27.6454 307.967 27.6021 308.288 27.3298C308.514 27.1387 309.229 26.9939 309.878 27.0077C310.528 27.0216 311.571 26.8698 312.197 26.6708C313.185 26.3562 312.965 26.3309 310.51 26.4785C308.957 26.5718 307.062 26.7 306.3 26.7634C305.537 26.827 304.694 26.7733 304.426 26.6446C304.158 26.5156 305.833 26.3327 308.147 26.2381C310.462 26.1433 312.803 25.9205 313.35 25.7428C314.166 25.4779 314.597 25.4868 315.749 25.792C316.521 25.997 317.557 26.0903 318.051 25.9995ZM435.441 25.7168C435.441 25.92 430.35 26.0223 429.945 25.8272C429.71 25.7138 430.85 25.621 432.478 25.621C434.107 25.621 435.441 25.6641 435.441 25.7168ZM283.465 27.2072C282.75 27.7615 281.702 27.4845 281.953 26.8072C282.265 25.9651 282.285 25.9581 283.161 26.4042C283.605 26.6307 283.742 26.9921 283.465 27.2072ZM342.45 26.2785C341.886 26.3463 340.763 26.3505 339.953 26.2876C339.143 26.2247 339.604 26.1693 340.977 26.1644C342.351 26.1594 343.013 26.2106 342.45 26.2785ZM370.523 26.3762C365.186 26.6587 346.21 26.6495 344.723 26.3636C343.894 26.2044 348.659 26.1329 358.871 26.1507C369.402 26.1695 373.085 26.2406 370.523 26.3762ZM387.793 26.2933C386.534 26.35 384.475 26.35 383.215 26.2933C381.956 26.2366 382.986 26.1903 385.504 26.1903C388.022 26.1903 389.052 26.2366 387.793 26.2933ZM395.699 26.2799C395.128 26.3488 394.191 26.3488 393.619 26.2799C393.047 26.2114 393.515 26.1552 394.659 26.1552C395.803 26.1552 396.272 26.2114 395.699 26.2799ZM404.022 26.2799C403.45 26.3488 402.514 26.3488 401.941 26.2799C401.37 26.2114 401.837 26.1552 402.982 26.1552C404.126 26.1552 404.595 26.2114 404.022 26.2799ZM262.327 26.4847C262.327 26.8451 259.224 27.6001 257.773 27.5931C256.15 27.5852 256.158 27.5667 257.989 27.1127L259.893 26.6406L256.325 26.5453C253.191 26.4616 253.339 26.4448 257.542 26.4069C260.174 26.3832 262.327 26.4181 262.327 26.4847ZM266.263 26.5131C265.987 26.5953 265.268 26.6042 264.668 26.5327C264.004 26.4537 264.202 26.3951 265.171 26.3832C266.048 26.3725 266.539 26.431 266.263 26.5131ZM317.257 26.6112C317.257 26.7473 317.654 26.8587 318.139 26.8587C318.623 26.8587 318.789 26.7473 318.506 26.6112C318.223 26.475 317.827 26.3636 317.624 26.3636C317.422 26.3636 317.257 26.475 317.257 26.6112ZM577.534 26.5131C577.258 26.5953 576.54 26.6042 575.94 26.5327C575.275 26.4537 575.473 26.3951 576.442 26.3832C577.319 26.3725 577.81 26.431 577.534 26.5131ZM583.794 26.5275C583.222 26.5963 582.286 26.5963 581.713 26.5275C581.141 26.4589 581.609 26.4027 582.753 26.4027C583.898 26.4027 584.366 26.4589 583.794 26.5275ZM226.314 26.7607C226.038 26.8429 225.319 26.8518 224.719 26.7802C224.055 26.7013 224.252 26.6426 225.222 26.6307C226.099 26.6201 226.59 26.6785 226.314 26.7607ZM249.652 26.9052C249.471 27.0669 248.826 27.2483 248.218 27.3085C247.598 27.3701 247.353 27.3035 247.659 27.156C247.965 27.009 247.377 26.8468 246.318 26.7864C244.976 26.7097 245.232 26.6688 247.207 26.6448C249.017 26.6228 249.867 26.7134 249.652 26.9052ZM276.06 27.1062C275.757 27.3902 275.91 27.6013 276.42 27.6013C276.909 27.6013 277.308 27.6941 277.308 27.8075C277.308 28.1291 273.924 27.9754 273.186 27.6201C272.675 27.3743 272.123 27.3669 270.739 27.5872C269.755 27.7437 268.546 27.7974 268.051 27.7063C267.052 27.5226 272.669 26.6631 275.075 26.6312C276.22 26.6161 276.459 26.7317 276.06 27.1062ZM433.36 26.8587C433.643 26.9948 433.477 27.1062 432.993 27.1062C432.508 27.1062 432.111 26.9948 432.111 26.8587C432.111 26.7226 432.276 26.6112 432.478 26.6112C432.681 26.6112 433.077 26.7226 433.36 26.8587ZM441.267 26.7203C441.267 26.7805 440.892 26.8983 440.434 26.9825C439.976 27.0666 439.602 27.0174 439.602 26.8733C439.602 26.7292 439.976 26.6112 440.434 26.6112C440.892 26.6112 441.267 26.6602 441.267 26.7203ZM563.003 26.7735C562.439 26.8414 561.316 26.8456 560.506 26.7827C559.696 26.7198 560.157 26.6644 561.53 26.6594C562.904 26.6545 563.566 26.7057 563.003 26.7735ZM567.547 26.7607C567.271 26.8429 566.552 26.8518 565.952 26.7802C565.288 26.7013 565.485 26.6426 566.455 26.6307C567.332 26.6201 567.823 26.6785 567.547 26.7607ZM238.607 27.1062C238.89 27.2424 238.725 27.3538 238.24 27.3538C237.756 27.3538 237.359 27.2424 237.359 27.1062C237.359 26.9701 237.524 26.8587 237.726 26.8587C237.928 26.8587 238.324 26.9701 238.607 27.1062ZM337.007 27.0082C336.73 27.0904 336.012 27.0993 335.412 27.0278C334.748 26.9488 334.945 26.8901 335.915 26.8783C336.792 26.8676 337.283 26.926 337.007 27.0082ZM341.168 27.0082C340.892 27.0904 340.173 27.0993 339.573 27.0278C338.909 26.9488 339.106 26.8901 340.076 26.8783C340.953 26.8676 341.444 26.926 341.168 27.0082ZM348.884 27.23C348.884 27.4342 349.258 27.6013 349.716 27.6013C350.174 27.6013 350.548 27.4622 350.547 27.2919C350.545 27.0622 352.373 27.0033 357.632 27.0627C361.918 27.1112 364.523 27.2374 364.222 27.3822C363.949 27.5137 363.064 27.559 362.256 27.4827C361.449 27.4065 359.701 27.5129 358.374 27.7189C356.235 28.0506 355.927 28.0511 355.689 27.7236C355.388 27.3102 351.764 27.2164 350.965 27.6013C350.407 27.8699 346.975 27.9412 346.167 27.7008C345.357 27.46 346.469 26.8587 347.725 26.8587C348.362 26.8587 348.884 27.0258 348.884 27.23ZM425.453 27.23C424.576 27.5444 424.759 27.6013 426.649 27.6013C427.925 27.6013 428.66 27.7073 428.366 27.8489C428.083 27.985 427.063 28.0964 426.097 28.0964C425.133 28.0964 424.611 28.1761 424.938 28.2734C425.266 28.3707 428.565 28.416 432.27 28.3744C438.288 28.3066 438.949 28.3427 438.472 28.7133C438.12 28.9861 438.293 29.089 438.977 29.0145C439.55 28.9519 439.925 28.7757 439.81 28.6224C439.695 28.4692 440.561 28.3439 441.732 28.3439C442.939 28.3439 443.639 28.4511 443.347 28.5915C443.064 28.7276 443.23 28.839 443.714 28.839C444.199 28.839 444.596 28.7276 444.596 28.5915C444.596 28.1796 447.708 28.3142 448.272 28.7507C448.56 28.9744 448.671 29.1947 448.518 29.2403C448.365 29.2856 444.549 29.3532 440.038 29.3903C434.05 29.4396 431.742 29.3745 431.488 29.1484C431.297 28.9784 430.4 28.839 429.496 28.839C428.592 28.839 428.083 28.9504 428.366 29.0866C428.667 29.2309 427.82 29.3341 426.335 29.3341C424.935 29.3341 423.789 29.2227 423.789 29.0866C423.789 28.9504 422.403 28.839 420.709 28.839C417.343 28.839 417.773 28.4432 421.292 28.3031C422.857 28.2407 423.437 28.0513 423.636 27.5394C423.797 27.1221 424.4 26.8587 425.194 26.8587C426.251 26.8587 426.299 26.927 425.453 27.23ZM508.265 27.4295C509.18 27.5006 508.15 27.5474 505.976 27.5337C503.802 27.5201 502.023 27.4107 502.023 27.2909C502.023 27.1708 502.818 27.1481 503.791 27.2399C505.144 27.3674 505.4 27.3278 504.88 27.0708C504.346 26.8067 504.456 26.7953 505.4 27.0176C506.06 27.1733 507.349 27.3585 508.265 27.4295ZM404.23 27.3538C403.947 27.4899 403.364 27.6013 402.933 27.6013C402.502 27.6013 402.15 27.4899 402.15 27.3538C402.15 27.2176 402.734 27.1062 403.447 27.1062C404.16 27.1062 404.513 27.2176 404.23 27.3538ZM315.593 27.6013C317.207 27.9115 318.09 27.9115 318.09 27.6013C318.09 27.4652 317.247 27.3555 316.217 27.3575C314.703 27.3607 314.583 27.4072 315.593 27.6013ZM393.827 27.7088C393.827 27.9098 394.819 28.1013 396.116 28.1506C397.952 28.2204 397.725 28.261 394.971 28.3563C391.842 28.4645 391.538 28.4254 391.538 27.9145C391.538 27.6038 392.048 27.3538 392.682 27.3538C393.312 27.3538 393.827 27.5134 393.827 27.7088ZM419.627 27.5644C419.627 27.6887 418.122 27.7966 416.282 27.8043C414.441 27.8117 413.104 27.7367 413.31 27.6377C413.869 27.3689 419.627 27.302 419.627 27.5644ZM160.373 27.8489C160.656 27.985 160.304 28.0964 159.59 28.0964C158.877 28.0964 158.293 27.985 158.293 27.8489C158.293 27.7127 158.645 27.6013 159.076 27.6013C159.507 27.6013 160.09 27.7127 160.373 27.8489ZM325.58 27.8635C325.58 28.0075 325.164 28.0491 324.655 27.9555C324.146 27.862 323.403 27.939 323.003 28.1266C322.428 28.3964 322.274 28.3771 322.264 28.0345C322.256 27.7652 322.88 27.6013 323.916 27.6013C324.831 27.6013 325.58 27.7194 325.58 27.8635ZM337.232 27.787C337.232 27.889 336.332 27.9726 335.23 27.9726C334.13 27.9726 333.404 27.889 333.616 27.787C333.827 27.685 334.728 27.6013 335.617 27.6013C336.505 27.6013 337.232 27.685 337.232 27.787ZM495.781 27.8489C495.498 27.985 494.446 28.0885 493.443 28.0791C491.685 28.0622 491.679 28.0541 493.284 27.8489C495.574 27.556 496.389 27.556 495.781 27.8489ZM556.953 27.8489C556.953 27.985 557.796 28.0981 558.825 28.1001C559.855 28.1023 561.26 28.212 561.946 28.3439C562.867 28.5209 562.212 28.5977 559.45 28.636C557.39 28.6648 554.394 28.7323 552.791 28.786C551.189 28.84 536.957 28.9168 521.165 28.9566C505.373 28.9965 494.699 28.946 497.445 28.8442C500.192 28.7427 504.311 28.5902 506.6 28.5056C515.394 28.1806 526.06 28.0959 526.581 28.3467C526.869 28.4858 527.49 28.5289 527.96 28.4425C528.43 28.3563 529.689 28.4249 530.759 28.5952C531.829 28.7655 533.385 28.8239 534.218 28.7249C535.049 28.6259 538.421 28.5254 541.711 28.5016C545 28.4779 547.935 28.3855 548.235 28.2964C548.534 28.2075 550.056 28.1964 551.617 28.2717C553.875 28.3806 554.456 28.3261 554.456 28.0051C554.456 27.783 555.018 27.6013 555.704 27.6013C556.391 27.6013 556.953 27.7127 556.953 27.8489ZM581.436 27.9107C581.824 28.1583 582.018 28.1583 582.406 27.9107C582.929 27.5781 589.877 27.4721 590.532 27.787C590.743 27.889 589.268 27.9335 587.252 27.8857C584.962 27.8315 583.586 27.9013 583.586 28.0714C583.586 28.4843 579.671 28.3977 579.123 27.9726C578.54 27.5211 580.733 27.4625 581.436 27.9107ZM388.417 28.0964C388.134 28.2325 386.895 28.336 385.663 28.3266C383.663 28.311 383.601 28.2863 385.088 28.0964C387.4 27.8008 389.031 27.8008 388.417 28.0964ZM466.651 28.0964C466.368 28.2325 466.908 28.3439 467.85 28.3439C468.792 28.3439 469.564 28.2325 469.564 28.0964C469.564 27.8041 471.177 27.8702 472.547 28.2187C473.804 28.5383 469.531 29.1024 467.216 28.9224C466.322 28.8529 465.338 28.917 465.031 29.065C464.723 29.2131 463.91 29.3341 463.224 29.3341C462.537 29.3341 462.225 29.214 462.529 29.0675C462.913 28.8828 461.905 28.8534 459.249 28.9717C456.923 29.0754 455.415 29.0479 455.415 28.9017C455.415 28.7692 457.562 28.5947 460.187 28.5142C462.812 28.4338 465.09 28.2511 465.25 28.1083C465.41 27.9657 465.907 27.8489 466.353 27.8489C466.8 27.8489 466.934 27.9603 466.651 28.0964ZM490.447 28.0771C489.802 28.1986 488.172 28.2566 486.824 28.2058C484.938 28.1348 484.276 28.2254 483.946 28.6001C483.711 28.8677 483.199 29.0866 482.81 29.0866C481.911 29.0866 482.879 28.2806 484.068 28.0382C484.559 27.9382 486.459 27.8565 488.29 27.8565C490.561 27.8565 491.247 27.9266 490.447 28.0771ZM197.41 28.315C197.41 28.6098 194.192 28.8452 193.66 28.5895C193.428 28.4776 193.709 28.3298 194.284 28.2608C195.988 28.0563 197.41 28.0811 197.41 28.315ZM208.229 28.3439C208.229 28.4801 207.877 28.5915 207.446 28.5915C207.015 28.5915 206.432 28.4801 206.149 28.3439C205.866 28.2078 206.219 28.0964 206.932 28.0964C207.645 28.0964 208.229 28.2078 208.229 28.3439ZM223.21 28.317C223.21 28.6912 217.133 28.7709 214.91 28.4259C212.962 28.1236 213.192 28.0994 218.009 28.0979C220.87 28.0971 223.21 28.1957 223.21 28.317ZM225.77 28.412C225.666 28.7081 224.525 28.6506 224.167 28.3316C223.984 28.1682 224.284 28.0791 224.833 28.1335C225.383 28.188 225.804 28.3132 225.77 28.412ZM233.139 29.1918C233.171 29.3178 232.503 29.2064 231.655 28.9442C230.608 28.6212 230.407 28.4108 231.03 28.2912C231.863 28.1308 232.991 28.6123 233.139 29.1918ZM240.204 28.2467C241.897 28.44 241.911 28.839 240.223 28.839C239.51 28.839 239.143 28.9437 239.409 29.0715C239.674 29.1994 239.137 29.2873 238.214 29.2665C236.488 29.2279 236.219 28.6259 237.775 28.2858C238.795 28.063 238.619 28.0657 240.204 28.2467ZM566.94 28.3439C566.94 28.4801 566.284 28.5897 565.484 28.5878C564.239 28.5846 564.209 28.5489 565.276 28.3439C566.846 28.0419 566.94 28.0419 566.94 28.3439ZM248.627 28.7294C246.498 28.9893 246.385 29.047 247.795 29.1534C249.114 29.2532 249.027 29.2821 247.339 29.3054C246.134 29.322 244.847 29.142 244.297 28.8804C243.424 28.4645 243.669 28.4266 247.218 28.4276C251.056 28.4286 251.068 28.4313 248.627 28.7294ZM260.068 29.0148C260.403 29.5366 260.206 29.6034 258.688 29.4821C257.714 29.4044 255.419 29.3358 253.588 29.3299C250.894 29.3212 250.541 29.2702 251.733 29.0638C252.544 28.9234 252.998 28.7081 252.743 28.585C252.487 28.4623 253.943 28.3717 255.977 28.3838C259.219 28.4031 259.725 28.4811 260.068 29.0148ZM284.523 28.9784C285.388 29.3299 285.86 29.365 286.633 29.1351C288.019 28.7229 289.792 28.765 289.792 29.2103C289.792 29.4997 288.735 29.5774 285.007 29.5621C282.374 29.5514 280.69 29.4863 281.262 29.4178C283.708 29.1239 281.966 28.839 277.724 28.839C272.773 28.839 271.441 29.2398 275.852 29.4027C277.534 29.4646 276.766 29.5173 273.82 29.542C271.162 29.5643 268.838 29.4636 268.524 29.3126C268.122 29.1187 267.712 29.1187 267.06 29.3126C266.563 29.4606 265.594 29.5816 264.907 29.5816C263.984 29.5816 263.903 29.5091 264.593 29.3039C265.106 29.1512 265.319 28.8655 265.065 28.669C264.676 28.367 266.058 28.3283 274.007 28.4187C281.897 28.5083 283.589 28.5982 284.523 28.9784ZM303.105 28.9009C303.111 29.1774 297.463 29.1257 296.877 28.8437C296.572 28.6974 297.706 28.6237 299.736 28.6581C301.587 28.6895 303.102 28.7989 303.105 28.9009ZM333.071 28.8244C333.071 28.9526 332.697 29.1259 332.241 29.2098C330.789 29.4767 308.307 29.3542 306.438 29.0692C305.487 28.9244 315.797 28.6695 324.124 28.6318C329.256 28.6088 333.071 28.6907 333.071 28.8244ZM369.569 28.968C370.447 29.2289 368.872 29.3173 361.109 29.4428C353.149 29.5717 344.723 29.2564 344.723 28.8296C344.723 28.612 368.824 28.7464 369.569 28.968ZM399.237 29.0777C393.868 29.2202 389.831 29.1153 391.168 28.8677C391.62 28.7838 394.745 28.767 398.111 28.8301L404.23 28.945L399.237 29.0777ZM413.801 28.839C413.801 28.9752 413.637 29.0866 413.434 29.0866C413.232 29.0866 412.836 28.9752 412.553 28.839C412.27 28.7029 412.436 28.5915 412.92 28.5915C413.404 28.5915 413.801 28.7029 413.801 28.839ZM432.528 28.839C432.245 28.9752 432.598 29.0866 433.311 29.0866C434.024 29.0866 434.608 28.9752 434.608 28.839C434.608 28.7029 434.256 28.5915 433.825 28.5915C433.394 28.5915 432.811 28.7029 432.528 28.839ZM605.069 28.7606C605.669 28.8321 606.388 28.8232 606.664 28.741C606.94 28.6588 606.449 28.6004 605.572 28.611C604.602 28.6229 604.405 28.6816 605.069 28.7606ZM410.104 29.0633C409.848 29.1866 408.889 29.2294 407.975 29.1581C405.684 28.9801 405.891 28.839 408.441 28.839C409.612 28.839 410.361 28.94 410.104 29.0633ZM453.126 29.0029C452.555 29.0717 451.618 29.0717 451.046 29.0029C450.474 28.9343 450.942 28.8781 452.086 28.8781C453.23 28.8781 453.699 28.9343 453.126 29.0029ZM491.411 29.0029C490.839 29.0717 489.903 29.0717 489.33 29.0029C488.759 28.9343 489.226 28.8781 490.371 28.8781C491.515 28.8781 491.984 28.9343 491.411 29.0029ZM598.983 30.0767C599.266 30.2129 599.662 30.3243 599.864 30.3243C600.066 30.3243 600.231 30.2129 600.231 30.0767C600.231 29.9406 599.834 29.8292 599.35 29.8292C598.865 29.8292 598.7 29.9406 598.983 30.0767ZM620.882 29.9983C621.483 30.0698 622.201 30.0609 622.477 29.9787C622.753 29.8965 622.262 29.8381 621.385 29.8487C620.416 29.8606 620.218 29.9193 620.882 29.9983ZM280.636 33.1091C280.636 33.2111 273.053 33.274 263.784 33.2487C252.117 33.2168 249.107 33.1596 254.004 33.063C264.167 32.8625 280.634 32.891 280.636 33.1091ZM288.96 33.1999C288.96 33.2519 287.181 33.2816 285.007 33.2655C281.607 33.2403 281.403 33.2126 283.55 33.0675C285.883 32.9098 288.96 32.9853 288.96 33.1999ZM245.89 33.2111C245.318 33.2799 244.382 33.2799 243.809 33.2111C243.237 33.1425 243.705 33.0863 244.849 33.0863C245.994 33.0863 246.462 33.1425 245.89 33.2111ZM170.566 33.7388C171.143 33.8517 167.728 33.9505 162.878 33.9611C158.078 33.9718 154.302 33.9079 154.487 33.819C154.991 33.5764 169.37 33.5049 170.566 33.7388ZM550.971 33.9589C551.571 34.0304 552.29 34.0215 552.566 33.9393C552.842 33.8572 552.351 33.7987 551.474 33.8094C550.504 33.8213 550.307 33.8799 550.971 33.9589ZM490.145 34.1869C489.869 34.2691 489.151 34.278 488.551 34.2064C487.886 34.1275 488.084 34.0688 489.053 34.0569C489.931 34.0463 490.422 34.1047 490.145 34.1869ZM200.901 34.7171C205.797 34.7607 214.036 34.7609 219.211 34.7174C224.386 34.6738 220.381 34.6381 210.31 34.6379C200.239 34.6376 196.006 34.6733 200.901 34.7171ZM275.492 34.834C275.936 34.9659 276.994 35.0303 277.844 34.9765C278.989 34.9045 278.779 34.8421 277.037 34.7367C275.518 34.6443 274.971 34.679 275.492 34.834ZM533.493 34.7015C534.094 34.7731 534.812 34.7641 535.088 34.682C535.364 34.5998 534.873 34.5414 533.996 34.552C533.027 34.5639 532.829 34.6226 533.493 34.7015ZM282.104 34.955C283.139 35.0142 284.637 35.0119 285.433 34.95C286.229 34.8882 285.381 34.8396 283.55 34.8424C281.719 34.8451 281.068 34.8958 282.104 34.955ZM293.756 34.955C294.791 35.0142 296.289 35.0119 297.085 34.95C297.88 34.8882 297.033 34.8396 295.202 34.8424C293.371 34.8451 292.72 34.8958 293.756 34.955ZM319.561 34.9595C321.057 35.0144 323.304 35.0134 324.555 34.957C325.806 34.9003 324.581 34.8552 321.835 34.8567C319.088 34.858 318.066 34.9043 319.561 34.9595ZM331.626 34.9577C332.891 35.0144 334.764 35.0129 335.787 34.9543C336.811 34.8956 335.776 34.8491 333.487 34.8508C331.198 34.8528 330.361 34.9008 331.626 34.9577ZM440.642 34.9505C441.443 35.0129 442.755 35.0129 443.555 34.9505C444.356 34.8884 443.701 34.8374 442.099 34.8374C440.497 34.8374 439.842 34.8884 440.642 34.9505ZM454.375 34.9439C454.947 35.0127 455.884 35.0127 456.456 34.9439C457.028 34.8753 456.56 34.8191 455.415 34.8191C454.271 34.8191 453.803 34.8753 454.375 34.9439Z" fill="#735C00"/>
</svg>
