<svg width="157" height="41" viewBox="0 0 157 41" fill="none" xmlns="http://www.w3.org/2000/svg">
<g clip-path="url(#clip0_9_32)">
<path d="M155.475 16.4769L155.473 16.447L155.474 16.4172L156.526 0.646145C155.959 0.674615 155.002 0.738099 153.756 0.823568C153.423 0.846464 153.07 0.870855 152.698 0.896459C151.174 1.00169 149.354 1.12731 147.396 1.25292C142.533 1.56506 136.807 1.87821 132.638 1.87821C129.773 1.87821 120.79 1.51252 112.241 1.14786C110.423 1.07031 108.625 0.992826 106.908 0.918875C100.535 0.644286 95.292 0.418365 94.3509 0.418365C93.6599 0.418365 90.7142 0.574466 86.5218 0.796654C83.4834 0.957683 79.7899 1.15342 75.8249 1.34961C66.4099 1.81545 55.4918 2.282 48.3078 2.282H48.2896L48.2713 2.28059L27.0587 0.630181L2.55701 1.44917L0.443604 16.7998V35.4091V40.5521L28.9316 38.719L28.941 38.7184L28.9504 38.7181C35.7968 38.5524 47.0605 38.7791 51.8913 38.8763C53.0979 38.9005 53.9031 38.9168 54.138 38.9168C55.364 38.9168 75.2324 39.9601 84.5456 40.581L118.481 39.3398C118.481 39.3398 118.483 39.3397 118.485 39.3397C118.909 39.3178 119.334 39.2958 119.756 39.2741C123.321 39.0898 126.672 38.9168 127.765 38.9168C128.096 38.9168 129.195 39.0114 130.678 39.1498C131.752 39.2501 133.049 39.3756 134.443 39.5104C134.993 39.5637 135.56 39.6185 136.133 39.6737C140.157 40.0614 144.539 40.4724 146.683 40.5795L155.509 38.983L156.555 29.1927L155.475 16.4769Z" stroke="#F2C101"/>
</g>
<defs>
<clipPath id="clip0_9_32">
<rect width="157" height="41" fill="white"/>
</clipPath>
</defs>
</svg>
