<svg width="750" height="750" viewBox="0 0 750 750" fill="none" xmlns="http://www.w3.org/2000/svg">
<path d="M605.425 535.05H550.95C530.325 535.05 523.95 518.65 486.9 481.1C454.625 449.85 440.35 445.65 432.425 445.65C421.3 445.65 418.125 448.825 418.125 464.175V513.375C418.125 526.625 413.9 534.55 378.975 534.55C308.525 529.825 247.975 491.4 212.825 435.4L212.3 434.525C171.5 383.85 141.425 322.775 126.55 255.975L126 253.05C126 245.125 129.175 237.7 144.525 237.7H199C212.75 237.7 218.05 244.05 223.375 258.85C250.325 336.65 295.325 404.9 313.85 404.9C320.725 404.9 323.9 401.725 323.9 384.275V303.8C321.775 266.75 302.2 263.6 302.2 250.375C302.425 243.3 308.225 237.65 315.325 237.65C315.55 237.65 315.75 237.65 315.975 237.675H315.95H401.675C413.325 237.675 417.55 244.025 417.55 257.775V366.275C417.55 377.9 422.85 382.15 426.025 382.15C432.9 382.15 438.75 377.9 451.425 365.225C477.775 333.05 500.3 296.25 517.475 256.575L518.625 253.575C522.25 244.5 530.95 238.2 541.125 238.2C541.6 238.2 542.05 238.225 542.525 238.25H542.45H596.925C613.325 238.25 617.05 246.675 613.325 258.35C591.475 306.475 566.925 347.825 538.475 386.125L539.775 384.275C533.975 393.8 531.85 398.025 539.775 408.65C545.575 416.575 564.65 432.975 577.35 447.8C595.725 465.975 611.125 487.125 622.75 510.475L623.375 511.85C628.675 527.15 620.725 535.1 605.375 535.1L605.425 535.05ZM490.1 0.0999756H259.925C49.85 0.0999756 0.125 49.825 0.125 259.9V490.075C0.125 700.15 49.85 749.875 259.925 749.875H490.1C700.175 749.875 749.9 700.15 749.9 490.075V259.9C749.9 49.825 699.625 0.0999756 490.1 0.0999756Z" fill="#0077FF"/>
</svg>
